<?xml version="1.0" standalone="no"?>
<!DOCTYPE svg PUBLIC "-//W3C//DTD SVG 1.1//EN" "http://www.w3.org/Graphics/SVG/1.1/DTD/svg11.dtd" >
<svg xmlns="http://www.w3.org/2000/svg" xmlns:xlink="http://www.w3.org/1999/xlink" version="1.1">
<metadata>
Created by FontForge 20150928 at Wed Apr 20 00:16:50 2016
 By gravgun
Copyright (c) 2011-2012, Carolina Giovagnoli (huertatipografica.com.ar), with Reserved Font Name 'Andada'
</metadata>
<defs>
<font id="Andada-Bold" horiz-adv-x="523" >
  <font-face 
    font-family="Andada"
    font-weight="700"
    font-stretch="normal"
    units-per-em="1000"
    panose-1="2 0 0 0 0 0 0 0 0 0"
    ascent="800"
    descent="-200"
    x-height="497"
    cap-height="710"
    bbox="-217 -274 1287 1039"
    underline-thickness="50"
    underline-position="-100"
    stemh="100"
    stemv="140"
    unicode-range="U+0020-FB02"
  />
<missing-glyph horiz-adv-x="179" 
 />
    <glyph glyph-name="Etilde" unicode="&#x2dc;E" horiz-adv-x="616" 
d="M46 635l5 75s64 -5 100 -5h268c20 0 114 10 114 10l19 -18l7 -156l-72 -5c-2 16 -5 44 -9 59c-1 4 -5 16 -10 24c-20 2 -49 4 -79 4h-110c-1 -18 -4 -65 -4 -81v-143c10 -1 21 -1 26 -1h56c20 0 44 9 44 9l9 64l62 -5s-1 -63 -1 -83c0 -50 3 -127 3 -127l-64 -6l-9 60
s-44 6 -64 6h-31c-3 0 -24 0 -31 -1v-122c0 -38 2 -86 3 -106h125c29 0 57 4 77 8c10 18 16 33 19 43c4 15 10 41 12 57l70 -5l-15 -176l-19 -18s-94 4 -114 4h-282c-48 -1 -101 -5 -101 -5l-5 70l66 12c3 10 9 66 9 86v349c0 50 -4 90 -9 111zM459 883l49 -28
s-45 -101 -88 -101s-142 38 -185 38c-24 0 -49 -42 -49 -42l-47 28s46 105 89 105c42 0 143 -38 185 -38c24 0 46 38 46 38z" />
    <glyph glyph-name="Idieresis" unicode="&#xa8;I" horiz-adv-x="405" 
d="M350 710l5 -81l-66 -6c-3 -15 -9 -61 -9 -81v-349c0 -50 7 -102 9 -116l65 -6l-5 -76s-81 5 -194 5c-47 0 -100 -5 -100 -5l-5 70l66 12c1 10 9 66 9 86v349c0 50 -7 95 -9 111l-65 12l5 75s53 -5 100 -5c113 0 194 5 194 5zM115 896c41 0 65 -26 65 -70
c0 -41 -22 -69 -65 -69c-42 0 -65 28 -65 69s23 70 65 70zM289 896c41 0 65 -26 65 -70c0 -41 -22 -69 -65 -69c-42 0 -64 28 -64 69s22 70 64 70z" />
    <glyph glyph-name="Itilde" unicode="&#x2dc;I" horiz-adv-x="405" 
d="M360 710l5 -81l-66 -6c-3 -15 -9 -61 -9 -81v-349c0 -50 7 -102 9 -116l65 -6l-5 -76s-81 5 -194 5c-47 0 -100 -5 -100 -5l-5 70l66 12c1 10 9 66 9 86v349c0 50 -7 95 -9 111l-65 12l5 75s53 -5 100 -5c113 0 194 5 194 5zM361 883l49 -28s-45 -101 -88 -101
s-142 38 -185 38c-24 0 -49 -42 -49 -42l-47 28s46 105 89 105c42 0 143 -38 185 -38c24 0 46 38 46 38z" />
    <glyph glyph-name="Odieresis" unicode="&#xa8;O" horiz-adv-x="768" 
d="M741 352c0 -225 -140 -371 -357 -371s-357 146 -357 371c0 226 140 372 357 372s357 -146 357 -372zM207 352c0 -186 57 -274 177 -274s177 88 177 274c0 187 -57 275 -177 275s-177 -88 -177 -275zM265 896c42 0 67 -26 67 -70c0 -41 -23 -69 -67 -69s-68 28 -68 69
s24 70 68 70zM502 896c42 0 67 -26 67 -70c0 -41 -23 -69 -67 -69s-67 28 -67 69s23 70 67 70z" />
    <glyph glyph-name="Utilde" unicode="&#x2dc;U" horiz-adv-x="779" 
d="M749 710l5 -81l-66 -6c-3 -14 -9 -61 -9 -81v-274c0 -171 -100 -283 -290 -283c-191 0 -289 112 -289 283v244c0 50 -6 97 -9 111l-65 12l5 75s53 -5 100 -5c113 0 199 5 199 5l5 -81l-66 -6c-3 -11 -9 -61 -9 -81v-282c0 -90 51 -161 146 -161c105 0 141 61 141 161v252
c0 50 -7 96 -9 111l-65 12l5 75s53 -5 100 -5c113 0 171 5 171 5zM530 883l49 -28s-45 -101 -88 -101s-142 38 -185 38c-24 0 -49 -42 -49 -42l-47 28s46 105 89 105c42 0 143 -38 185 -38c24 0 46 38 46 38z" />
    <glyph glyph-name="Yacute" unicode="&#xb4;Y" horiz-adv-x="712" 
d="M710 637l-60 -7s-45 -54 -62 -86l-153 -294v-57c0 -50 7 -102 9 -116l65 -6l-5 -76s-81 5 -194 5c-47 0 -100 -5 -100 -5l-5 70l66 12c1 10 9 66 9 86v86l-178 328c-14 24 -48 54 -48 54l-60 9l5 70s55 -5 92 -5c113 0 208 5 208 5l5 -73l-53 -9s7 -33 17 -52l105 -207
l110 221c4 8 4 38 4 38l-44 12l5 70s63 -5 110 -5c83 0 147 5 147 5zM476 898l36 -84s-143 -40 -162 -46l-74 -38l-37 64z" />
    <glyph glyph-name="Ytilde" unicode="&#x2dc;Y" horiz-adv-x="712" 
d="M710 637l-60 -7s-45 -54 -62 -86l-153 -294v-57c0 -50 7 -102 9 -116l65 -6l-5 -76s-81 5 -194 5c-47 0 -100 -5 -100 -5l-5 70l66 12c1 10 9 66 9 86v86l-178 328c-14 24 -48 54 -48 54l-60 9l5 70s55 -5 92 -5c113 0 208 5 208 5l5 -73l-53 -9s7 -33 17 -52l105 -207
l110 221c4 8 4 38 4 38l-44 12l5 70s63 -5 110 -5c83 0 147 5 147 5zM497 883l49 -28s-45 -101 -88 -101s-142 38 -185 38c-24 0 -49 -42 -49 -42l-47 28s46 105 89 105c42 0 143 -38 185 -38c24 0 46 38 46 38z" />
    <glyph glyph-name="etilde" unicode="&#x2dc;e" horiz-adv-x="501" 
d="M266 503c142 0 218 -91 209 -243l-21 -39h-269c7 -103 46 -140 125 -140c73 0 121 33 121 33l35 -58c-52 -47 -118 -71 -196 -71c-153 0 -245 94 -245 257c0 168 97 261 241 261zM386 723l49 -28s-45 -101 -88 -101s-122 38 -165 38c-24 0 -49 -42 -49 -42l-47 28
s46 105 89 105c42 0 123 -38 165 -38c24 0 46 38 46 38zM255 424c-52 0 -67 -54 -71 -130l133 8s1 6 1 8c0 76 -20 114 -63 114z" />
    <glyph glyph-name="idieresis" unicode="&#xa8;i" horiz-adv-x="336" 
d="M319 71l-5 -76s-66 5 -179 5c-47 0 -100 -5 -100 -5l-5 70l66 12s9 66 9 86v162c0 20 -10 87 -10 87l-75 17l9 74s75 -9 117 -9l88 2l21 -19s-10 -132 -10 -182v-102c0 -50 9 -116 9 -116zM67 725c41 0 65 -26 65 -70c0 -41 -22 -69 -65 -69c-42 0 -65 28 -65 69
s23 70 65 70zM241 725c41 0 65 -26 65 -70c0 -41 -22 -69 -65 -69c-42 0 -64 28 -64 69s22 70 64 70z" />
    <glyph glyph-name="itilde" unicode="&#x2dc;i" horiz-adv-x="336" 
d="M299 71l-5 -76s-66 5 -179 5c-47 0 -100 -5 -100 -5l-5 70l66 12s9 66 9 86v162c0 20 -10 87 -10 87l-75 17l9 74s75 -9 117 -9l88 2l21 -19s-10 -132 -10 -182v-102c0 -50 9 -116 9 -116zM236 723l49 -28s-39 -101 -76 -101s-106 38 -143 38c-18 0 -43 -42 -43 -42
l-47 28s40 105 77 105c36 0 107 -38 143 -38c18 0 40 38 40 38z" />
    <glyph glyph-name="odieresis" unicode="&#xa8;o" horiz-adv-x="544" 
d="M519 244c0 -166 -88 -259 -247 -259s-247 93 -247 259c0 167 88 259 247 259s247 -92 247 -259zM360 244c0 123 -26 174 -88 174s-88 -51 -88 -174s26 -174 88 -174s88 51 88 174zM154 725c42 0 67 -26 67 -70c0 -41 -23 -69 -67 -69s-68 28 -68 69s24 70 68 70zM391 725
c42 0 67 -26 67 -70c0 -41 -23 -69 -67 -69s-67 28 -67 69s23 70 67 70z" />
    <glyph glyph-name="utilde" unicode="&#x2dc;u" horiz-adv-x="622" 
d="M308 429l9 74s75 -9 117 -9l88 2l21 -19s-10 -132 -10 -182v-102c0 -50 9 -116 9 -116l60 -6l-6 -76s-49 5 -184 5l-9 78c-36 -50 -80 -82 -145 -82c-116 0 -176 62 -176 178v151c0 20 -10 90 -10 90l-55 14l9 74s70 -9 112 -9l73 2l21 -19s-10 -132 -10 -182v-107
c0 -52 21 -92 73 -92c50 0 98 48 98 138v91c0 20 -10 87 -10 87zM399 723l49 -28s-45 -101 -88 -101s-122 38 -165 38c-24 0 -49 -42 -49 -42l-47 28s46 105 89 105c42 0 123 -38 165 -38c24 0 46 38 46 38z" />
    <glyph glyph-name="yacute" unicode="&#xb4;y" horiz-adv-x="571" 
d="M301 158l61 200c4 12 11 46 12 65l-44 5l6 71s54 -5 119 -5c44 0 109 5 109 5l4 -71l-49 -5c-11 -19 -35 -75 -42 -95l-218 -563l-198 13l11 79l55 -2c14 0 31 2 44 6c13 15 24 36 31 56l31 83l-124 325c-9 23 -30 76 -42 98l-63 11l6 69s74 -9 139 -9c44 0 113 5 113 5
l4 -71l-42 -5c2 -21 9 -53 14 -67zM386 755l47 -76s-122 -56 -140 -65l-67 -49l-47 58z" />
    <glyph glyph-name="ytilde" unicode="&#x2dc;y" horiz-adv-x="571" 
d="M301 158l61 200c4 12 11 46 12 65l-44 5l6 71s54 -5 119 -5c44 0 109 5 109 5l4 -71l-49 -5c-11 -19 -35 -75 -42 -95l-218 -563l-198 13l11 79l55 -2c14 0 31 2 44 6c13 15 24 36 31 56l31 83l-124 325c-9 23 -30 76 -42 98l-63 11l6 69s74 -9 139 -9c44 0 113 5 113 5
l4 -71l-42 -5c2 -21 9 -53 14 -67zM395 723l49 -28s-45 -101 -88 -101s-122 38 -165 38c-24 0 -49 -42 -49 -42l-47 28s46 105 89 105c42 0 123 -38 165 -38c24 0 46 38 46 38z" />
    <glyph glyph-name="fi" unicode="fi" horiz-adv-x="691" 
d="M281 770c69 0 147 -14 147 -14l-15 -167l-74 3v45c0 15 -3 29 -4 44c-9 4 -22 8 -37 8c-50 0 -58 -39 -58 -119v-76h270l88 2l21 -19s-10 -132 -10 -182v-102c0 -50 9 -116 9 -116l65 -6l-5 -76s-66 5 -179 5c-47 0 -100 -5 -100 -5l-5 70l66 12s9 66 9 86v162
c0 20 -10 87 -10 87s-42 6 -107 7h-112v-226c0 -50 9 -116 9 -116l85 -6l-5 -76s-76 5 -189 5c-47 0 -100 -5 -100 -5l-5 70l56 12s9 66 9 86v256h-57l-3 63c24 8 43 12 60 19v79c0 110 71 190 181 190zM530 735c49 0 79 -30 79 -80c0 -47 -28 -79 -79 -79s-79 32 -79 79
s28 80 79 80z" />
    <glyph glyph-name="fl" unicode="fl" horiz-adv-x="671" 
d="M680 71l-5 -76s-66 5 -179 5c-47 0 -100 -5 -100 -5l-5 70l66 12s9 66 9 86v424c0 20 -10 87 -10 87s-77 23 -131 23c-75 0 -85 -52 -85 -127v-76h121l-9 -75h-112v-226c0 -50 9 -116 9 -116l85 -6l-5 -76s-76 5 -189 5c-47 0 -100 -5 -100 -5l-5 70l56 12s9 66 9 86v256
h-57l-3 63c24 8 43 12 60 19v79c0 110 71 190 181 190c105 0 121 -14 226 -14c33 0 88 2 88 2l21 -19s-10 -132 -10 -182v-364c0 -50 9 -116 9 -116z" />
    <glyph glyph-name="fj" unicode="fj" horiz-adv-x="687" 
d="M469 325c0 20 -10 87 -10 87s-42 6 -107 7h-112v-226c0 -50 9 -116 9 -116l85 -6l-5 -76s-76 5 -189 5c-47 0 -100 -5 -100 -5l-5 70l56 12s9 66 9 86v256h-57l-3 63c24 8 43 12 60 19v79c0 110 71 190 181 190c69 0 147 -14 147 -14l-15 -167l-74 3v45c0 15 -3 29 -4 44
c-9 4 -22 8 -37 8c-50 0 -58 -39 -58 -119v-76h270l88 2l21 -19s-10 -132 -10 -182v-305c0 -40 -168 -225 -168 -225l-47 26s75 190 75 230v304zM530 735c49 0 79 -30 79 -80c0 -47 -28 -79 -79 -79s-79 32 -79 79s28 80 79 80z" />
    <glyph glyph-name="Gtilde" unicode="&#x2dc;G" horiz-adv-x="699" 
d="M394 720c91 0 160 -18 229 -34l-13 -165l-79 4l-3 47c0 6 -7 28 -12 41c-44 9 -80 14 -122 14c-134 0 -187 -121 -187 -274s52 -275 186 -275c34 0 65 3 98 8c4 18 7 34 7 42v68c0 20 -10 61 -10 61l-106 8l5 98h111c33 0 115 3 115 3l28 -25s-9 -95 -9 -145v-177
c-69 -16 -148 -34 -238 -34c-243 0 -367 149 -367 367s124 368 367 368zM538 883l49 -28s-45 -101 -88 -101s-142 38 -185 38c-24 0 -49 -42 -49 -42l-47 28s46 105 89 105c42 0 143 -38 185 -38c24 0 46 38 46 38z" />
    <glyph glyph-name="gtilde" unicode="&#x2dc;g" horiz-adv-x="524" 
d="M505 418h-59c18 -27 26 -53 26 -94c0 -110 -86 -183 -215 -183c-25 0 -48 3 -68 8c-10 -12 -14 -21 -14 -27c0 -22 23 -32 83 -38c137 -15 180 -21 205 -30c34 -13 52 -44 52 -93c0 -110 -118 -196 -268 -196c-146 0 -220 49 -220 143c0 22 38 57 92 88
c-30 21 -43 49 -43 92c0 14 20 40 61 80c-57 30 -91 84 -91 152c0 110 86 183 215 183c41 0 78 -7 109 -21l131 22zM178 -28c-12 -16 -18 -34 -18 -48c0 -51 46 -79 131 -79c63 0 102 24 102 63c0 18 -12 31 -33 34l-130 20c-20 3 -37 6 -52 10zM261 437
c-42 0 -63 -38 -63 -119c0 -75 20 -111 60 -111c42 0 62 38 62 119c0 75 -19 111 -59 111zM387 723l49 -28s-45 -101 -88 -101s-122 38 -165 38c-24 0 -49 -42 -49 -42l-47 28s46 105 89 105c42 0 123 -38 165 -38c24 0 46 38 46 38z" />
    <glyph glyph-name=".notdef" horiz-adv-x="179" 
 />
    <glyph glyph-name="AE" unicode="&#xc6;" horiz-adv-x="912" 
d="M880 697l7 -161l-72 -5c-2 16 -5 44 -9 59c-1 4 -5 13 -9 23c-20 2 -50 5 -80 5h-167c1 -18 4 -60 6 -76l22 -142c4 -1 20 -2 26 -2h81c20 0 44 9 44 9l9 64l62 -5s-1 -60 -1 -80c0 -50 3 -127 3 -127l-64 -6l-9 60s-44 6 -64 6h-56c-4 0 -15 -1 -18 -2l19 -124l20 -106
h101c29 0 57 4 77 8c9 19 18 37 19 43c4 15 10 41 12 57l70 -5l-15 -176l-19 -18s-94 4 -114 4h-271c-37 0 -81 -5 -81 -5l-5 70l67 12c0 11 0 43 -2 55l-8 52h-217l-39 -69c-2 -3 -8 -20 -16 -38l69 -6l-5 -76s-64 5 -147 5c-47 0 -100 -5 -100 -5l-5 70l51 9
c24 33 52 73 60 87l263 462l-64 12l5 75s53 -5 100 -5h331c20 0 114 10 114 10zM290 266l158 2l-33 211l-2 8z" />
    <glyph glyph-name="Aacute" unicode="&#xc1;" horiz-adv-x="667" 
d="M668 65l-5 -70s-49 5 -84 5c-119 0 -204 -5 -204 -5l-5 73l59 9l-5 52l-14 50h-189l-17 -64l-6 -38l58 -12l-5 -70s-59 5 -106 5c-85 0 -139 -5 -139 -5l-5 73l45 7l42 86l189 544l112 11l200 -588l23 -54zM320 498l-72 -237l136 2zM454 898l36 -84s-143 -40 -162 -46
l-74 -38l-37 64z" />
    <glyph glyph-name="Abreve" unicode="&#x102;" horiz-adv-x="667" 
d="M668 65l-5 -70s-49 5 -84 5c-119 0 -204 -5 -204 -5l-5 73l59 9l-5 52l-14 50h-189l-17 -64l-6 -38l58 -12l-5 -70s-59 5 -106 5c-85 0 -139 -5 -139 -5l-5 73l45 7l42 86l189 544l112 11l200 -588l23 -54zM320 498l-72 -237l136 2zM422 898h66
c0 -100 -61 -155 -154 -155s-154 55 -154 155h66c0 -50 38 -79 88 -79s88 29 88 79z" />
    <glyph glyph-name="Abreveacute" unicode="&#x1eae;" horiz-adv-x="667" 
d="M668 65l-5 -70s-49 5 -84 5c-119 0 -204 -5 -204 -5l-5 73l59 9l-5 52l-14 50h-189l-17 -64l-6 -38l58 -12l-5 -70s-59 5 -106 5c-85 0 -139 -5 -139 -5l-5 73l45 7l42 86l189 544l112 11l200 -588l23 -54zM320 498l-72 -237l136 2zM420 870h68
c-5 -79 -71 -128 -154 -128s-149 49 -154 128h68c5 -40 41 -59 86 -59s81 19 86 59zM434 980l40 -65s-90 -37 -102 -45l-58 -39l-37 51z" />
    <glyph glyph-name="Abrevedotbelow" unicode="&#x1eb6;" horiz-adv-x="667" 
d="M668 65l-5 -70s-49 5 -84 5c-119 0 -204 -5 -204 -5l-5 73l59 9l-5 52l-14 50h-189l-17 -64l-6 -38l58 -12l-5 -70s-59 5 -106 5c-85 0 -139 -5 -139 -5l-5 73l45 7l42 86l189 544l112 11l200 -588l23 -54zM320 498l-72 -237l136 2zM316 -65c48 0 77 -29 77 -78
c0 -46 -27 -77 -77 -77s-77 31 -77 77s27 78 77 78zM422 898h66c0 -100 -61 -155 -154 -155s-154 55 -154 155h66c0 -50 38 -79 88 -79s88 29 88 79z" />
    <glyph glyph-name="Abrevegrave" unicode="&#x1eb0;" horiz-adv-x="667" 
d="M668 65l-5 -70s-49 5 -84 5c-119 0 -204 -5 -204 -5l-5 73l59 9l-5 52l-14 50h-189l-17 -64l-6 -38l58 -12l-5 -70s-59 5 -106 5c-85 0 -139 -5 -139 -5l-5 73l45 7l42 86l189 544l112 11l200 -588l23 -54zM320 498l-72 -237l136 2zM420 870h68
c-5 -79 -71 -128 -154 -128s-149 49 -154 128h68c5 -40 41 -59 86 -59s81 19 86 59zM395 882l-37 -51l-58 39c-12 8 -102 45 -102 45l40 65z" />
    <glyph glyph-name="Abrevehookabove" unicode="&#x1eb2;" horiz-adv-x="667" 
d="M668 65l-5 -70s-49 5 -84 5c-119 0 -204 -5 -204 -5l-5 73l59 9l-5 52l-14 50h-189l-17 -64l-6 -38l58 -12l-5 -70s-59 5 -106 5c-85 0 -139 -5 -139 -5l-5 73l45 7l42 86l189 544l112 11l200 -588l23 -54zM320 498l-72 -237l136 2zM343 980c39 0 71 -20 71 -57
c0 -44 -54 -49 -54 -69c0 -8 5 -18 5 -18c-6 -4 -22 -5 -30 -5c-20 0 -34 11 -34 28v4c0 31 41 33 41 58c0 9 -8 14 -18 14c-15 0 -36 -9 -36 -9l-15 42c18 6 29 12 70 12zM420 870h68c-5 -79 -71 -128 -154 -128s-149 49 -154 128h68c5 -40 41 -59 86 -59s81 19 86 59z" />
    <glyph glyph-name="Abrevetilde" unicode="&#x1eb4;" horiz-adv-x="667" 
d="M668 65l-5 -70s-49 5 -84 5c-119 0 -204 -5 -204 -5l-5 73l59 9l-5 52l-14 50h-189l-17 -64l-6 -38l58 -12l-5 -70s-59 5 -106 5c-85 0 -139 -5 -139 -5l-5 73l45 7l42 86l189 544l112 11l200 -588l23 -54zM320 498l-72 -237l136 2zM445 980l31 -26s-41 -67 -76 -67
c-36 0 -82 25 -119 25c-24 0 -55 -24 -55 -24l-33 27s41 65 77 65s83 -24 119 -24c24 0 56 24 56 24zM420 870h68c-5 -79 -71 -128 -154 -128s-149 49 -154 128h68c5 -40 41 -59 86 -59s81 19 86 59z" />
    <glyph glyph-name="Acaron" unicode="&#x1cd;" horiz-adv-x="667" 
d="M668 65l-5 -70s-49 5 -84 5c-119 0 -204 -5 -204 -5l-5 73l59 9l-5 52l-14 50h-189l-17 -64l-6 -38l58 -12l-5 -70s-59 5 -106 5c-85 0 -139 -5 -139 -5l-5 73l45 7l42 86l189 544l112 11l200 -588l23 -54zM485 939l47 -58l-198 -133l-198 133l47 58l67 -49l84 -41l84 41
zM320 498l-72 -237l136 2z" />
    <glyph glyph-name="Acircumflex" unicode="&#xc2;" horiz-adv-x="667" 
d="M668 65l-5 -70s-49 5 -84 5c-119 0 -204 -5 -204 -5l-5 73l59 9l-5 52l-14 50h-189l-17 -64l-6 -38l58 -12l-5 -70s-59 5 -106 5c-85 0 -139 -5 -139 -5l-5 73l45 7l42 86l189 544l112 11l200 -588l23 -54zM320 498l-72 -237l136 2zM334 908l198 -133l-47 -58l-67 49
l-84 41l-84 -41l-67 -49l-47 58z" />
    <glyph glyph-name="Acircumflexacute" unicode="&#x1ea4;" horiz-adv-x="667" 
d="M668 65l-5 -70s-49 5 -84 5c-119 0 -204 -5 -204 -5l-5 73l59 9l-5 52l-14 50h-189l-17 -64l-6 -38l58 -12l-5 -70s-59 5 -106 5c-85 0 -139 -5 -139 -5l-5 73l45 7l42 86l189 544l112 11l200 -588l23 -54zM338 928l151 -141l-49 -39l-63 49l-39 28l-39 -28l-63 -49
l-49 39zM320 498l-72 -237l136 2zM533 1008l55 -52s-70 -61 -76 -67l-40 -44l-50 40z" />
    <glyph glyph-name="Acircumflexdotbelow" unicode="&#x1eac;" horiz-adv-x="667" 
d="M668 65l-5 -70s-49 5 -84 5c-119 0 -204 -5 -204 -5l-5 73l59 9l-5 52l-14 50h-189l-17 -64l-6 -38l58 -12l-5 -70s-59 5 -106 5c-85 0 -139 -5 -139 -5l-5 73l45 7l42 86l189 544l112 11l200 -588l23 -54zM320 498l-72 -237l136 2zM334 908l198 -133l-47 -58l-67 49
l-84 41l-84 -41l-67 -49l-47 58zM316 -65c48 0 77 -29 77 -78c0 -46 -27 -77 -77 -77s-77 31 -77 77s27 78 77 78z" />
    <glyph glyph-name="Acircumflexgrave" unicode="&#x1ea6;" horiz-adv-x="667" 
d="M668 65l-5 -70s-49 5 -84 5c-119 0 -204 -5 -204 -5l-5 73l59 9l-5 52l-14 50h-189l-17 -64l-6 -38l58 -12l-5 -70s-59 5 -106 5c-85 0 -139 -5 -139 -5l-5 73l45 7l42 86l189 544l112 11l200 -588l23 -54zM336 928l151 -141l-49 -39l-63 49l-39 28l-39 -28l-63 -49
l-49 39zM320 498l-72 -237l136 2zM532 885l-50 -40l-40 44c-6 6 -76 67 -76 67l55 52z" />
    <glyph glyph-name="Acircumflexhookabove" unicode="&#x1ea8;" horiz-adv-x="667" 
d="M668 65l-5 -70s-49 5 -84 5c-119 0 -204 -5 -204 -5l-5 73l59 9l-5 52l-14 50h-189l-17 -64l-6 -38l58 -12l-5 -70s-59 5 -106 5c-85 0 -139 -5 -139 -5l-5 73l45 7l42 86l189 544l112 11l200 -588l23 -54zM336 928l151 -141l-49 -39l-63 49l-39 28l-39 -28l-63 -49
l-49 39zM320 498l-72 -237l136 2zM499 981c39 0 71 -20 71 -57c0 -44 -54 -49 -54 -69c0 -8 5 -18 5 -18c-6 -4 -22 -5 -30 -5c-20 0 -34 11 -34 28v4c0 31 41 33 41 58c0 9 -8 14 -18 14c-15 0 -36 -9 -36 -9l-15 42c18 6 29 12 70 12z" />
    <glyph glyph-name="Acircumflextilde" unicode="&#x1eaa;" horiz-adv-x="667" 
d="M668 65l-5 -70s-49 5 -84 5c-119 0 -204 -5 -204 -5l-5 73l59 9l-5 52l-14 50h-189l-17 -64l-6 -38l58 -12l-5 -70s-59 5 -106 5c-85 0 -139 -5 -139 -5l-5 73l45 7l42 86l189 544l112 11l200 -588l23 -54zM320 498l-72 -237l136 2zM344 876l163 -87l-29 -52l-63 30
c-8 3 -45 14 -71 21c-26 -7 -63 -18 -71 -21l-63 -30l-29 52zM450 982l31 -26s-41 -67 -76 -67c-36 0 -82 25 -119 25c-24 0 -55 -24 -55 -24l-33 27s41 65 77 65s83 -24 119 -24c24 0 56 24 56 24z" />
    <glyph glyph-name="Adieresis" unicode="&#xc4;" horiz-adv-x="667" 
d="M668 65l-5 -70s-49 5 -84 5c-119 0 -204 -5 -204 -5l-5 73l59 9l-5 52l-14 50h-189l-17 -64l-6 -38l58 -12l-5 -70s-59 5 -106 5c-85 0 -139 -5 -139 -5l-5 73l45 7l42 86l189 544l112 11l200 -588l23 -54zM320 498l-72 -237l136 2zM216 896c42 0 67 -26 67 -70
c0 -41 -23 -69 -67 -69s-68 28 -68 69s24 70 68 70zM453 896c42 0 67 -26 67 -70c0 -41 -23 -69 -67 -69s-67 28 -67 69s23 70 67 70z" />
    <glyph glyph-name="Adotbelow" unicode="&#x1ea0;" horiz-adv-x="667" 
d="M668 65l-5 -70s-49 5 -84 5c-119 0 -204 -5 -204 -5l-5 73l59 9l-5 52l-14 50h-189l-17 -64l-6 -38l58 -12l-5 -70s-59 5 -106 5c-85 0 -139 -5 -139 -5l-5 73l45 7l42 86l189 544l112 11l200 -588l23 -54zM320 498l-72 -237l136 2zM320 -65c48 0 77 -29 77 -78
c0 -46 -27 -77 -77 -77s-77 31 -77 77s27 78 77 78z" />
    <glyph glyph-name="Agrave" unicode="&#xc0;" horiz-adv-x="667" 
d="M668 65l-5 -70s-49 5 -84 5c-119 0 -204 -5 -204 -5l-5 73l59 9l-5 52l-14 50h-189l-17 -64l-6 -38l58 -12l-5 -70s-59 5 -106 5c-85 0 -139 -5 -139 -5l-5 73l45 7l42 86l189 544l112 11l200 -588l23 -54zM320 498l-72 -237l136 2zM450 804l-37 -64l-74 38
c-19 6 -162 46 -162 46l36 84z" />
    <glyph glyph-name="Ahookabove" unicode="&#x1ea2;" horiz-adv-x="667" 
d="M668 65l-5 -70s-49 5 -84 5c-119 0 -204 -5 -204 -5l-5 73l59 9l-5 52l-14 50h-189l-17 -64l-6 -38l58 -12l-5 -70s-59 5 -106 5c-85 0 -139 -5 -139 -5l-5 73l45 7l42 86l189 544l112 11l200 -588l23 -54zM320 498l-72 -237l136 2zM309 939c47 0 94 -26 94 -74
c0 -52 -65 -58 -65 -82c0 -12 6 -26 6 -26c-5 -5 -17 -7 -28 -7c-27 0 -45 15 -45 38v4c0 34 49 40 49 68c0 16 -11 23 -25 23c-18 0 -42 -11 -42 -11l-16 49c12 6 37 18 72 18z" />
    <glyph glyph-name="Amacron" unicode="&#x100;" horiz-adv-x="667" 
d="M668 65l-5 -70s-49 5 -84 5c-119 0 -204 -5 -204 -5l-5 73l59 9l-5 52l-14 50h-189l-17 -64l-6 -38l58 -12l-5 -70s-59 5 -106 5c-85 0 -139 -5 -139 -5l-5 73l45 7l42 86l189 544l112 11l200 -588l23 -54zM320 498l-72 -237l136 2zM488 771h-315v73h322z" />
    <glyph glyph-name="Aogonek" unicode="&#x104;" horiz-adv-x="667" 
d="M668 65l-5 -70s-49 5 -84 5h-86c-49 -8 -75 -50 -75 -85c0 -26 15 -48 45 -48c10 0 21 2 34 7l18 -48c-18 -9 -54 -23 -95 -23c-64 0 -109 29 -109 89c0 94 116 97 116 199c0 9 -1 26 -3 38l-14 50h-189l-17 -64l-6 -38l58 -12l-5 -70s-59 5 -106 5
c-85 0 -139 -5 -139 -5l-5 73l45 7l42 86l189 544l112 11l200 -588l23 -54zM320 498l-72 -237l136 2z" />
    <glyph glyph-name="Atilde" unicode="&#xc3;" horiz-adv-x="667" 
d="M668 65l-5 -70s-49 5 -84 5c-119 0 -204 -5 -204 -5l-5 73l59 9l-5 52l-14 50h-189l-17 -64l-6 -38l58 -12l-5 -70s-59 5 -106 5c-85 0 -139 -5 -139 -5l-5 73l45 7l42 86l189 544l112 11l200 -588l23 -54zM320 498l-72 -237l136 2zM477 883l49 -28s-45 -101 -88 -101
s-142 38 -185 38c-24 0 -49 -42 -49 -42l-47 28s46 105 89 105c42 0 143 -38 185 -38c24 0 46 38 46 38z" />
    <glyph glyph-name="B" unicode="B" horiz-adv-x="633" 
d="M352 715c120 0 225 -62 225 -172c0 -88 -58 -152 -139 -172v-7c98 -15 170 -71 170 -175c0 -133 -110 -194 -239 -194c-61 0 -163 5 -221 5c-47 0 -92 -5 -92 -5l-5 70l60 12c3 14 9 66 9 86v349c0 40 -4 88 -9 111l-59 12l5 75s45 -5 92 -5c43 0 159 10 203 10zM278 629
c-1 -8 -3 -68 -3 -87v-349c0 -44 2 -99 3 -113c18 -2 37 -3 56 -3c72 0 121 47 121 126c0 89 -57 117 -132 117h-10l7 87h6c65 0 106 41 106 124c0 57 -43 102 -105 102c-17 0 -33 -2 -49 -4z" />
    <glyph glyph-name="C" unicode="C" horiz-adv-x="637" 
d="M594 191l8 -172c-65 -16 -140 -34 -225 -34c-232 0 -350 149 -350 367s118 368 350 368c86 0 151 -18 216 -34l-12 -179l-77 4l-3 61c0 6 -7 28 -12 41c-41 9 -73 14 -112 14c-123 0 -170 -121 -170 -274s46 -275 169 -275c43 0 79 5 124 15c2 7 16 41 16 49
c1 11 3 47 3 47z" />
    <glyph glyph-name="Cacute" unicode="&#x106;" horiz-adv-x="637" 
d="M594 191l8 -172c-65 -16 -140 -34 -225 -34c-232 0 -350 149 -350 367s118 368 350 368c86 0 151 -18 216 -34l-12 -179l-77 4l-3 61c0 6 -7 28 -12 41c-41 9 -73 14 -112 14c-123 0 -170 -121 -170 -274s46 -275 169 -275c43 0 79 5 124 15c2 7 16 41 16 49
c1 11 3 47 3 47zM478 898l36 -84s-143 -40 -162 -46l-74 -38l-37 64z" />
    <glyph glyph-name="Ccaron" unicode="&#x10c;" horiz-adv-x="637" 
d="M594 191l8 -172c-65 -16 -140 -34 -225 -34c-232 0 -350 149 -350 367s118 368 350 368c86 0 151 -18 216 -34l-12 -179l-77 4l-3 61c0 6 -7 28 -12 41c-41 9 -73 14 -112 14c-123 0 -170 -121 -170 -274s46 -275 169 -275c43 0 79 5 124 15c2 7 16 41 16 49
c1 11 3 47 3 47zM529 939l47 -58l-198 -133l-198 133l47 58l67 -49l84 -41l84 41z" />
    <glyph glyph-name="Ccedilla" unicode="&#xc7;" horiz-adv-x="637" 
d="M594 191l8 -172c-58 -14 -123 -30 -196 -33l-9 -45c59 -1 101 -33 101 -87c0 -63 -51 -89 -114 -89c-37 0 -79 10 -96 18l18 49c16 -5 35 -11 55 -11c24 0 47 8 47 33s-18 31 -42 31c-6 0 -21 -1 -21 -1l-11 14l8 88c-209 14 -315 159 -315 366c0 218 118 368 350 368
c86 0 151 -18 216 -34l-12 -179l-77 4l-3 61c0 6 -7 28 -12 41c-41 9 -73 14 -112 14c-123 0 -170 -121 -170 -274s46 -275 169 -275c43 0 79 5 124 15c2 7 16 41 16 49c1 11 3 47 3 47z" />
    <glyph glyph-name="Cdotaccent" unicode="&#x10a;" horiz-adv-x="637" 
d="M594 191l8 -172c-65 -16 -140 -34 -225 -34c-232 0 -350 149 -350 367s118 368 350 368c86 0 151 -18 216 -34l-12 -179l-77 4l-3 61c0 6 -7 28 -12 41c-41 9 -73 14 -112 14c-123 0 -170 -121 -170 -274s46 -275 169 -275c43 0 79 5 124 15c2 7 16 41 16 49
c1 11 3 47 3 47zM378 905c49 0 79 -30 79 -80c0 -47 -28 -79 -79 -79s-79 32 -79 79s28 80 79 80z" />
    <glyph glyph-name="D" unicode="D" horiz-adv-x="739" 
d="M360 715c232 0 352 -148 352 -363c0 -211 -120 -358 -352 -358c-63 0 -150 6 -210 6c-47 0 -100 -5 -100 -5l-5 70l66 12s9 66 9 86v349c0 50 -9 111 -9 111l-65 12l5 75s53 -5 100 -5c48 0 160 10 209 10zM346 632c-20 0 -44 -4 -67 -8c-1 -17 -4 -66 -4 -82v-349
c0 -44 3 -101 4 -113c11 -1 38 -3 65 -3c150 0 201 122 201 277c0 152 -52 278 -199 278z" />
    <glyph glyph-name="Dcaron" unicode="&#x10e;" horiz-adv-x="739" 
d="M360 715c232 0 352 -148 352 -363c0 -211 -120 -358 -352 -358c-63 0 -150 6 -210 6c-47 0 -100 -5 -100 -5l-5 70l66 12s9 66 9 86v349c0 50 -9 111 -9 111l-65 12l5 75s53 -5 100 -5c48 0 160 10 209 10zM346 632c-20 0 -44 -4 -67 -8c-1 -17 -4 -66 -4 -82v-349
c0 -44 3 -101 4 -113c11 -1 38 -3 65 -3c150 0 201 122 201 277c0 152 -52 278 -199 278zM501 939l47 -58l-198 -133l-198 133l47 58l67 -49l84 -41l84 41z" />
    <glyph glyph-name="Dcroat" unicode="&#x110;" horiz-adv-x="684" 
d="M37 635l5 75s53 -5 100 -5c48 0 160 10 209 10c232 0 352 -148 352 -363c0 -211 -120 -358 -352 -358c-63 0 -150 6 -210 6c-47 0 -100 -5 -100 -5l-5 70l66 12s9 66 9 86v159h-69v73h69v117c0 50 -9 111 -9 111zM266 322v-129c0 -44 3 -101 4 -113c11 -1 38 -3 65 -3
c150 0 201 122 201 277c0 152 -52 278 -199 278c-20 0 -44 -4 -67 -8c-1 -17 -4 -66 -4 -82v-147h98l-5 -73h-93z" />
    <glyph glyph-name="E" unicode="E" horiz-adv-x="616" 
d="M46 635l5 75s64 -5 100 -5h268c20 0 114 10 114 10l19 -18l7 -156l-72 -5c-2 16 -5 44 -9 59c-1 4 -5 16 -10 24c-20 2 -49 4 -79 4h-110c-1 -18 -4 -65 -4 -81v-143c10 -1 21 -1 26 -1h56c20 0 44 9 44 9l9 64l62 -5s-1 -63 -1 -83c0 -50 3 -127 3 -127l-64 -6l-9 60
s-44 6 -64 6h-31c-3 0 -24 0 -31 -1v-122c0 -38 2 -86 3 -106h125c29 0 57 4 77 8c10 18 16 33 19 43c4 15 10 41 12 57l70 -5l-15 -176l-19 -18s-94 4 -114 4h-282c-48 -1 -101 -5 -101 -5l-5 70l66 12c3 10 9 66 9 86v349c0 50 -4 90 -9 111z" />
    <glyph glyph-name="Eacute" unicode="&#xc9;" horiz-adv-x="616" 
d="M46 635l5 75s64 -5 100 -5h268c20 0 114 10 114 10l19 -18l7 -156l-72 -5c-2 16 -5 44 -9 59c-1 4 -5 16 -10 24c-20 2 -49 4 -79 4h-110c-1 -18 -4 -65 -4 -81v-143c10 -1 21 -1 26 -1h56c20 0 44 9 44 9l9 64l62 -5s-1 -63 -1 -83c0 -50 3 -127 3 -127l-64 -6l-9 60
s-44 6 -64 6h-31c-3 0 -24 0 -31 -1v-122c0 -38 2 -86 3 -106h125c29 0 57 4 77 8c10 18 16 33 19 43c4 15 10 41 12 57l70 -5l-15 -176l-19 -18s-94 4 -114 4h-282c-48 -1 -101 -5 -101 -5l-5 70l66 12c3 10 9 66 9 86v349c0 50 -4 90 -9 111zM425 898l36 -84
s-143 -40 -162 -46l-74 -38l-37 64z" />
    <glyph glyph-name="Ecaron" unicode="&#x11a;" horiz-adv-x="616" 
d="M46 635l5 75s64 -5 100 -5h268c20 0 114 10 114 10l19 -18l7 -156l-72 -5c-2 16 -5 44 -9 59c-1 4 -5 16 -10 24c-20 2 -49 4 -79 4h-110c-1 -18 -4 -65 -4 -81v-143c10 -1 21 -1 26 -1h56c20 0 44 9 44 9l9 64l62 -5s-1 -63 -1 -83c0 -50 3 -127 3 -127l-64 -6l-9 60
s-44 6 -64 6h-31c-3 0 -24 0 -31 -1v-122c0 -38 2 -86 3 -106h125c29 0 57 4 77 8c10 18 16 33 19 43c4 15 10 41 12 57l70 -5l-15 -176l-19 -18s-94 4 -114 4h-282c-48 -1 -101 -5 -101 -5l-5 70l66 12c3 10 9 66 9 86v349c0 50 -4 90 -9 111zM459 929l47 -58l-198 -133
l-198 133l47 58l67 -49l84 -41l84 41z" />
    <glyph glyph-name="Ecircumflex" unicode="&#xca;" horiz-adv-x="616" 
d="M46 635l5 75s64 -5 100 -5h268c20 0 114 10 114 10l19 -18l7 -156l-72 -5c-2 16 -5 44 -9 59c-1 4 -5 16 -10 24c-20 2 -49 4 -79 4h-110c-1 -18 -4 -65 -4 -81v-143c10 -1 21 -1 26 -1h56c20 0 44 9 44 9l9 64l62 -5s-1 -63 -1 -83c0 -50 3 -127 3 -127l-64 -6l-9 60
s-44 6 -64 6h-31c-3 0 -24 0 -31 -1v-122c0 -38 2 -86 3 -106h125c29 0 57 4 77 8c10 18 16 33 19 43c4 15 10 41 12 57l70 -5l-15 -176l-19 -18s-94 4 -114 4h-282c-48 -1 -101 -5 -101 -5l-5 70l66 12c3 10 9 66 9 86v349c0 50 -4 90 -9 111zM305 948l198 -133l-47 -58
l-67 49l-84 41l-84 -41l-67 -49l-47 58z" />
    <glyph glyph-name="Ecircumflexacute" unicode="&#x1ebe;" horiz-adv-x="616" 
d="M46 635l5 75s64 -5 100 -5h268c20 0 114 10 114 10l19 -18l7 -156l-72 -5c-2 16 -5 44 -9 59c-1 4 -5 16 -10 24c-20 2 -49 4 -79 4h-110c-1 -18 -4 -65 -4 -81v-143c10 -1 21 -1 26 -1h56c20 0 44 9 44 9l9 64l62 -5s-1 -63 -1 -83c0 -50 3 -127 3 -127l-64 -6l-9 60
s-44 6 -64 6h-31c-3 0 -24 0 -31 -1v-122c0 -38 2 -86 3 -106h125c29 0 57 4 77 8c10 18 16 33 19 43c4 15 10 41 12 57l70 -5l-15 -176l-19 -18s-94 4 -114 4h-282c-48 -1 -101 -5 -101 -5l-5 70l66 12c3 10 9 66 9 86v349c0 50 -4 90 -9 111zM309 928l151 -141l-49 -39
l-63 49l-39 28l-39 -28l-63 -49l-49 39zM504 1008l55 -52s-70 -61 -76 -67l-40 -44l-50 40z" />
    <glyph glyph-name="Ecircumflexdotbelow" unicode="&#x1ec6;" horiz-adv-x="616" 
d="M46 635l5 75s64 -5 100 -5h268c20 0 114 10 114 10l19 -18l7 -156l-72 -5c-2 16 -5 44 -9 59c-1 4 -5 16 -10 24c-20 2 -49 4 -79 4h-110c-1 -18 -4 -65 -4 -81v-143c10 -1 21 -1 26 -1h56c20 0 44 9 44 9l9 64l62 -5s-1 -63 -1 -83c0 -50 3 -127 3 -127l-64 -6l-9 60
s-44 6 -64 6h-31c-3 0 -24 0 -31 -1v-122c0 -38 2 -86 3 -106h125c29 0 57 4 77 8c10 18 16 33 19 43c4 15 10 41 12 57l70 -5l-15 -176l-19 -18s-94 4 -114 4h-282c-48 -1 -101 -5 -101 -5l-5 70l66 12c3 10 9 66 9 86v349c0 50 -4 90 -9 111zM340 -65c48 0 77 -29 77 -78
c0 -46 -27 -77 -77 -77s-77 31 -77 77s27 78 77 78zM305 948l198 -133l-47 -58l-67 49l-84 41l-84 -41l-67 -49l-47 58z" />
    <glyph glyph-name="Ecircumflexgrave" unicode="&#x1ec0;" horiz-adv-x="616" 
d="M46 635l5 75s64 -5 100 -5h268c20 0 114 10 114 10l19 -18l7 -156l-72 -5c-2 16 -5 44 -9 59c-1 4 -5 16 -10 24c-20 2 -49 4 -79 4h-110c-1 -18 -4 -65 -4 -81v-143c10 -1 21 -1 26 -1h56c20 0 44 9 44 9l9 64l62 -5s-1 -63 -1 -83c0 -50 3 -127 3 -127l-64 -6l-9 60
s-44 6 -64 6h-31c-3 0 -24 0 -31 -1v-122c0 -38 2 -86 3 -106h125c29 0 57 4 77 8c10 18 16 33 19 43c4 15 10 41 12 57l70 -5l-15 -176l-19 -18s-94 4 -114 4h-282c-48 -1 -101 -5 -101 -5l-5 70l66 12c3 10 9 66 9 86v349c0 50 -4 90 -9 111zM307 928l151 -141l-49 -39
l-63 49l-39 28l-39 -28l-63 -49l-49 39zM503 885l-50 -40l-40 44c-6 6 -76 67 -76 67l55 52z" />
    <glyph glyph-name="Ecircumflexhookabove" unicode="&#x1ec2;" horiz-adv-x="616" 
d="M46 635l5 75s64 -5 100 -5h268c20 0 114 10 114 10l19 -18l7 -156l-72 -5c-2 16 -5 44 -9 59c-1 4 -5 16 -10 24c-20 2 -49 4 -79 4h-110c-1 -18 -4 -65 -4 -81v-143c10 -1 21 -1 26 -1h56c20 0 44 9 44 9l9 64l62 -5s-1 -63 -1 -83c0 -50 3 -127 3 -127l-64 -6l-9 60
s-44 6 -64 6h-31c-3 0 -24 0 -31 -1v-122c0 -38 2 -86 3 -106h125c29 0 57 4 77 8c10 18 16 33 19 43c4 15 10 41 12 57l70 -5l-15 -176l-19 -18s-94 4 -114 4h-282c-48 -1 -101 -5 -101 -5l-5 70l66 12c3 10 9 66 9 86v349c0 50 -4 90 -9 111zM307 928l151 -141l-49 -39
l-63 49l-39 28l-39 -28l-63 -49l-49 39zM470 981c39 0 71 -20 71 -57c0 -44 -54 -49 -54 -69c0 -8 5 -18 5 -18c-6 -4 -22 -5 -30 -5c-20 0 -34 11 -34 28v4c0 31 41 33 41 58c0 9 -8 14 -18 14c-15 0 -36 -9 -36 -9l-15 42c18 6 29 12 70 12z" />
    <glyph glyph-name="Ecircumflextilde" unicode="&#x1ec4;" horiz-adv-x="616" 
d="M46 635l5 75s64 -5 100 -5h268c20 0 114 10 114 10l19 -18l7 -156l-72 -5c-2 16 -5 44 -9 59c-1 4 -5 16 -10 24c-20 2 -49 4 -79 4h-110c-1 -18 -4 -65 -4 -81v-143c10 -1 21 -1 26 -1h56c20 0 44 9 44 9l9 64l62 -5s-1 -63 -1 -83c0 -50 3 -127 3 -127l-64 -6l-9 60
s-44 6 -64 6h-31c-3 0 -24 0 -31 -1v-122c0 -38 2 -86 3 -106h125c29 0 57 4 77 8c10 18 16 33 19 43c4 15 10 41 12 57l70 -5l-15 -176l-19 -18s-94 4 -114 4h-282c-48 -1 -101 -5 -101 -5l-5 70l66 12c3 10 9 66 9 86v349c0 50 -4 90 -9 111zM305 876l163 -87l-29 -52
l-63 30c-8 3 -45 14 -71 21c-26 -7 -63 -18 -71 -21l-63 -30l-29 52zM411 982l31 -26s-41 -67 -76 -67c-36 0 -82 25 -119 25c-24 0 -55 -24 -55 -24l-33 27s41 65 77 65s83 -24 119 -24c24 0 56 24 56 24z" />
    <glyph glyph-name="Edieresis" unicode="&#xcb;" horiz-adv-x="616" 
d="M46 635l5 75s64 -5 100 -5h268c20 0 114 10 114 10l19 -18l7 -156l-72 -5c-2 16 -5 44 -9 59c-1 4 -5 16 -10 24c-20 2 -49 4 -79 4h-110c-1 -18 -4 -65 -4 -81v-143c10 -1 21 -1 26 -1h56c20 0 44 9 44 9l9 64l62 -5s-1 -63 -1 -83c0 -50 3 -127 3 -127l-64 -6l-9 60
s-44 6 -64 6h-31c-3 0 -24 0 -31 -1v-122c0 -38 2 -86 3 -106h125c29 0 57 4 77 8c10 18 16 33 19 43c4 15 10 41 12 57l70 -5l-15 -176l-19 -18s-94 4 -114 4h-282c-48 -1 -101 -5 -101 -5l-5 70l66 12c3 10 9 66 9 86v349c0 50 -4 90 -9 111zM187 896c42 0 67 -26 67 -70
c0 -41 -23 -69 -67 -69s-68 28 -68 69s24 70 68 70zM424 896c42 0 67 -26 67 -70c0 -41 -23 -69 -67 -69s-67 28 -67 69s23 70 67 70z" />
    <glyph glyph-name="Edotaccent" unicode="&#x116;" horiz-adv-x="616" 
d="M46 635l5 75s64 -5 100 -5h268c20 0 114 10 114 10l19 -18l7 -156l-72 -5c-2 16 -5 44 -9 59c-1 4 -5 16 -10 24c-20 2 -49 4 -79 4h-110c-1 -18 -4 -65 -4 -81v-143c10 -1 21 -1 26 -1h56c20 0 44 9 44 9l9 64l62 -5s-1 -63 -1 -83c0 -50 3 -127 3 -127l-64 -6l-9 60
s-44 6 -64 6h-31c-3 0 -24 0 -31 -1v-122c0 -38 2 -86 3 -106h125c29 0 57 4 77 8c10 18 16 33 19 43c4 15 10 41 12 57l70 -5l-15 -176l-19 -18s-94 4 -114 4h-282c-48 -1 -101 -5 -101 -5l-5 70l66 12c3 10 9 66 9 86v349c0 50 -4 90 -9 111zM308 905c49 0 79 -30 79 -80
c0 -47 -28 -79 -79 -79s-79 32 -79 79s28 80 79 80z" />
    <glyph glyph-name="Edotbelow" unicode="&#x1eb8;" horiz-adv-x="616" 
d="M46 635l5 75s64 -5 100 -5h268c20 0 114 10 114 10l19 -18l7 -156l-72 -5c-2 16 -5 44 -9 59c-1 4 -5 16 -10 24c-20 2 -49 4 -79 4h-110c-1 -18 -4 -65 -4 -81v-143c10 -1 21 -1 26 -1h56c20 0 44 9 44 9l9 64l62 -5s-1 -63 -1 -83c0 -50 3 -127 3 -127l-64 -6l-9 60
s-44 6 -64 6h-31c-3 0 -24 0 -31 -1v-122c0 -38 2 -86 3 -106h125c29 0 57 4 77 8c10 18 16 33 19 43c4 15 10 41 12 57l70 -5l-15 -176l-19 -18s-94 4 -114 4h-282c-48 -1 -101 -5 -101 -5l-5 70l66 12c3 10 9 66 9 86v349c0 50 -4 90 -9 111zM340 -65c48 0 77 -29 77 -78
c0 -46 -27 -77 -77 -77s-77 31 -77 77s27 78 77 78z" />
    <glyph glyph-name="Egrave" unicode="&#xc8;" horiz-adv-x="616" 
d="M46 635l5 75s64 -5 100 -5h268c20 0 114 10 114 10l19 -18l7 -156l-72 -5c-2 16 -5 44 -9 59c-1 4 -5 16 -10 24c-20 2 -49 4 -79 4h-110c-1 -18 -4 -65 -4 -81v-143c10 -1 21 -1 26 -1h56c20 0 44 9 44 9l9 64l62 -5s-1 -63 -1 -83c0 -50 3 -127 3 -127l-64 -6l-9 60
s-44 6 -64 6h-31c-3 0 -24 0 -31 -1v-122c0 -38 2 -86 3 -106h125c29 0 57 4 77 8c10 18 16 33 19 43c4 15 10 41 12 57l70 -5l-15 -176l-19 -18s-94 4 -114 4h-282c-48 -1 -101 -5 -101 -5l-5 70l66 12c3 10 9 66 9 86v349c0 50 -4 90 -9 111zM421 804l-37 -64l-74 38
c-19 6 -162 46 -162 46l36 84z" />
    <glyph glyph-name="Ehookabove" unicode="&#x1eba;" horiz-adv-x="616" 
d="M46 635l5 75s64 -5 100 -5h268c20 0 114 10 114 10l19 -18l7 -156l-72 -5c-2 16 -5 44 -9 59c-1 4 -5 16 -10 24c-20 2 -49 4 -79 4h-110c-1 -18 -4 -65 -4 -81v-143c10 -1 21 -1 26 -1h56c20 0 44 9 44 9l9 64l62 -5s-1 -63 -1 -83c0 -50 3 -127 3 -127l-64 -6l-9 60
s-44 6 -64 6h-31c-3 0 -24 0 -31 -1v-122c0 -38 2 -86 3 -106h125c29 0 57 4 77 8c10 18 16 33 19 43c4 15 10 41 12 57l70 -5l-15 -176l-19 -18s-94 4 -114 4h-282c-48 -1 -101 -5 -101 -5l-5 70l66 12c3 10 9 66 9 86v349c0 50 -4 90 -9 111zM309 959c47 0 94 -26 94 -74
c0 -52 -65 -58 -65 -82c0 -12 6 -26 6 -26c-5 -5 -17 -7 -28 -7c-27 0 -45 15 -45 38v4c0 34 49 40 49 68c0 16 -11 23 -25 23c-18 0 -42 -11 -42 -11l-16 49c12 6 37 18 72 18z" />
    <glyph glyph-name="Emacron" unicode="&#x112;" horiz-adv-x="616" 
d="M46 635l5 75s64 -5 100 -5h268c20 0 114 10 114 10l19 -18l7 -156l-72 -5c-2 16 -5 44 -9 59c-1 4 -5 16 -10 24c-20 2 -49 4 -79 4h-110c-1 -18 -4 -65 -4 -81v-143c10 -1 21 -1 26 -1h56c20 0 44 9 44 9l9 64l62 -5s-1 -63 -1 -83c0 -50 3 -127 3 -127l-64 -6l-9 60
s-44 6 -64 6h-31c-3 0 -24 0 -31 -1v-122c0 -38 2 -86 3 -106h125c29 0 57 4 77 8c10 18 16 33 19 43c4 15 10 41 12 57l70 -5l-15 -176l-19 -18s-94 4 -114 4h-282c-48 -1 -101 -5 -101 -5l-5 70l66 12c3 10 9 66 9 86v349c0 50 -4 90 -9 111zM462 771h-315v73h322z" />
    <glyph glyph-name="Eng" unicode="&#x14a;" horiz-adv-x="815" 
d="M777 710l5 -81l-66 -6c-2 -12 -9 -61 -9 -81v-542c4 -31 -72 -115 -157 -200l-54 31s72 150 76 169l-325 450v-257c0 -50 8 -106 9 -116l65 -6l-5 -76s-53 5 -166 5c-47 0 -100 -5 -100 -5l-5 70l66 12c2 11 9 66 9 86v349c0 50 -7 100 -9 111l-65 12l5 75s53 -5 100 -5
h102l19 -20s73 -126 88 -148l220 -307v282c0 37 -7 95 -9 111l-65 12l5 75l100 -5c81 0 166 5 166 5z" />
    <glyph glyph-name="Eogonek" unicode="&#x118;" horiz-adv-x="616" 
d="M46 635l5 75s64 -5 100 -5h268c20 0 114 10 114 10l19 -18l7 -156l-72 -5c-2 16 -5 44 -9 59c-1 4 -5 16 -10 24c-20 2 -49 4 -79 4h-110c-1 -18 -4 -65 -4 -81v-143c10 -1 21 -1 26 -1h56c20 0 44 9 44 9l9 64l62 -5s-1 -63 -1 -83c0 -50 3 -127 3 -127l-64 -6l-9 60
s-44 6 -64 6h-31c-3 0 -24 0 -31 -1v-122c0 -38 2 -86 3 -106h125c29 0 57 4 77 8c10 18 16 33 19 43c4 15 10 41 12 57l70 -5l-15 -176l-19 -18s-12 1 -24 1c-29 0 -101 -17 -101 -82c0 -26 15 -48 45 -48c10 0 21 2 34 7l18 -48c-18 -9 -54 -23 -95 -23
c-64 0 -109 29 -109 89c0 54 38 78 70 108h-234c-48 -1 -101 -5 -101 -5l-5 70l66 12c3 10 9 66 9 86v349c0 50 -4 90 -9 111z" />
    <glyph glyph-name="Eth" unicode="&#xd0;" horiz-adv-x="684" 
d="M37 635l5 75s53 -5 100 -5c48 0 160 10 209 10c232 0 352 -148 352 -363c0 -211 -120 -358 -352 -358c-63 0 -150 6 -210 6c-47 0 -100 -5 -100 -5l-5 70l66 12s9 66 9 86v159h-69v73h69v117c0 50 -9 111 -9 111zM266 322v-129c0 -44 3 -101 4 -113c11 -1 38 -3 65 -3
c150 0 201 122 201 277c0 152 -52 278 -199 278c-20 0 -44 -4 -67 -8c-1 -17 -4 -66 -4 -82v-147h98l-5 -73h-93z" />
    <glyph glyph-name="F" unicode="F" horiz-adv-x="569" 
d="M533 715l19 -18l7 -156l-72 -5c-2 16 -5 44 -9 59c-1 4 -5 13 -9 23c-20 2 -50 5 -80 5h-110c-1 -18 -4 -65 -4 -81v-154c11 -1 18 -1 24 -1h58c20 0 44 9 44 9l9 64l62 -5s-1 -63 -1 -83c0 -50 3 -127 3 -127l-64 -6l-9 60s-44 6 -64 6h-37c-6 0 -17 0 -25 -1v-114
c0 -50 5 -96 9 -113l95 -6l-5 -76s-111 5 -224 5c-47 0 -100 -5 -100 -5l-5 70l66 12c3 10 9 66 9 86v349c0 50 -5 97 -9 111l-65 12l5 75s53 -5 100 -5h268c20 0 114 10 114 10z" />
    <glyph glyph-name="G" unicode="G" horiz-adv-x="699" 
d="M394 720c91 0 160 -18 229 -34l-13 -165l-79 4l-3 47c0 6 -7 28 -12 41c-44 9 -80 14 -122 14c-134 0 -187 -121 -187 -274s52 -275 186 -275c34 0 65 3 98 8c4 18 7 34 7 42v68c0 20 -10 61 -10 61l-106 8l5 98h111c33 0 115 3 115 3l28 -25s-9 -95 -9 -145v-177
c-69 -16 -148 -34 -238 -34c-243 0 -367 149 -367 367s124 368 367 368z" />
    <glyph glyph-name="Gbreve" unicode="&#x11e;" horiz-adv-x="699" 
d="M394 720c91 0 160 -18 229 -34l-13 -165l-79 4l-3 47c0 6 -7 28 -12 41c-44 9 -80 14 -122 14c-134 0 -187 -121 -187 -274s52 -275 186 -275c34 0 65 3 98 8c4 18 7 34 7 42v68c0 20 -10 61 -10 61l-106 8l5 98h111c33 0 115 3 115 3l28 -25s-9 -95 -9 -145v-177
c-69 -16 -148 -34 -238 -34c-243 0 -367 149 -367 367s124 368 367 368zM481 898h66c0 -100 -61 -155 -154 -155s-154 55 -154 155h66c0 -50 38 -79 88 -79s88 29 88 79z" />
    <glyph glyph-name="Gcommaaccent" unicode="&#x122;" horiz-adv-x="699" 
d="M394 720c91 0 160 -18 229 -34l-13 -165l-79 4l-3 47c0 6 -7 28 -12 41c-44 9 -80 14 -122 14c-134 0 -187 -121 -187 -274s52 -275 186 -275c34 0 65 3 98 8c4 18 7 34 7 42v68c0 20 -10 61 -10 61l-106 8l5 98h111c33 0 115 3 115 3l28 -25s-9 -95 -9 -145v-177
c-69 -16 -148 -34 -238 -34c-243 0 -367 149 -367 367s124 368 367 368zM313 -126c0 46 33 68 64 68c42 0 66 -28 66 -76c0 -57 -61 -140 -61 -140l-46 12s18 55 18 82c-12 4 -41 19 -41 54z" />
    <glyph glyph-name="Gdotaccent" unicode="&#x120;" horiz-adv-x="699" 
d="M394 720c91 0 160 -18 229 -34l-13 -165l-79 4l-3 47c0 6 -7 28 -12 41c-44 9 -80 14 -122 14c-134 0 -187 -121 -187 -274s52 -275 186 -275c34 0 65 3 98 8c4 18 7 34 7 42v68c0 20 -10 61 -10 61l-106 8l5 98h111c33 0 115 3 115 3l28 -25s-9 -95 -9 -145v-177
c-69 -16 -148 -34 -238 -34c-243 0 -367 149 -367 367s124 368 367 368zM393 905c49 0 79 -30 79 -80c0 -47 -28 -79 -79 -79s-79 32 -79 79s28 80 79 80z" />
    <glyph glyph-name="H" unicode="H" horiz-adv-x="827" 
d="M777 710l5 -81l-66 -6c-3 -15 -9 -61 -9 -81v-349c0 -50 7 -102 9 -116l65 -6l-5 -76s-81 5 -194 5c-47 0 -100 -5 -100 -5l-5 70l66 12c1 10 9 66 9 86v139h-277v-109c0 -50 7 -102 9 -116l65 -6l-5 -76s-81 5 -194 5c-47 0 -100 -5 -100 -5l-5 70l66 12c1 10 9 66 9 86
v349c0 50 -7 95 -9 111l-65 12l5 75s53 -5 100 -5c113 0 194 5 194 5l5 -81l-66 -6c-3 -15 -9 -61 -9 -81v-153l277 4v119c0 50 -7 95 -9 111l-65 12l5 75s53 -5 100 -5c113 0 194 5 194 5z" />
    <glyph glyph-name="Hbar" unicode="&#x126;" horiz-adv-x="827" 
d="M777 710l5 -81l-66 -6c-3 -13 -8 -50 -9 -72h90v-64h-90v-294c0 -50 7 -102 9 -116l65 -6l-5 -76s-81 5 -194 5c-47 0 -100 -5 -100 -5l-5 70l66 12c1 10 9 66 9 86v139h-277v-109c0 -50 7 -102 9 -116l65 -6l-5 -76s-81 5 -194 5c-47 0 -100 -5 -100 -5l-5 70l66 12
c1 10 9 66 9 86v324h-90v64h89c-2 33 -7 60 -8 72l-65 12l5 75s53 -5 100 -5c113 0 194 5 194 5l5 -81l-66 -6c-3 -13 -8 -50 -9 -72h276c-2 33 -7 60 -8 72l-65 12l5 75s53 -5 100 -5c113 0 194 5 194 5zM275 389l277 4v94h-277v-98z" />
    <glyph glyph-name="I" unicode="I" horiz-adv-x="405" 
d="M350 710l5 -81l-66 -6c-3 -15 -9 -61 -9 -81v-349c0 -50 7 -102 9 -116l65 -6l-5 -76s-81 5 -194 5c-47 0 -100 -5 -100 -5l-5 70l66 12c1 10 9 66 9 86v349c0 50 -7 95 -9 111l-65 12l5 75s53 -5 100 -5c113 0 194 5 194 5z" />
    <glyph glyph-name="IJ" unicode="&#x132;" horiz-adv-x="726" 
d="M688 710l5 -81l-66 -6c-2 -9 -9 -61 -9 -81v-542c0 -33 -81 -111 -177 -200l-54 31s76 160 76 180v501c0 50 -6 96 -9 111l-82 9l-83 -9c-4 -14 -9 -61 -9 -81v-349c0 -50 8 -107 9 -116l65 -6l-5 -76s-81 5 -194 5c-47 0 -100 -5 -100 -5l-5 70l66 12c1 12 9 66 9 86
v349c0 50 -5 92 -9 111l-65 12l5 75s53 -5 100 -5h338c113 0 194 5 194 5z" />
    <glyph glyph-name="Iacute" unicode="&#xcd;" horiz-adv-x="405" 
d="M350 710l5 -81l-66 -6c-3 -15 -9 -61 -9 -81v-349c0 -50 7 -102 9 -116l65 -6l-5 -76s-81 5 -194 5c-47 0 -100 -5 -100 -5l-5 70l66 12c1 10 9 66 9 86v349c0 50 -7 95 -9 111l-65 12l5 75s53 -5 100 -5c113 0 194 5 194 5zM323 898l36 -84s-143 -40 -162 -46l-74 -38
l-37 64z" />
    <glyph glyph-name="Icaron" unicode="&#x1cf;" horiz-adv-x="405" 
d="M350 710l5 -81l-66 -6c-3 -15 -9 -61 -9 -81v-349c0 -50 7 -102 9 -116l65 -6l-5 -76s-81 5 -194 5c-47 0 -100 -5 -100 -5l-5 70l66 12c1 10 9 66 9 86v349c0 50 -7 95 -9 111l-65 12l5 75s53 -5 100 -5c113 0 194 5 194 5zM354 929l47 -58l-198 -133l-198 133l47 58
l67 -49l84 -41l84 41z" />
    <glyph glyph-name="Icircumflex" unicode="&#xce;" horiz-adv-x="405" 
d="M350 710l5 -81l-66 -6c-3 -15 -9 -61 -9 -81v-349c0 -50 7 -102 9 -116l65 -6l-5 -76s-81 5 -194 5c-47 0 -100 -5 -100 -5l-5 70l66 12c1 10 9 66 9 86v349c0 50 -7 95 -9 111l-65 12l5 75s53 -5 100 -5c113 0 194 5 194 5zM203 938l198 -133l-47 -58l-67 49l-84 41
l-84 -41l-67 -49l-47 58z" />
    <glyph glyph-name="Idotaccent" unicode="&#x130;" horiz-adv-x="405" 
d="M350 710l5 -81l-66 -6c-3 -15 -9 -61 -9 -81v-349c0 -50 7 -102 9 -116l65 -6l-5 -76s-81 5 -194 5c-47 0 -100 -5 -100 -5l-5 70l66 12c1 10 9 66 9 86v349c0 50 -7 95 -9 111l-65 12l5 75s53 -5 100 -5c113 0 194 5 194 5zM203 905c49 0 79 -30 79 -80
c0 -47 -28 -79 -79 -79s-79 32 -79 79s28 80 79 80z" />
    <glyph glyph-name="Idotbelow" unicode="&#x1eca;" horiz-adv-x="405" 
d="M350 710l5 -81l-66 -6c-3 -15 -9 -61 -9 -81v-349c0 -50 7 -102 9 -116l65 -6l-5 -76s-81 5 -194 5c-47 0 -100 -5 -100 -5l-5 70l66 12c1 10 9 66 9 86v349c0 50 -7 95 -9 111l-65 12l5 75s53 -5 100 -5c113 0 194 5 194 5zM203 -65c48 0 77 -29 77 -78
c0 -46 -27 -77 -77 -77s-77 31 -77 77s27 78 77 78z" />
    <glyph glyph-name="Igrave" unicode="&#xcc;" horiz-adv-x="405" 
d="M350 710l5 -81l-66 -6c-3 -15 -9 -61 -9 -81v-349c0 -50 7 -102 9 -116l65 -6l-5 -76s-81 5 -194 5c-47 0 -100 -5 -100 -5l-5 70l66 12c1 10 9 66 9 86v349c0 50 -7 95 -9 111l-65 12l5 75s53 -5 100 -5c113 0 194 5 194 5zM319 804l-37 -64l-74 38
c-19 6 -162 46 -162 46l36 84z" />
    <glyph glyph-name="Ihookabove" unicode="&#x1ec8;" horiz-adv-x="405" 
d="M350 710l5 -81l-66 -6c-3 -15 -9 -61 -9 -81v-349c0 -50 7 -102 9 -116l65 -6l-5 -76s-81 5 -194 5c-47 0 -100 -5 -100 -5l-5 70l66 12c1 10 9 66 9 86v349c0 50 -7 95 -9 111l-65 12l5 75s53 -5 100 -5c113 0 194 5 194 5zM198 939c47 0 94 -26 94 -74
c0 -52 -65 -58 -65 -82c0 -12 6 -26 6 -26c-5 -5 -17 -7 -28 -7c-27 0 -45 15 -45 38v4c0 34 49 40 49 68c0 16 -11 23 -25 23c-18 0 -42 -11 -42 -11l-16 49c12 6 37 18 72 18z" />
    <glyph glyph-name="Imacron" unicode="&#x12a;" horiz-adv-x="405" 
d="M342 710l5 -81l-66 -6c-3 -15 -9 -61 -9 -81v-349c0 -50 7 -102 9 -116l65 -6l-5 -76s-81 5 -194 5c-47 0 -100 -5 -100 -5l-5 70l66 12c1 10 9 66 9 86v349c0 50 -7 95 -9 111l-65 12l5 75s53 -5 100 -5c113 0 194 5 194 5zM339 771h-273v73h278z" />
    <glyph glyph-name="Iogonek" unicode="&#x12e;" horiz-adv-x="405" 
d="M125 163v349c0 50 -7 95 -9 111l-65 12l5 75s53 -5 100 -5c113 0 194 5 194 5l5 -81l-66 -6c-3 -15 -9 -61 -9 -81v-349c0 -50 7 -102 9 -116l65 -6l-5 -76s-60 4 -147 5c-49 -8 -75 -50 -75 -85c0 -26 15 -48 45 -48c10 0 21 2 34 7l18 -48c-18 -9 -54 -23 -95 -23
c-64 0 -109 29 -109 89c0 91 105 87 105 271z" />
    <glyph glyph-name="J" unicode="J" horiz-adv-x="371" 
d="M338 629l-66 -6c-2 -9 -9 -61 -9 -81v-532c0 -33 -81 -121 -177 -210l-54 31s76 160 76 180v501c0 50 -6 96 -9 111l-65 12l5 75s53 -5 100 -5c113 0 194 5 194 5z" />
    <glyph glyph-name="K" unicode="K" horiz-adv-x="751" 
d="M756 71l-5 -76s-90 5 -202 5c-48 0 -95 -5 -95 -5l-5 70l39 8c-18 29 -45 72 -59 91c-21 24 -150 189 -150 189l162 224l28 52l-31 6l5 75s49 -5 97 -5c111 0 166 5 166 5l5 -81l-58 -6c-25 -24 -55 -54 -76 -77l-129 -176c68 -80 138 -161 205 -241
c10 -12 35 -34 55 -52zM342 710l5 -81l-63 -6c-3 -15 -9 -61 -9 -81v-349c0 -50 7 -102 9 -116l61 -6l-5 -76s-79 5 -191 5c-48 0 -96 -5 -96 -5l-5 70l63 12c1 10 9 66 9 86v349c0 50 -7 95 -9 111l-62 12l5 75s48 -5 96 -5c112 0 192 5 192 5z" />
    <glyph glyph-name="Kcommaaccent" unicode="&#x136;" horiz-adv-x="751" 
d="M756 71l-5 -76s-90 5 -202 5c-48 0 -95 -5 -95 -5l-5 70l39 8c-18 29 -45 72 -59 91c-21 24 -150 189 -150 189l162 224l28 52l-31 6l5 75s49 -5 97 -5c111 0 166 5 166 5l5 -81l-58 -6c-25 -24 -55 -54 -76 -77l-129 -176c68 -80 138 -161 205 -241
c10 -12 35 -34 55 -52zM342 710l5 -81l-63 -6c-3 -15 -9 -61 -9 -81v-349c0 -50 7 -102 9 -116l61 -6l-5 -76s-79 5 -191 5c-48 0 -96 -5 -96 -5l-5 70l63 12c1 10 9 66 9 86v349c0 50 -7 95 -9 111l-62 12l5 75s48 -5 96 -5c112 0 192 5 192 5zM313 -126c0 46 33 68 64 68
c42 0 66 -28 66 -76c0 -57 -61 -140 -61 -140l-46 12s18 55 18 82c-12 4 -41 19 -41 54z" />
    <glyph glyph-name="L" unicode="L" horiz-adv-x="565" 
d="M345 710l5 -81l-66 -6c-3 -15 -9 -61 -9 -81v-349c0 -42 5 -85 8 -106h94c29 0 58 4 77 8c9 19 18 37 19 43c4 15 10 41 12 57l70 -5l-15 -176l-19 -18s-94 4 -114 4h-257c-47 0 -100 -5 -100 -5l-5 70l66 12c1 10 9 66 9 86v349c0 50 -7 95 -9 111l-65 12l5 75
s53 -5 100 -5c113 0 194 5 194 5z" />
    <glyph glyph-name="Lacute" unicode="&#x139;" horiz-adv-x="565" 
d="M345 710l5 -81l-66 -6c-3 -15 -9 -61 -9 -81v-349c0 -42 5 -85 8 -106h94c29 0 58 4 77 8c9 19 18 37 19 43c4 15 10 41 12 57l70 -5l-15 -176l-19 -18s-94 4 -114 4h-257c-47 0 -100 -5 -100 -5l-5 70l66 12c1 10 9 66 9 86v349c0 50 -7 95 -9 111l-65 12l5 75
s53 -5 100 -5c113 0 194 5 194 5zM293 898l36 -84s-143 -40 -162 -46l-74 -38l-37 64z" />
    <glyph glyph-name="Lcaron" unicode="&#x13d;" horiz-adv-x="565" 
d="M373 577h119l-13 -244l-88 5l1 93c-1 19 -19 146 -19 146zM345 710l5 -81l-66 -6c-3 -15 -9 -61 -9 -81v-349c0 -42 5 -85 8 -106h94c29 0 58 4 77 8c9 19 18 37 19 43c4 15 10 41 12 57l70 -5l-15 -176l-19 -18s-94 4 -114 4h-257c-47 0 -100 -5 -100 -5l-5 70l66 12
c1 10 9 66 9 86v349c0 50 -7 95 -9 111l-65 12l5 75s53 -5 100 -5c113 0 194 5 194 5z" />
    <glyph glyph-name="Lcommaaccent" unicode="&#x13b;" horiz-adv-x="565" 
d="M345 710l5 -81l-66 -6c-3 -15 -9 -61 -9 -81v-349c0 -42 5 -85 8 -106h94c29 0 58 4 77 8c9 19 18 37 19 43c4 15 10 41 12 57l70 -5l-15 -176l-19 -18s-94 4 -114 4h-257c-47 0 -100 -5 -100 -5l-5 70l66 12c1 10 9 66 9 86v349c0 50 -7 95 -9 111l-65 12l5 75
s53 -5 100 -5c113 0 194 5 194 5zM239 -126c0 46 33 68 64 68c42 0 66 -28 66 -76c0 -57 -61 -140 -61 -140l-46 12s18 55 18 82c-12 4 -41 19 -41 54z" />
    <glyph glyph-name="Ldot" unicode="&#x13f;" horiz-adv-x="565" 
d="M432 470c49 0 79 -32 79 -85c0 -50 -29 -84 -79 -84s-79 34 -79 84s29 85 79 85zM345 710l5 -81l-66 -6c-3 -15 -9 -61 -9 -81v-349c0 -42 5 -85 8 -106h94c29 0 58 4 77 8c9 19 18 37 19 43c4 15 10 41 12 57l70 -5l-15 -176l-19 -18s-94 4 -114 4h-257
c-47 0 -100 -5 -100 -5l-5 70l66 12c1 10 9 66 9 86v349c0 50 -7 95 -9 111l-65 12l5 75s53 -5 100 -5c113 0 194 5 194 5z" />
    <glyph glyph-name="Lslash" unicode="&#x141;" horiz-adv-x="565" 
d="M345 710l5 -81l-66 -6c-3 -15 -9 -61 -9 -81v-108l163 60l22 -60l-185 -68v-173c0 -42 5 -85 8 -106h94c29 0 58 4 77 8c9 19 18 37 19 43c4 15 10 41 12 57l70 -5l-15 -176l-19 -18s-94 4 -114 4h-257c-47 0 -100 -5 -100 -5l-5 70l66 12c1 10 9 66 9 86v147l-72 -26
l-22 60l94 34v134c0 50 -7 95 -9 111l-65 12l5 75s53 -5 100 -5c113 0 194 5 194 5z" />
    <glyph glyph-name="M" unicode="M" horiz-adv-x="980" 
d="M665 705h97c52 0 132 5 132 5l4 -72l-64 -11c-2 -18 -3 -45 -3 -58l32 -437c2 -13 9 -40 13 -58l67 -6l-5 -73s-72 5 -180 5c-42 0 -103 -5 -103 -5l-5 67l67 12c2 23 4 66 4 88l-16 356l-184 -518h-92l-179 518l-19 -356c0 -22 2 -65 4 -88l68 -6l-6 -73s-46 5 -154 5
c-42 0 -101 -5 -101 -5l-5 67l68 12c5 18 11 45 14 58l28 437c0 12 -3 39 -6 57l-67 12l5 72s63 -5 106 -5h141l20 -20s31 -114 43 -151l103 -313l112 328c8 23 41 136 41 136z" />
    <glyph glyph-name="N" unicode="N" horiz-adv-x="802" 
d="M777 710l5 -81l-66 -6c-2 -12 -9 -61 -9 -81v-542h-135l-325 450v-257c0 -50 8 -106 9 -116l65 -6l-5 -76s-53 5 -166 5c-47 0 -100 -5 -100 -5l-5 70l66 12c2 11 9 66 9 86v349c0 50 -7 100 -9 111l-65 12l5 75s53 -5 100 -5h102l19 -20s73 -126 88 -148l220 -307v282
c0 37 -7 95 -9 111l-65 12l5 75l100 -5c81 0 166 5 166 5z" />
    <glyph glyph-name="Nacute" unicode="&#x143;" horiz-adv-x="802" 
d="M777 710l5 -81l-66 -6c-2 -12 -9 -61 -9 -81v-542h-135l-325 450v-257c0 -50 8 -106 9 -116l65 -6l-5 -76s-53 5 -166 5c-47 0 -100 -5 -100 -5l-5 70l66 12c2 11 9 66 9 86v349c0 50 -7 100 -9 111l-65 12l5 75s53 -5 100 -5h102l19 -20s73 -126 88 -148l220 -307v282
c0 37 -7 95 -9 111l-65 12l5 75l100 -5c81 0 166 5 166 5zM521 898l36 -84s-143 -40 -162 -46l-74 -38l-37 64z" />
    <glyph glyph-name="Ncaron" unicode="&#x147;" horiz-adv-x="802" 
d="M777 710l5 -81l-66 -6c-2 -12 -9 -61 -9 -81v-542h-135l-325 450v-257c0 -50 8 -106 9 -116l65 -6l-5 -76s-53 5 -166 5c-47 0 -100 -5 -100 -5l-5 70l66 12c2 11 9 66 9 86v349c0 50 -7 100 -9 111l-65 12l5 75s53 -5 100 -5h102l19 -20s73 -126 88 -148l220 -307v282
c0 37 -7 95 -9 111l-65 12l5 75l100 -5c81 0 166 5 166 5zM552 899l47 -58l-198 -133l-198 133l47 58l67 -49l84 -41l84 41z" />
    <glyph glyph-name="Ncommaaccent" unicode="&#x145;" horiz-adv-x="802" 
d="M777 710l5 -81l-66 -6c-2 -12 -9 -61 -9 -81v-542h-135l-325 450v-257c0 -50 8 -106 9 -116l65 -6l-5 -76s-53 5 -166 5c-47 0 -100 -5 -100 -5l-5 70l66 12c2 11 9 66 9 86v349c0 50 -7 100 -9 111l-65 12l5 75s53 -5 100 -5h102l19 -20s73 -126 88 -148l220 -307v282
c0 37 -7 95 -9 111l-65 12l5 75l100 -5c81 0 166 5 166 5zM333 -126c0 46 33 68 64 68c42 0 66 -28 66 -76c0 -57 -61 -140 -61 -140l-46 12s18 55 18 82c-12 4 -41 19 -41 54z" />
    <glyph glyph-name="Ntilde" unicode="&#xd1;" horiz-adv-x="802" 
d="M777 710l5 -81l-66 -6c-2 -12 -9 -61 -9 -81v-542h-135l-325 450v-257c0 -50 8 -106 9 -116l65 -6l-5 -76s-53 5 -166 5c-47 0 -100 -5 -100 -5l-5 70l66 12c2 11 9 66 9 86v349c0 50 -7 100 -9 111l-65 12l5 75s53 -5 100 -5h102l19 -20s73 -126 88 -148l220 -307v282
c0 37 -7 95 -9 111l-65 12l5 75l100 -5c81 0 166 5 166 5zM554 883l49 -28s-45 -101 -88 -101s-142 38 -185 38c-24 0 -49 -42 -49 -42l-47 28s46 105 89 105c42 0 143 -38 185 -38c24 0 46 38 46 38z" />
    <glyph glyph-name="O" unicode="O" horiz-adv-x="768" 
d="M741 352c0 -225 -140 -371 -357 -371s-357 146 -357 371c0 226 140 372 357 372s357 -146 357 -372zM207 352c0 -186 57 -274 177 -274s177 88 177 274c0 187 -57 275 -177 275s-177 -88 -177 -275z" />
    <glyph glyph-name="OE" unicode="&#x152;" horiz-adv-x="1005" 
d="M1003 190l-15 -176l-19 -18s-94 4 -114 4h-282l-72 -3c-36 -11 -75 -16 -117 -16c-217 0 -357 146 -357 371c0 226 140 372 357 372c42 0 81 -5 116 -16c22 -1 52 -3 73 -3h268c20 0 114 10 114 10l19 -18l7 -156l-72 -5c-2 16 -5 44 -9 59c-1 4 -5 16 -10 24
c-20 2 -49 4 -79 4h-110c-1 -18 -4 -65 -4 -81v-143c10 -1 21 -1 26 -1h56c20 0 44 9 44 9l9 64l62 -5s-1 -60 -1 -80c0 -50 3 -127 3 -127l-64 -6l-9 60s-44 6 -64 6h-31c-3 0 -24 0 -31 -1v-125c0 -38 2 -86 3 -106h125c29 0 57 4 77 8c10 18 16 33 19 43
c4 15 10 41 12 57zM552 196v340c-44 57 -69 91 -168 91c-120 0 -177 -88 -177 -275c0 -186 57 -274 177 -274c99 0 135 46 168 118z" />
    <glyph glyph-name="Oacute" unicode="&#xd3;" horiz-adv-x="768" 
d="M741 352c0 -225 -140 -371 -357 -371s-357 146 -357 371c0 226 140 372 357 372s357 -146 357 -372zM207 352c0 -186 57 -274 177 -274s177 88 177 274c0 187 -57 275 -177 275s-177 -88 -177 -275zM503 908l36 -84s-143 -40 -162 -46l-74 -38l-37 64z" />
    <glyph glyph-name="Ocaron" unicode="&#x1d1;" horiz-adv-x="768" 
d="M741 352c0 -225 -140 -371 -357 -371s-357 146 -357 371c0 226 140 372 357 372s357 -146 357 -372zM207 352c0 -186 57 -274 177 -274s177 88 177 274c0 187 -57 275 -177 275s-177 -88 -177 -275zM534 929l47 -58l-198 -133l-198 133l47 58l67 -49l84 -41l84 41z" />
    <glyph glyph-name="Ocircumflex" unicode="&#xd4;" horiz-adv-x="768" 
d="M741 352c0 -225 -140 -371 -357 -371s-357 146 -357 371c0 226 140 372 357 372s357 -146 357 -372zM207 352c0 -186 57 -274 177 -274s177 88 177 274c0 187 -57 275 -177 275s-177 -88 -177 -275zM383 938l198 -133l-47 -58l-67 49l-84 41l-84 -41l-67 -49l-47 58z" />
    <glyph glyph-name="Ocircumflexacute" unicode="&#x1ed0;" horiz-adv-x="768" 
d="M741 352c0 -225 -140 -371 -357 -371s-357 146 -357 371c0 226 140 372 357 372s357 -146 357 -372zM207 352c0 -186 57 -274 177 -274s177 88 177 274c0 187 -57 275 -177 275s-177 -88 -177 -275zM387 928l151 -141l-49 -39l-63 49l-39 28l-39 -28l-63 -49l-49 39z
M582 1008l55 -52s-70 -61 -76 -67l-40 -44l-50 40z" />
    <glyph glyph-name="Ocircumflexdotbelow" unicode="&#x1ed8;" horiz-adv-x="768" 
d="M741 352c0 -225 -140 -371 -357 -371s-357 146 -357 371c0 226 140 372 357 372s357 -146 357 -372zM207 352c0 -186 57 -274 177 -274s177 88 177 274c0 187 -57 275 -177 275s-177 -88 -177 -275zM383 938l198 -133l-47 -58l-67 49l-84 41l-84 -41l-67 -49l-47 58z
M382 -65c48 0 77 -29 77 -78c0 -46 -27 -77 -77 -77s-77 31 -77 77s27 78 77 78z" />
    <glyph glyph-name="Ocircumflexgrave" unicode="&#x1ed2;" horiz-adv-x="768" 
d="M741 352c0 -225 -140 -371 -357 -371s-357 146 -357 371c0 226 140 372 357 372s357 -146 357 -372zM207 352c0 -186 57 -274 177 -274s177 88 177 274c0 187 -57 275 -177 275s-177 -88 -177 -275zM385 928l151 -141l-49 -39l-63 49l-39 28l-39 -28l-63 -49l-49 39z
M581 885l-50 -40l-40 44c-6 6 -76 67 -76 67l55 52z" />
    <glyph glyph-name="Ocircumflexhookabove" unicode="&#x1ed4;" horiz-adv-x="768" 
d="M741 352c0 -225 -140 -371 -357 -371s-357 146 -357 371c0 226 140 372 357 372s357 -146 357 -372zM207 352c0 -186 57 -274 177 -274s177 88 177 274c0 187 -57 275 -177 275s-177 -88 -177 -275zM385 928l151 -141l-49 -39l-63 49l-39 28l-39 -28l-63 -49l-49 39z
M548 981c39 0 71 -20 71 -57c0 -44 -54 -49 -54 -69c0 -8 5 -18 5 -18c-6 -4 -22 -5 -30 -5c-20 0 -34 11 -34 28v4c0 31 41 33 41 58c0 9 -8 14 -18 14c-15 0 -36 -9 -36 -9l-15 42c18 6 29 12 70 12z" />
    <glyph glyph-name="Ocircumflextilde" unicode="&#x1ed6;" horiz-adv-x="768" 
d="M741 352c0 -225 -140 -371 -357 -371s-357 146 -357 371c0 226 140 372 357 372s357 -146 357 -372zM207 352c0 -186 57 -274 177 -274s177 88 177 274c0 187 -57 275 -177 275s-177 -88 -177 -275zM383 876l163 -87l-29 -52l-63 30c-8 3 -45 14 -71 21
c-26 -7 -63 -18 -71 -21l-63 -30l-29 52zM489 982l31 -26s-41 -67 -76 -67c-36 0 -82 25 -119 25c-24 0 -55 -24 -55 -24l-33 27s41 65 77 65s83 -24 119 -24c24 0 56 24 56 24z" />
    <glyph glyph-name="Odotbelow" unicode="&#x1ecc;" horiz-adv-x="768" 
d="M741 352c0 -225 -140 -371 -357 -371s-357 146 -357 371c0 226 140 372 357 372s357 -146 357 -372zM207 352c0 -186 57 -274 177 -274s177 88 177 274c0 187 -57 275 -177 275s-177 -88 -177 -275zM382 -65c48 0 77 -29 77 -78c0 -46 -27 -77 -77 -77s-77 31 -77 77
s27 78 77 78z" />
    <glyph glyph-name="Ograve" unicode="&#xd2;" horiz-adv-x="768" 
d="M741 352c0 -225 -140 -371 -357 -371s-357 146 -357 371c0 226 140 372 357 372s357 -146 357 -372zM207 352c0 -186 57 -274 177 -274s177 88 177 274c0 187 -57 275 -177 275s-177 -88 -177 -275zM499 804l-37 -64l-74 38c-19 6 -162 46 -162 46l36 84z" />
    <glyph glyph-name="Ohookabove" unicode="&#x1ece;" horiz-adv-x="768" 
d="M741 352c0 -225 -140 -371 -357 -371s-357 146 -357 371c0 226 140 372 357 372s357 -146 357 -372zM207 352c0 -186 57 -274 177 -274s177 88 177 274c0 187 -57 275 -177 275s-177 -88 -177 -275zM374 939c47 0 94 -26 94 -74c0 -52 -65 -58 -65 -82c0 -12 6 -26 6 -26
c-5 -5 -17 -7 -28 -7c-27 0 -45 15 -45 38v4c0 34 49 40 49 68c0 16 -11 23 -25 23c-18 0 -42 -11 -42 -11l-16 49c12 6 37 18 72 18z" />
    <glyph glyph-name="Ohorn" unicode="&#x1a0;" horiz-adv-x="768" 
d="M664 775l107 28c12 -27 19 -54 19 -78c0 -67 -22 -114 -126 -127c49 -63 77 -147 77 -246c0 -225 -140 -371 -357 -371s-357 146 -357 371c0 226 140 372 357 372c89 0 165 -25 224 -70c56 1 79 19 79 44c0 30 -23 77 -23 77zM207 352c0 -186 57 -274 177 -274
s177 88 177 274c0 187 -57 275 -177 275s-177 -88 -177 -275z" />
    <glyph glyph-name="Ohornacute" unicode="&#x1eda;" horiz-adv-x="768" 
d="M664 775l107 28c12 -27 19 -54 19 -78c0 -67 -22 -114 -126 -127c49 -63 77 -147 77 -246c0 -225 -140 -371 -357 -371s-357 146 -357 371c0 226 140 372 357 372c89 0 165 -25 224 -70c56 1 79 19 79 44c0 30 -23 77 -23 77zM207 352c0 -186 57 -274 177 -274
s177 88 177 274c0 187 -57 275 -177 275s-177 -88 -177 -275zM503 898l36 -84s-143 -40 -162 -46l-74 -38l-37 64z" />
    <glyph glyph-name="Ohorndotbelow" unicode="&#x1ee2;" horiz-adv-x="768" 
d="M664 775l107 28c12 -27 19 -54 19 -78c0 -67 -22 -114 -126 -127c49 -63 77 -147 77 -246c0 -225 -140 -371 -357 -371s-357 146 -357 371c0 226 140 372 357 372c89 0 165 -25 224 -70c56 1 79 19 79 44c0 30 -23 77 -23 77zM207 352c0 -186 57 -274 177 -274
s177 88 177 274c0 187 -57 275 -177 275s-177 -88 -177 -275zM382 -65c48 0 77 -29 77 -78c0 -46 -27 -77 -77 -77s-77 31 -77 77s27 78 77 78z" />
    <glyph glyph-name="Ohorngrave" unicode="&#x1edc;" horiz-adv-x="768" 
d="M664 775l107 28c12 -27 19 -54 19 -78c0 -67 -22 -114 -126 -127c49 -63 77 -147 77 -246c0 -225 -140 -371 -357 -371s-357 146 -357 371c0 226 140 372 357 372c89 0 165 -25 224 -70c56 1 79 19 79 44c0 30 -23 77 -23 77zM207 352c0 -186 57 -274 177 -274
s177 88 177 274c0 187 -57 275 -177 275s-177 -88 -177 -275zM499 804l-37 -64l-74 38c-19 6 -162 46 -162 46l36 84z" />
    <glyph glyph-name="Ohornhookabove" unicode="&#x1ede;" horiz-adv-x="768" 
d="M664 775l107 28c12 -27 19 -54 19 -78c0 -67 -22 -114 -126 -127c49 -63 77 -147 77 -246c0 -225 -140 -371 -357 -371s-357 146 -357 371c0 226 140 372 357 372c89 0 165 -25 224 -70c56 1 79 19 79 44c0 30 -23 77 -23 77zM207 352c0 -186 57 -274 177 -274
s177 88 177 274c0 187 -57 275 -177 275s-177 -88 -177 -275zM392 939c47 0 94 -26 94 -74c0 -52 -65 -58 -65 -82c0 -12 6 -26 6 -26c-5 -5 -17 -7 -28 -7c-27 0 -45 15 -45 38v4c0 34 49 40 49 68c0 16 -11 23 -25 23c-18 0 -42 -11 -42 -11l-16 49c12 6 37 18 72 18z" />
    <glyph glyph-name="Ohorntilde" unicode="&#x1ee0;" horiz-adv-x="768" 
d="M664 775l107 28c12 -27 19 -54 19 -78c0 -67 -22 -114 -126 -127c49 -63 77 -147 77 -246c0 -225 -140 -371 -357 -371s-357 146 -357 371c0 226 140 372 357 372c89 0 165 -25 224 -70c56 1 79 19 79 44c0 30 -23 77 -23 77zM207 352c0 -186 57 -274 177 -274
s177 88 177 274c0 187 -57 275 -177 275s-177 -88 -177 -275zM515 883l49 -28s-45 -101 -88 -101s-142 38 -185 38c-24 0 -49 -42 -49 -42l-47 28s46 105 89 105c42 0 143 -38 185 -38c24 0 46 38 46 38z" />
    <glyph glyph-name="Ohungarumlaut" unicode="&#x150;" horiz-adv-x="768" 
d="M741 352c0 -225 -140 -371 -357 -371s-357 146 -357 371c0 226 140 372 357 372s357 -146 357 -372zM207 352c0 -186 57 -274 177 -274s177 88 177 274c0 187 -57 275 -177 275s-177 -88 -177 -275zM414 918l36 -79s-139 -59 -158 -65l-74 -40l-39 63zM639 913l36 -84
s-143 -51 -162 -57l-74 -38l-36 62z" />
    <glyph glyph-name="Omacron" unicode="&#x14c;" horiz-adv-x="768" 
d="M741 352c0 -225 -140 -371 -357 -371s-357 146 -357 371c0 226 140 372 357 372s357 -146 357 -372zM207 352c0 -186 57 -274 177 -274s177 88 177 274c0 187 -57 275 -177 275s-177 -88 -177 -275zM537 771h-315v73h322z" />
    <glyph glyph-name="Oslash" unicode="&#xd8;" horiz-adv-x="768" 
d="M741 352c0 -225 -140 -371 -357 -371c-53 0 -102 9 -145 25l-75 -143l-57 29l75 143c-98 62 -155 173 -155 317c0 226 140 372 357 372c54 0 103 -9 146 -26l74 140l59 -29l-75 -141c97 -62 153 -173 153 -316zM207 352c0 -87 12 -153 37 -198l235 446
c-26 18 -57 27 -95 27c-120 0 -177 -88 -177 -275zM561 352c0 85 -12 150 -36 195l-235 -444c26 -17 57 -25 94 -25c120 0 177 88 177 274z" />
    <glyph glyph-name="Otilde" unicode="&#xd5;" horiz-adv-x="768" 
d="M741 352c0 -225 -140 -371 -357 -371s-357 146 -357 371c0 226 140 372 357 372s357 -146 357 -372zM207 352c0 -186 57 -274 177 -274s177 88 177 274c0 187 -57 275 -177 275s-177 -88 -177 -275zM515 883l49 -28s-45 -101 -88 -101s-142 38 -185 38
c-24 0 -49 -42 -49 -42l-47 28s46 105 89 105c42 0 143 -38 185 -38c24 0 46 38 46 38z" />
    <glyph glyph-name="P" unicode="P" horiz-adv-x="616" 
d="M365 715c140 0 236 -79 236 -219c0 -142 -129 -225 -271 -225h-55v-78c0 -50 7 -102 9 -116l75 -6l-5 -76s-91 5 -204 5c-47 0 -100 -5 -100 -5l-5 70l66 12c1 10 9 66 9 86v349c0 50 -7 95 -9 111l-65 12l5 75s52 -5 99 -5c54 0 160 10 215 10zM275 542v-189h17
c91 0 148 52 148 144c0 94 -40 136 -133 136c-6 0 -16 -1 -28 -1c-2 -26 -4 -74 -4 -90z" />
    <glyph glyph-name="Q" unicode="Q" horiz-adv-x="774" 
d="M683 -224l-278 205h-21c-217 0 -357 146 -357 371c0 226 140 372 357 372s357 -146 357 -372c0 -162 -73 -283 -195 -338l69 -46c16 -10 158 -68 158 -68zM207 352c0 -186 57 -274 177 -274s177 88 177 274c0 187 -57 275 -177 275s-177 -88 -177 -275z" />
    <glyph glyph-name="R" unicode="R" horiz-adv-x="661" 
d="M360 715c139 0 234 -79 234 -211c0 -85 -50 -152 -122 -190c47 -93 102 -175 107 -183l35 -56l48 -4l-5 -76s-78 5 -191 5c0 0 -36 92 -49 116l-83 161h-15c-11 0 -27 1 -44 3v-87c0 -50 7 -102 9 -116l65 -6l-5 -76s-81 5 -194 5c-47 0 -100 -5 -100 -5l-5 70l66 12
c1 10 9 66 9 86v349c0 49 -7 92 -9 111l-65 12l5 75s53 -5 103 -5c57 0 152 10 206 10zM302 633c-5 0 -12 0 -21 -1c-3 -30 -6 -76 -6 -90v-181h24c95 0 134 49 134 141c0 88 -41 131 -131 131z" />
    <glyph glyph-name="Racute" unicode="&#x154;" horiz-adv-x="661" 
d="M360 715c139 0 234 -79 234 -211c0 -85 -50 -152 -122 -190c47 -93 102 -175 107 -183l35 -56l48 -4l-5 -76s-78 5 -191 5c0 0 -36 92 -49 116l-83 161h-15c-11 0 -27 1 -44 3v-87c0 -50 7 -102 9 -116l65 -6l-5 -76s-81 5 -194 5c-47 0 -100 -5 -100 -5l-5 70l66 12
c1 10 9 66 9 86v349c0 49 -7 92 -9 111l-65 12l5 75s53 -5 103 -5c57 0 152 10 206 10zM302 633c-5 0 -12 0 -21 -1c-3 -30 -6 -76 -6 -90v-181h24c95 0 134 49 134 141c0 88 -41 131 -131 131zM451 898l36 -84s-143 -40 -162 -46l-74 -38l-37 64z" />
    <glyph glyph-name="Rcaron" unicode="&#x158;" horiz-adv-x="661" 
d="M360 715c139 0 234 -79 234 -211c0 -85 -50 -152 -122 -190c47 -93 102 -175 107 -183l35 -56l48 -4l-5 -76s-78 5 -191 5c0 0 -36 92 -49 116l-83 161h-15c-11 0 -27 1 -44 3v-87c0 -50 7 -102 9 -116l65 -6l-5 -76s-81 5 -194 5c-47 0 -100 -5 -100 -5l-5 70l66 12
c1 10 9 66 9 86v349c0 49 -7 92 -9 111l-65 12l5 75s53 -5 103 -5c57 0 152 10 206 10zM302 633c-5 0 -12 0 -21 -1c-3 -30 -6 -76 -6 -90v-181h24c95 0 134 49 134 141c0 88 -41 131 -131 131zM482 929l47 -58l-198 -133l-198 133l47 58l67 -49l84 -41l84 41z" />
    <glyph glyph-name="Rcommaaccent" unicode="&#x156;" horiz-adv-x="661" 
d="M360 715c139 0 234 -79 234 -211c0 -85 -50 -152 -122 -190c47 -93 102 -175 107 -183l35 -56l48 -4l-5 -76s-78 5 -191 5c0 0 -36 92 -49 116l-83 161h-15c-11 0 -27 1 -44 3v-87c0 -50 7 -102 9 -116l65 -6l-5 -76s-81 5 -194 5c-47 0 -100 -5 -100 -5l-5 70l66 12
c1 10 9 66 9 86v349c0 49 -7 92 -9 111l-65 12l5 75s53 -5 103 -5c57 0 152 10 206 10zM302 633c-5 0 -12 0 -21 -1c-3 -30 -6 -76 -6 -90v-181h24c95 0 134 49 134 141c0 88 -41 131 -131 131zM313 -126c0 46 33 68 64 68c42 0 66 -28 66 -76c0 -57 -61 -140 -61 -140
l-46 12s18 55 18 82c-12 4 -41 19 -41 54z" />
    <glyph glyph-name="S" unicode="S" horiz-adv-x="573" 
d="M59 226l83 -5s1 -58 1 -70c0 -6 7 -24 14 -41c21 -11 57 -28 108 -28c57 0 104 27 104 84c0 147 -318 117 -318 355c0 123 99 199 235 199c70 0 150 -15 220 -36l-14 -193l-83 5v74c0 4 -5 17 -12 34c-22 12 -45 23 -81 23c-60 0 -100 -30 -100 -81
c0 -134 318 -112 318 -342c0 -137 -113 -219 -257 -219c-135 0 -233 48 -233 48z" />
    <glyph glyph-name="Sacute" unicode="&#x15a;" horiz-adv-x="573" 
d="M59 226l83 -5s1 -58 1 -70c0 -6 7 -24 14 -41c21 -11 57 -28 108 -28c57 0 104 27 104 84c0 147 -318 117 -318 355c0 123 99 199 235 199c70 0 150 -15 220 -36l-14 -193l-83 5v74c0 4 -5 17 -12 34c-22 12 -45 23 -81 23c-60 0 -100 -30 -100 -81
c0 -134 318 -112 318 -342c0 -137 -113 -219 -257 -219c-135 0 -233 48 -233 48zM410 898l36 -84s-143 -40 -162 -46l-74 -38l-37 64z" />
    <glyph glyph-name="Scaron" unicode="&#x160;" horiz-adv-x="573" 
d="M59 226l83 -5s1 -58 1 -70c0 -6 7 -24 14 -41c21 -11 57 -28 108 -28c57 0 104 27 104 84c0 147 -318 117 -318 355c0 123 99 199 235 199c70 0 150 -15 220 -36l-14 -193l-83 5v74c0 4 -5 17 -12 34c-22 12 -45 23 -81 23c-60 0 -100 -30 -100 -81
c0 -134 318 -112 318 -342c0 -137 -113 -219 -257 -219c-135 0 -233 48 -233 48zM441 929l47 -58l-198 -133l-198 133l47 58l67 -49l84 -41l84 41z" />
    <glyph glyph-name="Scedilla" unicode="&#x15e;" horiz-adv-x="573" 
d="M59 226l83 -5s1 -58 1 -70c0 -6 7 -24 14 -41c21 -11 57 -28 108 -28c57 0 104 27 104 84c0 147 -318 117 -318 355c0 123 99 199 235 199c70 0 150 -15 220 -36l-14 -193l-83 5v74c0 4 -5 17 -12 34c-22 12 -45 23 -81 23c-60 0 -100 -30 -100 -81
c0 -134 318 -112 318 -342c0 -127 -97 -206 -226 -217l-9 -46c59 -1 101 -33 101 -87c0 -63 -51 -89 -114 -89c-37 0 -79 10 -96 18l18 49c16 -5 35 -11 55 -11c24 0 47 8 47 33s-18 31 -42 31c-6 0 -21 -1 -21 -1l-11 14l8 88c-118 7 -200 47 -200 47z" />
    <glyph glyph-name="Scommaaccent" unicode="&#x218;" horiz-adv-x="573" 
d="M59 226l83 -5s1 -58 1 -70c0 -6 7 -24 14 -41c21 -11 57 -28 108 -28c57 0 104 27 104 84c0 147 -318 117 -318 355c0 123 99 199 235 199c70 0 150 -15 220 -36l-14 -193l-83 5v74c0 4 -5 17 -12 34c-22 12 -45 23 -81 23c-60 0 -100 -30 -100 -81
c0 -134 318 -112 318 -342c0 -137 -113 -219 -257 -219c-135 0 -233 48 -233 48zM213 -126c0 46 33 68 64 68c42 0 66 -28 66 -76c0 -57 -61 -140 -61 -140l-46 12s18 55 18 82c-12 4 -41 19 -41 54z" />
    <glyph glyph-name="T" unicode="T" horiz-adv-x="626" 
d="M617 531l-72 -5c-1 15 -5 54 -9 69c-1 4 -5 13 -9 23c-18 2 -46 5 -76 5h-51c-3 -16 -9 -61 -9 -81v-349c0 -50 7 -102 9 -116l65 -6l-5 -76s-81 5 -194 5c-47 0 -100 -5 -100 -5l-5 70l66 12c1 10 9 66 9 86v349c0 49 -7 94 -9 111h-47c-30 0 -60 -3 -80 -5
c-4 -10 -8 -19 -9 -23c-4 -15 -8 -54 -9 -69l-72 5l7 166l19 18s94 -10 114 -10h326c20 0 114 10 114 10l19 -18z" />
    <glyph glyph-name="Tbar" unicode="&#x166;" horiz-adv-x="626" 
d="M617 531l-72 -5c-1 15 -5 54 -9 69c-1 4 -5 13 -9 23c-18 2 -46 5 -76 5h-51c-3 -16 -9 -61 -9 -81v-121h142v-64h-142v-164c0 -50 7 -102 9 -116l65 -6l-5 -76s-81 5 -194 5c-47 0 -100 -5 -100 -5l-5 70l66 12c1 10 9 66 9 86v194h-141v64h141v91c0 49 -7 94 -9 111
h-47c-30 0 -60 -3 -80 -5c-4 -10 -8 -19 -9 -23c-4 -15 -8 -54 -9 -69l-72 5l7 166l19 18s94 -10 114 -10h326c20 0 114 10 114 10l19 -18z" />
    <glyph glyph-name="Tcaron" unicode="&#x164;" horiz-adv-x="626" 
d="M617 531l-72 -5c-1 15 -5 54 -9 69c-1 4 -5 13 -9 23c-18 2 -46 5 -76 5h-51c-3 -16 -9 -61 -9 -81v-349c0 -50 7 -102 9 -116l65 -6l-5 -76s-81 5 -194 5c-47 0 -100 -5 -100 -5l-5 70l66 12c1 10 9 66 9 86v349c0 49 -7 94 -9 111h-47c-30 0 -60 -3 -80 -5
c-4 -10 -8 -19 -9 -23c-4 -15 -8 -54 -9 -69l-72 5l7 166l19 18s94 -10 114 -10h326c20 0 114 10 114 10l19 -18zM464 929l47 -58l-198 -133l-198 133l47 58l67 -49l84 -41l84 41z" />
    <glyph glyph-name="Tcedilla" unicode="&#x162;" horiz-adv-x="626" 
d="M617 531l-72 -5c-1 15 -5 54 -9 69c-1 4 -5 13 -9 23c-18 2 -46 5 -76 5h-51c-3 -16 -9 -61 -9 -81v-349c0 -50 7 -102 9 -116l65 -6l-5 -76s-46 3 -114 5l-12 -59c59 -1 101 -33 101 -87c0 -63 -51 -89 -114 -89c-37 0 -79 10 -96 18l18 49c16 -5 35 -11 55 -11
c24 0 47 8 47 33s-18 31 -42 31c-6 0 -21 -1 -21 -1l-11 14l10 102h-15c-47 0 -100 -5 -100 -5l-5 70l66 12c1 10 9 66 9 86v349c0 49 -7 94 -9 111h-47c-30 0 -60 -3 -80 -5c-4 -10 -8 -19 -9 -23c-4 -15 -8 -54 -9 -69l-72 5l7 166l19 18s94 -10 114 -10h326
c20 0 114 10 114 10l19 -18z" />
    <glyph glyph-name="uni021A" unicode="&#x21a;" horiz-adv-x="626" 
d="M617 531l-72 -5c-1 15 -5 54 -9 69c-1 4 -5 13 -9 23c-18 2 -46 5 -76 5h-51c-3 -16 -9 -61 -9 -81v-349c0 -50 7 -102 9 -116l65 -6l-5 -76s-81 5 -194 5c-47 0 -100 -5 -100 -5l-5 70l66 12c1 10 9 66 9 86v349c0 49 -7 94 -9 111h-47c-30 0 -60 -3 -80 -5
c-4 -10 -8 -19 -9 -23c-4 -15 -8 -54 -9 -69l-72 5l7 166l19 18s94 -10 114 -10h326c20 0 114 10 114 10l19 -18zM261 -126c0 46 33 68 64 68c42 0 66 -28 66 -76c0 -57 -61 -140 -61 -140l-46 12s18 55 18 82c-12 4 -41 19 -41 54z" />
    <glyph glyph-name="Thorn" unicode="&#xde;" horiz-adv-x="600" 
d="M345 629l-66 -6c-2 -10 -6 -36 -8 -57c34 2 66 4 89 4c140 0 236 -78 236 -212c0 -136 -114 -212 -250 -212h-74c2 -32 6 -59 7 -69l65 -6l-5 -76s-81 5 -194 5c-47 0 -100 -5 -100 -5l-5 70l66 12c1 10 9 66 9 86v349c0 50 -7 95 -9 111l-65 12l5 75s53 -5 100 -5
c113 0 194 5 194 5zM270 487v-259h17c91 0 148 45 148 131c0 87 -40 129 -133 129c-7 0 -18 0 -32 -1z" />
    <glyph glyph-name="U" unicode="U" horiz-adv-x="779" 
d="M749 710l5 -81l-66 -6c-3 -14 -9 -61 -9 -81v-274c0 -171 -100 -283 -290 -283c-191 0 -289 112 -289 283v244c0 50 -6 97 -9 111l-65 12l5 75s53 -5 100 -5c113 0 199 5 199 5l5 -81l-66 -6c-3 -11 -9 -61 -9 -81v-282c0 -90 51 -161 146 -161c105 0 141 61 141 161v252
c0 50 -7 96 -9 111l-65 12l5 75s53 -5 100 -5c113 0 171 5 171 5z" />
    <glyph glyph-name="Uacute" unicode="&#xda;" horiz-adv-x="779" 
d="M749 710l5 -81l-66 -6c-3 -14 -9 -61 -9 -81v-274c0 -171 -100 -283 -290 -283c-191 0 -289 112 -289 283v244c0 50 -6 97 -9 111l-65 12l5 75s53 -5 100 -5c113 0 199 5 199 5l5 -81l-66 -6c-3 -11 -9 -61 -9 -81v-282c0 -90 51 -161 146 -161c105 0 141 61 141 161v252
c0 50 -7 96 -9 111l-65 12l5 75s53 -5 100 -5c113 0 171 5 171 5zM510 898l36 -84s-143 -40 -162 -46l-74 -38l-37 64z" />
    <glyph glyph-name="Ucaron" unicode="&#x1d3;" horiz-adv-x="779" 
d="M749 710l5 -81l-66 -6c-3 -14 -9 -61 -9 -81v-274c0 -171 -100 -283 -290 -283c-191 0 -289 112 -289 283v244c0 50 -6 97 -9 111l-65 12l5 75s53 -5 100 -5c113 0 199 5 199 5l5 -81l-66 -6c-3 -11 -9 -61 -9 -81v-282c0 -90 51 -161 146 -161c105 0 141 61 141 161v252
c0 50 -7 96 -9 111l-65 12l5 75s53 -5 100 -5c113 0 171 5 171 5zM551 929l47 -58l-198 -133l-198 133l47 58l67 -49l84 -41l84 41z" />
    <glyph glyph-name="Ucircumflex" unicode="&#xdb;" horiz-adv-x="779" 
d="M749 710l5 -81l-66 -6c-3 -14 -9 -61 -9 -81v-274c0 -171 -100 -283 -290 -283c-191 0 -289 112 -289 283v244c0 50 -6 97 -9 111l-65 12l5 75s53 -5 100 -5c113 0 199 5 199 5l5 -81l-66 -6c-3 -11 -9 -61 -9 -81v-282c0 -90 51 -161 146 -161c105 0 141 61 141 161v252
c0 50 -7 96 -9 111l-65 12l5 75s53 -5 100 -5c113 0 171 5 171 5zM390 938l198 -133l-47 -58l-67 49l-84 41l-84 -41l-67 -49l-47 58z" />
    <glyph glyph-name="Udieresis" unicode="&#xdc;" horiz-adv-x="779" 
d="M749 710l5 -81l-66 -6c-3 -14 -9 -61 -9 -81v-274c0 -171 -100 -283 -290 -283c-191 0 -289 112 -289 283v244c0 50 -6 97 -9 111l-65 12l5 75s53 -5 100 -5c113 0 199 5 199 5l5 -81l-66 -6c-3 -11 -9 -61 -9 -81v-282c0 -90 51 -161 146 -161c105 0 141 61 141 161v252
c0 50 -7 96 -9 111l-65 12l5 75s53 -5 100 -5c113 0 171 5 171 5zM272 896c42 0 67 -26 67 -70c0 -41 -23 -69 -67 -69s-68 28 -68 69s24 70 68 70zM509 896c42 0 67 -26 67 -70c0 -41 -23 -69 -67 -69s-67 28 -67 69s23 70 67 70z" />
    <glyph glyph-name="Udieresisacute" unicode="&#x1d7;" horiz-adv-x="779" 
d="M749 710l5 -81l-66 -6c-3 -14 -9 -61 -9 -81v-274c0 -171 -100 -283 -290 -283c-191 0 -289 112 -289 283v244c0 50 -6 97 -9 111l-65 12l5 75s53 -5 100 -5c113 0 199 5 199 5l5 -81l-66 -6c-3 -11 -9 -61 -9 -81v-282c0 -90 51 -161 146 -161c105 0 141 61 141 161v252
c0 50 -7 96 -9 111l-65 12l5 75s53 -5 100 -5c113 0 171 5 171 5zM462 1012l28 -71s-95 -21 -108 -27l-64 -28l-28 56zM296 872c39 0 63 -24 63 -64c0 -38 -23 -63 -63 -63c-41 0 -64 25 -64 63s23 64 64 64zM485 872c39 0 63 -24 63 -64c0 -38 -22 -63 -63 -63
s-63 25 -63 63s22 64 63 64z" />
    <glyph glyph-name="Udieresiscaron" unicode="&#x1d9;" horiz-adv-x="779" 
d="M749 710l5 -81l-66 -6c-3 -14 -9 -61 -9 -81v-274c0 -171 -100 -283 -290 -283c-191 0 -289 112 -289 283v244c0 50 -6 97 -9 111l-65 12l5 75s53 -5 100 -5c113 0 199 5 199 5l5 -81l-66 -6c-3 -11 -9 -61 -9 -81v-282c0 -90 51 -161 146 -161c105 0 141 61 141 161v252
c0 50 -7 96 -9 111l-65 12l5 75s53 -5 100 -5c113 0 171 5 171 5zM390 874l-163 87l29 52l63 -30c8 -3 45 -14 71 -21c26 7 62 17 71 21l63 30l29 -52zM484 872c41 0 64 -26 64 -64s-23 -63 -64 -63c-40 0 -63 25 -63 63c0 40 24 64 63 64zM295 872c41 0 63 -26 63 -64
s-22 -63 -63 -63s-63 25 -63 63c0 40 24 64 63 64z" />
    <glyph glyph-name="Udieresisgrave" unicode="&#x1db;" horiz-adv-x="779" 
d="M749 710l5 -81l-66 -6c-3 -14 -9 -61 -9 -81v-274c0 -171 -100 -283 -290 -283c-191 0 -289 112 -289 283v244c0 50 -6 97 -9 111l-65 12l5 75s53 -5 100 -5c113 0 199 5 199 5l5 -81l-66 -6c-3 -11 -9 -61 -9 -81v-282c0 -90 51 -161 146 -161c105 0 141 61 141 161v252
c0 50 -7 96 -9 111l-65 12l5 75s53 -5 100 -5c113 0 171 5 171 5zM318 1012l172 -70l-28 -56l-64 28c-13 6 -108 27 -108 27zM295 872c41 0 63 -26 63 -64s-22 -63 -63 -63s-63 25 -63 63c0 40 24 64 63 64zM484 872c41 0 64 -26 64 -64s-23 -63 -64 -63
c-40 0 -63 25 -63 63c0 40 24 64 63 64z" />
    <glyph glyph-name="Udieresismacron" unicode="&#x1d5;" horiz-adv-x="779" 
d="M749 710l5 -81l-66 -6c-3 -14 -9 -61 -9 -81v-274c0 -171 -100 -283 -290 -283c-191 0 -289 112 -289 283v244c0 50 -6 97 -9 111l-65 12l5 75s53 -5 100 -5c113 0 199 5 199 5l5 -81l-66 -6c-3 -11 -9 -61 -9 -81v-282c0 -90 51 -161 146 -161c105 0 141 61 141 161v252
c0 50 -7 96 -9 111l-65 12l5 75s53 -5 100 -5c113 0 171 5 171 5zM484 872c41 0 64 -26 64 -64s-23 -63 -64 -63c-40 0 -63 25 -63 63c0 40 24 64 63 64zM295 872c41 0 63 -26 63 -64s-22 -63 -63 -63s-63 25 -63 63c0 40 24 64 63 64zM524 912h-275v73h282z" />
    <glyph glyph-name="Udotbelow" unicode="&#x1ee4;" horiz-adv-x="779" 
d="M749 710l5 -81l-66 -6c-3 -14 -9 -61 -9 -81v-274c0 -171 -100 -283 -290 -283c-191 0 -289 112 -289 283v244c0 50 -6 97 -9 111l-65 12l5 75s53 -5 100 -5c113 0 199 5 199 5l5 -81l-66 -6c-3 -11 -9 -61 -9 -81v-282c0 -90 51 -161 146 -161c105 0 141 61 141 161v252
c0 50 -7 96 -9 111l-65 12l5 75s53 -5 100 -5c113 0 171 5 171 5zM400 -65c48 0 77 -29 77 -78c0 -46 -27 -77 -77 -77s-77 31 -77 77s27 78 77 78z" />
    <glyph glyph-name="Ugrave" unicode="&#xd9;" horiz-adv-x="779" 
d="M749 710l5 -81l-66 -6c-3 -14 -9 -61 -9 -81v-274c0 -171 -100 -283 -290 -283c-191 0 -289 112 -289 283v244c0 50 -6 97 -9 111l-65 12l5 75s53 -5 100 -5c113 0 199 5 199 5l5 -81l-66 -6c-3 -11 -9 -61 -9 -81v-282c0 -90 51 -161 146 -161c105 0 141 61 141 161v252
c0 50 -7 96 -9 111l-65 12l5 75s53 -5 100 -5c113 0 171 5 171 5zM506 804l-37 -64l-74 38c-19 6 -162 46 -162 46l36 84z" />
    <glyph glyph-name="Uhookabove" unicode="&#x1ee6;" horiz-adv-x="779" 
d="M749 710l5 -81l-66 -6c-3 -14 -9 -61 -9 -81v-274c0 -171 -100 -283 -290 -283c-191 0 -289 112 -289 283v244c0 50 -6 97 -9 111l-65 12l5 75s53 -5 100 -5c113 0 199 5 199 5l5 -81l-66 -6c-3 -11 -9 -61 -9 -81v-282c0 -90 51 -161 146 -161c105 0 141 61 141 161v252
c0 50 -7 96 -9 111l-65 12l5 75s53 -5 100 -5c113 0 171 5 171 5zM399 939c47 0 94 -26 94 -74c0 -52 -65 -58 -65 -82c0 -12 6 -26 6 -26c-5 -5 -17 -7 -28 -7c-27 0 -45 15 -45 38v4c0 34 49 40 49 68c0 16 -11 23 -25 23c-18 0 -42 -11 -42 -11l-16 49c12 6 37 18 72 18z
" />
    <glyph glyph-name="Uhorn" unicode="&#x1af;" horiz-adv-x="795" 
d="M709 827l107 28c12 -27 19 -54 19 -78c0 -84 -31 -139 -147 -144c-3 -16 -9 -69 -9 -91v-274c0 -171 -100 -283 -290 -283c-191 0 -289 112 -289 283v244c0 50 -6 97 -9 111l-65 12l5 75s53 -5 100 -5c113 0 199 5 199 5l5 -81l-66 -6c-3 -11 -9 -61 -9 -81v-282
c0 -90 51 -161 146 -161c105 0 141 61 141 161v252c0 50 -7 96 -9 111l-65 12l5 75s53 -5 100 -5c142 0 154 8 154 45c0 30 -23 77 -23 77z" />
    <glyph glyph-name="Uhornacute" unicode="&#x1ee8;" horiz-adv-x="795" 
d="M510 898l36 -84s-143 -40 -162 -46l-74 -38l-37 64zM709 827l107 28c12 -27 19 -54 19 -78c0 -84 -31 -139 -147 -144c-3 -16 -9 -69 -9 -91v-274c0 -171 -100 -283 -290 -283c-191 0 -289 112 -289 283v244c0 50 -6 97 -9 111l-65 12l5 75s53 -5 100 -5
c113 0 199 5 199 5l5 -81l-66 -6c-3 -11 -9 -61 -9 -81v-282c0 -90 51 -161 146 -161c105 0 141 61 141 161v252c0 50 -7 96 -9 111l-65 12l5 75s53 -5 100 -5c142 0 154 8 154 45c0 30 -23 77 -23 77z" />
    <glyph glyph-name="Uhorndotbelow" unicode="&#x1ef0;" horiz-adv-x="795" 
d="M400 -65c48 0 77 -29 77 -78c0 -46 -27 -77 -77 -77s-77 31 -77 77s27 78 77 78zM709 827l107 28c12 -27 19 -54 19 -78c0 -84 -31 -139 -147 -144c-3 -16 -9 -69 -9 -91v-274c0 -171 -100 -283 -290 -283c-191 0 -289 112 -289 283v244c0 50 -6 97 -9 111l-65 12l5 75
s53 -5 100 -5c113 0 199 5 199 5l5 -81l-66 -6c-3 -11 -9 -61 -9 -81v-282c0 -90 51 -161 146 -161c105 0 141 61 141 161v252c0 50 -7 96 -9 111l-65 12l5 75s53 -5 100 -5c142 0 154 8 154 45c0 30 -23 77 -23 77z" />
    <glyph glyph-name="Uhorngrave" unicode="&#x1eea;" horiz-adv-x="795" 
d="M506 804l-37 -64l-74 38c-19 6 -162 46 -162 46l36 84zM709 827l107 28c12 -27 19 -54 19 -78c0 -84 -31 -139 -147 -144c-3 -16 -9 -69 -9 -91v-274c0 -171 -100 -283 -290 -283c-191 0 -289 112 -289 283v244c0 50 -6 97 -9 111l-65 12l5 75s53 -5 100 -5
c113 0 199 5 199 5l5 -81l-66 -6c-3 -11 -9 -61 -9 -81v-282c0 -90 51 -161 146 -161c105 0 141 61 141 161v252c0 50 -7 96 -9 111l-65 12l5 75s53 -5 100 -5c142 0 154 8 154 45c0 30 -23 77 -23 77z" />
    <glyph glyph-name="Uhornhookabove" unicode="&#x1eec;" horiz-adv-x="795" 
d="M399 939c47 0 94 -26 94 -74c0 -52 -65 -58 -65 -82c0 -12 6 -26 6 -26c-5 -5 -17 -7 -28 -7c-27 0 -45 15 -45 38v4c0 34 49 40 49 68c0 16 -11 23 -25 23c-18 0 -42 -11 -42 -11l-16 49c12 6 37 18 72 18zM709 827l107 28c12 -27 19 -54 19 -78
c0 -84 -31 -139 -147 -144c-3 -16 -9 -69 -9 -91v-274c0 -171 -100 -283 -290 -283c-191 0 -289 112 -289 283v244c0 50 -6 97 -9 111l-65 12l5 75s53 -5 100 -5c113 0 199 5 199 5l5 -81l-66 -6c-3 -11 -9 -61 -9 -81v-282c0 -90 51 -161 146 -161c105 0 141 61 141 161
v252c0 50 -7 96 -9 111l-65 12l5 75s53 -5 100 -5c142 0 154 8 154 45c0 30 -23 77 -23 77z" />
    <glyph glyph-name="Uhorntilde" unicode="&#x1eee;" horiz-adv-x="795" 
d="M541 883l49 -28s-45 -101 -88 -101s-142 38 -185 38c-24 0 -49 -42 -49 -42l-47 28s46 105 89 105c42 0 143 -38 185 -38c24 0 46 38 46 38zM709 827l107 28c12 -27 19 -54 19 -78c0 -84 -31 -139 -147 -144c-3 -16 -9 -69 -9 -91v-274c0 -171 -100 -283 -290 -283
c-191 0 -289 112 -289 283v244c0 50 -6 97 -9 111l-65 12l5 75s53 -5 100 -5c113 0 199 5 199 5l5 -81l-66 -6c-3 -11 -9 -61 -9 -81v-282c0 -90 51 -161 146 -161c105 0 141 61 141 161v252c0 50 -7 96 -9 111l-65 12l5 75s53 -5 100 -5c142 0 154 8 154 45
c0 30 -23 77 -23 77z" />
    <glyph glyph-name="Uhungarumlaut" unicode="&#x170;" horiz-adv-x="779" 
d="M749 710l5 -81l-66 -6c-3 -14 -9 -61 -9 -81v-274c0 -171 -100 -283 -290 -283c-191 0 -289 112 -289 283v244c0 50 -6 97 -9 111l-65 12l5 75s53 -5 100 -5c113 0 199 5 199 5l5 -81l-66 -6c-3 -11 -9 -61 -9 -81v-282c0 -90 51 -161 146 -161c105 0 141 61 141 161v252
c0 50 -7 96 -9 111l-65 12l5 75s53 -5 100 -5c113 0 171 5 171 5zM421 918l36 -79s-139 -59 -158 -65l-74 -40l-39 63zM646 913l36 -84s-143 -51 -162 -57l-74 -38l-36 62z" />
    <glyph glyph-name="Umacron" unicode="&#x16a;" horiz-adv-x="779" 
d="M749 710l5 -81l-66 -6c-3 -14 -9 -61 -9 -81v-274c0 -171 -100 -283 -290 -283c-191 0 -289 112 -289 283v244c0 50 -6 97 -9 111l-65 12l5 75s53 -5 100 -5c113 0 199 5 199 5l5 -81l-66 -6c-3 -11 -9 -61 -9 -81v-282c0 -90 51 -161 146 -161c105 0 141 61 141 161v252
c0 50 -7 96 -9 111l-65 12l5 75s53 -5 100 -5c113 0 171 5 171 5zM544 771h-315v73h322z" />
    <glyph glyph-name="V" unicode="V" horiz-adv-x="707" 
d="M295 0l-209 577c-9 25 -27 54 -27 54l-60 9l5 70s55 -5 92 -5c113 0 208 5 208 5l5 -73l-65 -9s2 -34 8 -52l116 -369l127 383c7 20 7 38 7 38l-64 12l5 70s63 -5 110 -5c83 0 147 5 147 5l5 -73l-50 -7s-34 -56 -45 -86l-200 -544h-115z" />
    <glyph glyph-name="W" unicode="W" horiz-adv-x="1029" 
d="M1024 637l-50 -7s-27 -46 -40 -86l-174 -544h-115l-128 423l-134 -423h-115l-183 577c-10 31 -23 54 -23 54l-60 9l5 70s55 -5 92 -5c113 0 208 5 208 5l5 -73l-65 -9s-2 -26 4 -52l90 -369l133 468h113l131 -468l101 383c6 22 2 38 2 38l-64 12l5 70s63 -5 110 -5
c83 0 147 5 147 5z" />
    <glyph glyph-name="Wacute" unicode="&#x1e82;" horiz-adv-x="1029" 
d="M1024 637l-50 -7s-27 -46 -40 -86l-174 -544h-115l-128 423l-134 -423h-115l-183 577c-10 31 -23 54 -23 54l-60 9l5 70s55 -5 92 -5c113 0 208 5 208 5l5 -73l-65 -9s-2 -26 4 -52l90 -369l133 468h113l131 -468l101 383c6 22 2 38 2 38l-64 12l5 70s63 -5 110 -5
c83 0 147 5 147 5zM635 898l36 -84s-143 -40 -162 -46l-74 -38l-37 64z" />
    <glyph glyph-name="Wcircumflex" unicode="&#x174;" horiz-adv-x="1029" 
d="M1024 637l-50 -7s-27 -46 -40 -86l-174 -544h-115l-128 423l-134 -423h-115l-183 577c-10 31 -23 54 -23 54l-60 9l5 70s55 -5 92 -5c113 0 208 5 208 5l5 -73l-65 -9s-2 -26 4 -52l90 -369l133 468h113l131 -468l101 383c6 22 2 38 2 38l-64 12l5 70s63 -5 110 -5
c83 0 147 5 147 5zM515 908l198 -133l-47 -58l-67 49l-84 41l-84 -41l-67 -49l-47 58z" />
    <glyph glyph-name="Wdieresis" unicode="&#x1e84;" horiz-adv-x="1029" 
d="M1024 637l-50 -7s-27 -46 -40 -86l-174 -544h-115l-128 423l-134 -423h-115l-183 577c-10 31 -23 54 -23 54l-60 9l5 70s55 -5 92 -5c113 0 208 5 208 5l5 -73l-65 -9s-2 -26 4 -52l90 -369l133 468h113l131 -468l101 383c6 22 2 38 2 38l-64 12l5 70s63 -5 110 -5
c83 0 147 5 147 5zM397 896c42 0 67 -26 67 -70c0 -41 -23 -69 -67 -69s-68 28 -68 69s24 70 68 70zM634 896c42 0 67 -26 67 -70c0 -41 -23 -69 -67 -69s-67 28 -67 69s23 70 67 70z" />
    <glyph glyph-name="Wgrave" unicode="&#x1e80;" horiz-adv-x="1029" 
d="M1024 637l-50 -7s-27 -46 -40 -86l-174 -544h-115l-128 423l-134 -423h-115l-183 577c-10 31 -23 54 -23 54l-60 9l5 70s55 -5 92 -5c113 0 208 5 208 5l5 -73l-65 -9s-2 -26 4 -52l90 -369l133 468h113l131 -468l101 383c6 22 2 38 2 38l-64 12l5 70s63 -5 110 -5
c83 0 147 5 147 5zM631 804l-37 -64l-74 38c-19 6 -162 46 -162 46l36 84z" />
    <glyph glyph-name="X" unicode="X" horiz-adv-x="697" 
d="M265 343l-150 215l-53 74l-53 8l6 70s57 -5 94 -5c113 0 195 5 195 5l3 -74l-42 -5c11 -24 29 -59 41 -76l57 -86l68 109c9 13 20 34 29 54l-41 8l6 70s53 -5 100 -5c83 0 147 5 147 5l4 -74l-65 -8c-21 -20 -48 -45 -59 -59l-125 -191l174 -246c11 -13 30 -36 49 -56
l51 -5l-6 -76s-82 5 -195 5c-37 0 -88 -5 -88 -5l-4 70l37 7c-12 25 -27 55 -39 70l-78 111l-82 -121c-9 -13 -21 -36 -31 -57l49 -4l-6 -76s-64 5 -147 5c-47 0 -100 -5 -100 -5l-4 70l52 9c27 28 68 70 82 90z" />
    <glyph glyph-name="Y" unicode="Y" horiz-adv-x="712" 
d="M710 637l-60 -7s-45 -54 -62 -86l-153 -294v-57c0 -50 7 -102 9 -116l65 -6l-5 -76s-81 5 -194 5c-47 0 -100 -5 -100 -5l-5 70l66 12c1 10 9 66 9 86v86l-178 328c-14 24 -48 54 -48 54l-60 9l5 70s55 -5 92 -5c113 0 208 5 208 5l5 -73l-53 -9s7 -33 17 -52l105 -207
l110 221c4 8 4 38 4 38l-44 12l5 70s63 -5 110 -5c83 0 147 5 147 5z" />
    <glyph glyph-name="Ycircumflex" unicode="&#x176;" horiz-adv-x="712" 
d="M710 637l-60 -7s-45 -54 -62 -86l-153 -294v-57c0 -50 7 -102 9 -116l65 -6l-5 -76s-81 5 -194 5c-47 0 -100 -5 -100 -5l-5 70l66 12c1 10 9 66 9 86v86l-178 328c-14 24 -48 54 -48 54l-60 9l5 70s55 -5 92 -5c113 0 208 5 208 5l5 -73l-53 -9s7 -33 17 -52l105 -207
l110 221c4 8 4 38 4 38l-44 12l5 70s63 -5 110 -5c83 0 147 5 147 5zM356 938l198 -133l-47 -58l-67 49l-84 41l-84 -41l-67 -49l-47 58z" />
    <glyph glyph-name="Ydieresis" unicode="&#x178;" horiz-adv-x="712" 
d="M710 637l-60 -7s-45 -54 -62 -86l-153 -294v-57c0 -50 7 -102 9 -116l65 -6l-5 -76s-81 5 -194 5c-47 0 -100 -5 -100 -5l-5 70l66 12c1 10 9 66 9 86v86l-178 328c-14 24 -48 54 -48 54l-60 9l5 70s55 -5 92 -5c113 0 208 5 208 5l5 -73l-53 -9s7 -33 17 -52l105 -207
l110 221c4 8 4 38 4 38l-44 12l5 70s63 -5 110 -5c83 0 147 5 147 5zM238 896c42 0 67 -26 67 -70c0 -41 -23 -69 -67 -69s-68 28 -68 69s24 70 68 70zM475 896c42 0 67 -26 67 -70c0 -41 -23 -69 -67 -69s-67 28 -67 69s23 70 67 70z" />
    <glyph glyph-name="Ydotbelow" unicode="&#x1ef4;" horiz-adv-x="712" 
d="M710 637l-60 -7s-45 -54 -62 -86l-153 -294v-57c0 -50 7 -102 9 -116l65 -6l-5 -76s-81 5 -194 5c-47 0 -100 -5 -100 -5l-5 70l66 12c1 10 9 66 9 86v86l-178 328c-14 24 -48 54 -48 54l-60 9l5 70s55 -5 92 -5c113 0 208 5 208 5l5 -73l-53 -9s7 -33 17 -52l105 -207
l110 221c4 8 4 38 4 38l-44 12l5 70s63 -5 110 -5c83 0 147 5 147 5zM354 -65c48 0 77 -29 77 -78c0 -46 -27 -77 -77 -77s-77 31 -77 77s27 78 77 78z" />
    <glyph glyph-name="Ygrave" unicode="&#x1ef2;" horiz-adv-x="712" 
d="M710 637l-60 -7s-45 -54 -62 -86l-153 -294v-57c0 -50 7 -102 9 -116l65 -6l-5 -76s-81 5 -194 5c-47 0 -100 -5 -100 -5l-5 70l66 12c1 10 9 66 9 86v86l-178 328c-14 24 -48 54 -48 54l-60 9l5 70s55 -5 92 -5c113 0 208 5 208 5l5 -73l-53 -9s7 -33 17 -52l105 -207
l110 221c4 8 4 38 4 38l-44 12l5 70s63 -5 110 -5c83 0 147 5 147 5zM472 804l-37 -64l-74 38c-19 6 -162 46 -162 46l36 84z" />
    <glyph glyph-name="Yhookabove" unicode="&#x1ef6;" horiz-adv-x="712" 
d="M710 637l-60 -7s-45 -54 -62 -86l-153 -294v-57c0 -50 7 -102 9 -116l65 -6l-5 -76s-81 5 -194 5c-47 0 -100 -5 -100 -5l-5 70l66 12c1 10 9 66 9 86v86l-178 328c-14 24 -48 54 -48 54l-60 9l5 70s55 -5 92 -5c113 0 208 5 208 5l5 -73l-53 -9s7 -33 17 -52l105 -207
l110 221c4 8 4 38 4 38l-44 12l5 70s63 -5 110 -5c83 0 147 5 147 5zM355 939c47 0 94 -26 94 -74c0 -52 -65 -58 -65 -82c0 -12 6 -26 6 -26c-5 -5 -17 -7 -28 -7c-27 0 -45 15 -45 38v4c0 34 49 40 49 68c0 16 -11 23 -25 23c-18 0 -42 -11 -42 -11l-16 49
c12 6 37 18 72 18z" />
    <glyph glyph-name="Z" unicode="Z" horiz-adv-x="611" 
d="M368 616h-153c-31 0 -63 -3 -83 -5l-13 -28c-4 -15 -13 -59 -15 -76l-72 5l7 185l20 18s95 -10 115 -10h379l10 -80l-107 -161l-156 -252l-64 -123h157c29 0 63 4 84 8c10 21 19 41 20 47c4 15 11 43 13 59l68 -5l-15 -184l-20 -18s-95 4 -115 4h-386l-10 80
s87 116 111 157l175 279z" />
    <glyph glyph-name="Zacute" unicode="&#x179;" horiz-adv-x="611" 
d="M368 616h-153c-31 0 -63 -3 -83 -5l-13 -28c-4 -15 -13 -59 -15 -76l-72 5l7 185l20 18s95 -10 115 -10h379l10 -80l-107 -161l-156 -252l-64 -123h157c29 0 63 4 84 8c10 21 19 41 20 47c4 15 11 43 13 59l68 -5l-15 -184l-20 -18s-95 4 -115 4h-386l-10 80
s87 116 111 157l175 279zM426 898l36 -84s-143 -40 -162 -46l-74 -38l-37 64z" />
    <glyph glyph-name="Zcaron" unicode="&#x17d;" horiz-adv-x="611" 
d="M368 616h-153c-31 0 -63 -3 -83 -5l-13 -28c-4 -15 -13 -59 -15 -76l-72 5l7 185l20 18s95 -10 115 -10h379l10 -80l-107 -161l-156 -252l-64 -123h157c29 0 63 4 84 8c10 21 19 41 20 47c4 15 11 43 13 59l68 -5l-15 -184l-20 -18s-95 4 -115 4h-386l-10 80
s87 116 111 157l175 279zM457 929l47 -58l-198 -133l-198 133l47 58l67 -49l84 -41l84 41z" />
    <glyph glyph-name="Zdotaccent" unicode="&#x17b;" horiz-adv-x="611" 
d="M368 616h-153c-31 0 -63 -3 -83 -5l-13 -28c-4 -15 -13 -59 -15 -76l-72 5l7 185l20 18s95 -10 115 -10h379l10 -80l-107 -161l-156 -252l-64 -123h157c29 0 63 4 84 8c10 21 19 41 20 47c4 15 11 43 13 59l68 -5l-15 -184l-20 -18s-95 4 -115 4h-386l-10 80
s87 116 111 157l175 279zM306 905c49 0 79 -30 79 -80c0 -47 -28 -79 -79 -79s-79 32 -79 79s28 80 79 80z" />
    <glyph glyph-name="a" unicode="a" 
d="M321 0l-8 72c-31 -56 -75 -82 -138 -82c-91 0 -147 54 -147 142c0 78 44 124 132 138l142 23v29c0 65 -21 90 -75 90c-24 0 -58 -8 -81 -19l-7 -40l1 -43l-75 -3l-15 169c60 15 139 27 183 27c132 0 209 -66 209 -180v-130c0 -50 9 -116 9 -116l60 -6l-6 -76
s-49 5 -184 5zM302 228l-74 -12c-37 -7 -52 -25 -52 -62c0 -41 17 -61 54 -61c35 0 62 24 72 64v71z" />
    <glyph glyph-name="aacute" unicode="&#xe1;" 
d="M321 0l-8 72c-31 -56 -75 -82 -138 -82c-91 0 -147 54 -147 142c0 78 44 124 132 138l142 23v29c0 65 -21 90 -75 90c-24 0 -58 -8 -81 -19l-7 -40l1 -43l-75 -3l-15 169c60 15 139 27 183 27c132 0 209 -66 209 -180v-130c0 -50 9 -116 9 -116l60 -6l-6 -76
s-49 5 -184 5zM302 228l-74 -12c-37 -7 -52 -25 -52 -62c0 -41 17 -61 54 -61c35 0 62 24 72 64v71zM342 755l47 -76s-122 -56 -140 -65l-67 -49l-47 58z" />
    <glyph glyph-name="abreve" unicode="&#x103;" 
d="M321 0l-8 72c-31 -56 -75 -82 -138 -82c-91 0 -147 54 -147 142c0 78 44 124 132 138l142 23v29c0 65 -21 90 -75 90c-24 0 -58 -8 -81 -19l-7 -40l1 -43l-75 -3l-15 169c60 15 139 27 183 27c132 0 209 -66 209 -180v-130c0 -50 9 -116 9 -116l60 -6l-6 -76
s-49 5 -184 5zM302 228l-74 -12c-37 -7 -52 -25 -52 -62c0 -41 17 -61 54 -61c35 0 62 24 72 64v71zM330 727h66c0 -100 -61 -155 -154 -155s-154 55 -154 155h66c0 -50 38 -79 88 -79s88 29 88 79z" />
    <glyph glyph-name="abreveacute" unicode="&#x1eaf;" 
d="M321 0l-8 72c-31 -56 -75 -82 -138 -82c-91 0 -147 54 -147 142c0 78 44 124 132 138l142 23v29c0 65 -21 90 -75 90c-24 0 -58 -8 -81 -19l-7 -40l1 -43l-75 -3l-15 169c60 15 139 27 183 27c132 0 209 -66 209 -180v-130c0 -50 9 -116 9 -116l60 -6l-6 -76
s-49 5 -184 5zM302 228l-74 -12c-37 -7 -52 -25 -52 -62c0 -41 17 -61 54 -61c35 0 62 24 72 64v71zM328 660h68c-5 -79 -71 -128 -154 -128s-149 49 -154 128h68c5 -40 41 -59 86 -59s81 19 86 59zM342 770l40 -65s-90 -37 -102 -45l-58 -39l-37 51z" />
    <glyph glyph-name="abrevedotbelow" unicode="&#x1eb7;" 
d="M321 0l-8 72c-31 -56 -75 -82 -138 -82c-91 0 -147 54 -147 142c0 78 44 124 132 138l142 23v29c0 65 -21 90 -75 90c-24 0 -58 -8 -81 -19l-7 -40l1 -43l-75 -3l-15 169c60 15 139 27 183 27c132 0 209 -66 209 -180v-130c0 -50 9 -116 9 -116l60 -6l-6 -76
s-49 5 -184 5zM302 228l-74 -12c-37 -7 -52 -25 -52 -62c0 -41 17 -61 54 -61c35 0 62 24 72 64v71zM330 727h66c0 -100 -61 -155 -154 -155s-154 55 -154 155h66c0 -50 38 -79 88 -79s88 29 88 79zM239 -65c48 0 77 -29 77 -78c0 -46 -27 -77 -77 -77s-77 31 -77 77
s27 78 77 78z" />
    <glyph glyph-name="abrevegrave" unicode="&#x1eb1;" 
d="M321 0l-8 72c-31 -56 -75 -82 -138 -82c-91 0 -147 54 -147 142c0 78 44 124 132 138l142 23v29c0 65 -21 90 -75 90c-24 0 -58 -8 -81 -19l-7 -40l1 -43l-75 -3l-15 169c60 15 139 27 183 27c132 0 209 -66 209 -180v-130c0 -50 9 -116 9 -116l60 -6l-6 -76
s-49 5 -184 5zM302 228l-74 -12c-37 -7 -52 -25 -52 -62c0 -41 17 -61 54 -61c35 0 62 24 72 64v71zM328 660h68c-5 -79 -71 -128 -154 -128s-149 49 -154 128h68c5 -40 41 -59 86 -59s81 19 86 59zM303 672l-37 -51l-58 39c-12 8 -102 45 -102 45l40 65z" />
    <glyph glyph-name="abrevehookabove" unicode="&#x1eb3;" 
d="M321 0l-8 72c-31 -56 -75 -82 -138 -82c-91 0 -147 54 -147 142c0 78 44 124 132 138l142 23v29c0 65 -21 90 -75 90c-24 0 -58 -8 -81 -19l-7 -40l1 -43l-75 -3l-15 169c60 15 139 27 183 27c132 0 209 -66 209 -180v-130c0 -50 9 -116 9 -116l60 -6l-6 -76
s-49 5 -184 5zM302 228l-74 -12c-37 -7 -52 -25 -52 -62c0 -41 17 -61 54 -61c35 0 62 24 72 64v71zM251 770c39 0 71 -20 71 -57c0 -44 -54 -49 -54 -69c0 -8 5 -18 5 -18c-6 -4 -22 -5 -30 -5c-20 0 -34 11 -34 28v4c0 31 41 33 41 58c0 9 -8 14 -18 14
c-15 0 -36 -9 -36 -9l-15 42c18 6 29 12 70 12zM328 660h68c-5 -79 -71 -128 -154 -128s-149 49 -154 128h68c5 -40 41 -59 86 -59s81 19 86 59z" />
    <glyph glyph-name="abrevetilde" unicode="&#x1eb5;" 
d="M321 0l-8 72c-31 -56 -75 -82 -138 -82c-91 0 -147 54 -147 142c0 78 44 124 132 138l142 23v29c0 65 -21 90 -75 90c-24 0 -58 -8 -81 -19l-7 -40l1 -43l-75 -3l-15 169c60 15 139 27 183 27c132 0 209 -66 209 -180v-130c0 -50 9 -116 9 -116l60 -6l-6 -76
s-49 5 -184 5zM302 228l-74 -12c-37 -7 -52 -25 -52 -62c0 -41 17 -61 54 -61c35 0 62 24 72 64v71zM353 770l31 -26s-41 -67 -76 -67c-36 0 -82 25 -119 25c-24 0 -55 -24 -55 -24l-33 27s41 65 77 65s83 -24 119 -24c24 0 56 24 56 24zM328 660h68
c-5 -79 -71 -128 -154 -128s-149 49 -154 128h68c5 -40 41 -59 86 -59s81 19 86 59z" />
    <glyph glyph-name="acaron" unicode="&#x1ce;" 
d="M321 0l-8 72c-31 -56 -75 -82 -138 -82c-91 0 -147 54 -147 142c0 78 44 124 132 138l142 23v29c0 65 -21 90 -75 90c-24 0 -58 -8 -81 -19l-7 -40l1 -43l-75 -3l-15 169c60 15 139 27 183 27c132 0 209 -66 209 -180v-130c0 -50 9 -116 9 -116l60 -6l-6 -76
s-49 5 -184 5zM96 765l67 -53c10 -5 47 -28 79 -47c32 20 69 42 79 47l67 53l52 -58l-198 -143l-198 143zM302 228l-74 -12c-37 -7 -52 -25 -52 -62c0 -41 17 -61 54 -61c35 0 62 24 72 64v71z" />
    <glyph glyph-name="acircumflex" unicode="&#xe2;" 
d="M321 0l-8 72c-31 -56 -75 -82 -138 -82c-91 0 -147 54 -147 142c0 78 44 124 132 138l142 23v29c0 65 -21 90 -75 90c-24 0 -58 -8 -81 -19l-7 -40l1 -43l-75 -3l-15 169c60 15 139 27 183 27c132 0 209 -66 209 -180v-130c0 -50 9 -116 9 -116l60 -6l-6 -76
s-49 5 -184 5zM242 765l198 -143l-47 -58l-67 53c-10 5 -51 26 -84 44l-84 -44l-67 -53l-47 58zM302 228l-74 -12c-37 -7 -52 -25 -52 -62c0 -41 17 -61 54 -61c35 0 62 24 72 64v71z" />
    <glyph glyph-name="acircumflexacute" unicode="&#x1ea5;" 
d="M321 0l-8 72c-31 -56 -75 -82 -138 -82c-91 0 -147 54 -147 142c0 78 44 124 132 138l142 23v29c0 65 -21 90 -75 90c-24 0 -58 -8 -81 -19l-7 -40l1 -43l-75 -3l-15 169c60 15 139 27 183 27c132 0 209 -66 209 -180v-130c0 -50 9 -116 9 -116l60 -6l-6 -76
s-49 5 -184 5zM246 717l151 -141l-49 -39l-63 49l-39 28l-39 -28l-63 -49l-49 39zM302 228l-74 -12c-37 -7 -52 -25 -52 -62c0 -41 17 -61 54 -61c35 0 62 24 72 64v71zM441 797l55 -52s-70 -61 -76 -67l-40 -44l-50 40z" />
    <glyph glyph-name="acircumflexdotbelow" unicode="&#x1ead;" 
d="M321 0l-8 72c-31 -56 -75 -82 -138 -82c-91 0 -147 54 -147 142c0 78 44 124 132 138l142 23v29c0 65 -21 90 -75 90c-24 0 -58 -8 -81 -19l-7 -40l1 -43l-75 -3l-15 169c60 15 139 27 183 27c132 0 209 -66 209 -180v-130c0 -50 9 -116 9 -116l60 -6l-6 -76
s-49 5 -184 5zM302 228l-74 -12c-37 -7 -52 -25 -52 -62c0 -41 17 -61 54 -61c35 0 62 24 72 64v71zM242 765l198 -143l-47 -58l-67 53c-10 5 -51 26 -84 44l-84 -44l-67 -53l-47 58zM239 -65c48 0 77 -29 77 -78c0 -46 -27 -77 -77 -77s-77 31 -77 77s27 78 77 78z" />
    <glyph glyph-name="acircumflexgrave" unicode="&#x1ea7;" 
d="M321 0l-8 72c-31 -56 -75 -82 -138 -82c-91 0 -147 54 -147 142c0 78 44 124 132 138l142 23v29c0 65 -21 90 -75 90c-24 0 -58 -8 -81 -19l-7 -40l1 -43l-75 -3l-15 169c60 15 139 27 183 27c132 0 209 -66 209 -180v-130c0 -50 9 -116 9 -116l60 -6l-6 -76
s-49 5 -184 5zM244 717l151 -141l-49 -39l-63 49l-39 28l-39 -28l-63 -49l-49 39zM302 228l-74 -12c-37 -7 -52 -25 -52 -62c0 -41 17 -61 54 -61c35 0 62 24 72 64v71zM440 674l-50 -40l-40 44c-6 6 -76 67 -76 67l55 52z" />
    <glyph glyph-name="acircumflexhookabove" unicode="&#x1ea9;" 
d="M321 0l-8 72c-31 -56 -75 -82 -138 -82c-91 0 -147 54 -147 142c0 78 44 124 132 138l142 23v29c0 65 -21 90 -75 90c-24 0 -58 -8 -81 -19l-7 -40l1 -43l-75 -3l-15 169c60 15 139 27 183 27c132 0 209 -66 209 -180v-130c0 -50 9 -116 9 -116l60 -6l-6 -76
s-49 5 -184 5zM244 717l151 -141l-49 -39l-63 49l-39 28l-39 -28l-63 -49l-49 39zM302 228l-74 -12c-37 -7 -52 -25 -52 -62c0 -41 17 -61 54 -61c35 0 62 24 72 64v71zM407 770c39 0 71 -20 71 -57c0 -44 -54 -49 -54 -69c0 -8 5 -18 5 -18c-6 -4 -22 -5 -30 -5
c-20 0 -34 11 -34 28v4c0 31 41 33 41 58c0 9 -8 14 -18 14c-15 0 -36 -9 -36 -9l-15 42c18 6 29 12 70 12z" />
    <glyph glyph-name="acircumflextilde" unicode="&#x1eab;" 
d="M321 0l-8 72c-31 -56 -75 -82 -138 -82c-91 0 -147 54 -147 142c0 78 44 124 132 138l142 23v29c0 65 -21 90 -75 90c-24 0 -58 -8 -81 -19l-7 -40l1 -43l-75 -3l-15 169c60 15 139 27 183 27c132 0 209 -66 209 -180v-130c0 -50 9 -116 9 -116l60 -6l-6 -76
s-49 5 -184 5zM302 228l-74 -12c-37 -7 -52 -25 -52 -62c0 -41 17 -61 54 -61c35 0 62 24 72 64v71zM242 665l163 -87l-29 -52l-63 30c-8 3 -45 14 -71 21c-26 -7 -63 -18 -71 -21l-63 -30l-29 52zM348 771l31 -26s-41 -67 -76 -67c-36 0 -82 25 -119 25
c-24 0 -55 -24 -55 -24l-33 27s41 65 77 65s83 -24 119 -24c24 0 56 24 56 24z" />
    <glyph glyph-name="adieresis" unicode="&#xe4;" 
d="M321 0l-8 72c-31 -56 -75 -82 -138 -82c-91 0 -147 54 -147 142c0 78 44 124 132 138l142 23v29c0 65 -21 90 -75 90c-24 0 -58 -8 -81 -19l-7 -40l1 -43l-75 -3l-15 169c60 15 139 27 183 27c132 0 209 -66 209 -180v-130c0 -50 9 -116 9 -116l60 -6l-6 -76
s-49 5 -184 5zM302 228l-74 -12c-37 -7 -52 -25 -52 -62c0 -41 17 -61 54 -61c35 0 62 24 72 64v71zM124 725c42 0 67 -26 67 -70c0 -41 -23 -69 -67 -69s-68 28 -68 69s24 70 68 70zM361 725c42 0 67 -26 67 -70c0 -41 -23 -69 -67 -69s-67 28 -67 69s23 70 67 70z" />
    <glyph glyph-name="adotbelow" unicode="&#x1ea1;" 
d="M321 0l-8 72c-31 -56 -75 -82 -138 -82c-91 0 -147 54 -147 142c0 78 44 124 132 138l142 23v29c0 65 -21 90 -75 90c-24 0 -58 -8 -81 -19l-7 -40l1 -43l-75 -3l-15 169c60 15 139 27 183 27c132 0 209 -66 209 -180v-130c0 -50 9 -116 9 -116l60 -6l-6 -76
s-49 5 -184 5zM302 228l-74 -12c-37 -7 -52 -25 -52 -62c0 -41 17 -61 54 -61c35 0 62 24 72 64v71zM239 -65c48 0 77 -29 77 -78c0 -46 -27 -77 -77 -77s-77 31 -77 77s27 78 77 78z" />
    <glyph glyph-name="ae" unicode="&#xe6;" horiz-adv-x="727" 
d="M56 309l-15 167c67 17 137 27 183 27c62 0 112 -14 148 -42c38 28 87 42 145 42c131 0 209 -83 209 -224l-21 -39l-270 -16c6 -103 41 -143 126 -143c73 0 121 33 121 33l35 -58c-52 -47 -118 -71 -196 -71c-79 0 -136 30 -176 92c-44 -61 -94 -87 -169 -87
c-94 0 -157 57 -157 142c0 82 46 130 132 138l142 14v39c0 68 -24 99 -75 99c-22 0 -56 -9 -84 -22l-3 -39v-49zM293 214l-74 -7c-39 -5 -52 -19 -52 -55c0 -41 17 -59 54 -59c47 0 72 31 72 89v32zM506 424c-44 0 -67 -44 -70 -130l132 9l1 8c0 77 -20 113 -63 113z" />
    <glyph glyph-name="agrave" unicode="&#xe0;" 
d="M321 0l-8 72c-31 -56 -75 -82 -138 -82c-91 0 -147 54 -147 142c0 78 44 124 132 138l142 23v29c0 65 -21 90 -75 90c-24 0 -58 -8 -81 -19l-7 -40l1 -43l-75 -3l-15 169c60 15 139 27 183 27c132 0 209 -66 209 -180v-130c0 -50 9 -116 9 -116l60 -6l-6 -76
s-49 5 -184 5zM302 228l-74 -12c-37 -7 -52 -25 -52 -62c0 -41 17 -61 54 -61c35 0 62 24 72 64v71zM349 623l-47 -58l-67 49c-18 9 -140 65 -140 65l47 76z" />
    <glyph glyph-name="ahookabove" unicode="&#x1ea3;" 
d="M321 0l-8 72c-31 -56 -75 -82 -138 -82c-91 0 -147 54 -147 142c0 78 44 124 132 138l142 23v29c0 65 -21 90 -75 90c-24 0 -58 -8 -81 -19l-7 -40l1 -43l-75 -3l-15 169c60 15 139 27 183 27c132 0 209 -66 209 -180v-130c0 -50 9 -116 9 -116l60 -6l-6 -76
s-49 5 -184 5zM302 228l-74 -12c-37 -7 -52 -25 -52 -62c0 -41 17 -61 54 -61c35 0 62 24 72 64v71zM228 748c47 0 94 -26 94 -74c0 -52 -65 -58 -65 -82c0 -12 6 -26 6 -26c-5 -5 -17 -7 -28 -7c-27 0 -45 15 -45 38v4c0 34 49 40 49 68c0 16 -11 23 -25 23
c-18 0 -42 -11 -42 -11l-16 49c12 6 37 18 72 18z" />
    <glyph glyph-name="amacron" unicode="&#x101;" 
d="M321 0l-8 72c-31 -56 -75 -82 -138 -82c-91 0 -147 54 -147 142c0 78 44 124 132 138l142 23v29c0 65 -21 90 -75 90c-24 0 -58 -8 -81 -19l-7 -40l1 -43l-75 -3l-15 169c60 15 139 27 183 27c132 0 209 -66 209 -180v-130c0 -50 9 -116 9 -116l60 -6l-6 -76
s-49 5 -184 5zM302 228l-74 -12c-37 -7 -52 -25 -52 -62c0 -41 17 -61 54 -61c35 0 62 24 72 64v71zM396 596h-315v73h322z" />
    <glyph glyph-name="aogonek" unicode="&#x105;" 
d="M321 0l-8 72c-31 -56 -75 -82 -138 -82c-91 0 -147 54 -147 142c0 78 44 124 132 138l142 23v29c0 65 -21 90 -75 90c-24 0 -58 -8 -81 -19l-7 -40l1 -43l-75 -3l-15 169c60 15 139 27 183 27c132 0 209 -66 209 -180v-130c0 -50 9 -116 9 -116l60 -6l-6 -76s-29 3 -97 5
c-37 -26 -55 -53 -55 -85c0 -26 15 -48 45 -48c10 0 21 2 34 7l18 -48c-18 -9 -54 -23 -95 -23c-64 0 -109 29 -109 89c0 52 38 83 75 108zM302 228l-74 -12c-37 -7 -52 -25 -52 -62c0 -41 17 -61 54 -61c35 0 62 24 72 64v71z" />
    <glyph glyph-name="atilde" unicode="&#xe3;" 
d="M321 0l-8 72c-31 -56 -75 -82 -138 -82c-91 0 -147 54 -147 142c0 78 44 124 132 138l142 23v29c0 65 -21 90 -75 90c-24 0 -58 -8 -81 -19l-7 -40l1 -43l-75 -3l-15 169c60 15 139 27 183 27c132 0 209 -66 209 -180v-130c0 -50 9 -116 9 -116l60 -6l-6 -76
s-49 5 -184 5zM302 228l-74 -12c-37 -7 -52 -25 -52 -62c0 -41 17 -61 54 -61c35 0 62 24 72 64v71zM373 723l49 -28s-45 -101 -88 -101s-122 38 -165 38c-24 0 -49 -42 -49 -42l-47 28s46 105 89 105c42 0 123 -38 165 -38c24 0 46 38 46 38z" />
    <glyph glyph-name="b" unicode="b" horiz-adv-x="573" 
d="M-9 691l9 75s75 -10 117 -10l88 2l21 -19s-10 -132 -10 -182v-124c34 43 76 70 142 70c138 0 190 -111 190 -249c0 -164 -87 -264 -251 -264c-64 0 -136 8 -231 36c0 0 10 117 10 137v424c0 20 -10 87 -10 87zM304 390c-62 0 -84 -59 -88 -130v-67c0 -30 2 -69 3 -95
c22 -7 45 -13 66 -13c88 0 104 68 104 156c0 74 -11 149 -85 149z" />
    <glyph glyph-name="c" unicode="c" horiz-adv-x="466" 
d="M270 503c88 0 177 -24 177 -24l-15 -177l-85 3l1 54c-1 13 -2 26 -4 39c-18 16 -44 26 -65 26c-65 0 -95 -56 -95 -179c0 -109 40 -163 120 -163c69 0 117 32 117 32l35 -58c-51 -45 -117 -71 -181 -71c-163 0 -250 91 -250 260c0 160 93 258 245 258z" />
    <glyph glyph-name="cacute" unicode="&#x107;" horiz-adv-x="466" 
d="M270 503c88 0 177 -24 177 -24l-15 -177l-85 3l1 54c-1 13 -2 26 -4 39c-18 16 -44 26 -65 26c-65 0 -95 -56 -95 -179c0 -109 40 -163 120 -163c69 0 117 32 117 32l35 -58c-51 -45 -117 -71 -181 -71c-163 0 -250 91 -250 260c0 160 93 258 245 258zM373 755l47 -76
s-122 -56 -140 -65l-67 -49l-47 58z" />
    <glyph glyph-name="ccaron" unicode="&#x10d;" horiz-adv-x="466" 
d="M270 503c88 0 177 -24 177 -24l-15 -177l-85 3l1 54c-1 13 -2 26 -4 39c-18 16 -44 26 -65 26c-65 0 -95 -56 -95 -179c0 -109 40 -163 120 -163c69 0 117 32 117 32l35 -58c-51 -45 -117 -71 -181 -71c-163 0 -250 91 -250 260c0 160 93 258 245 258zM127 765l67 -53
c10 -5 47 -28 79 -47c32 20 69 42 79 47l67 53l52 -58l-198 -143l-198 143z" />
    <glyph glyph-name="ccedilla" unicode="&#xe7;" horiz-adv-x="466" 
d="M270 503c88 0 177 -24 177 -24l-15 -177l-85 3l1 54c-1 13 -2 26 -4 39c-18 16 -44 26 -65 26c-65 0 -95 -56 -95 -179c0 -109 40 -163 120 -163c69 0 117 32 117 32l35 -58c-46 -41 -105 -66 -163 -70l-9 -45c59 -1 101 -33 101 -87c0 -63 -51 -89 -114 -89
c-37 0 -79 10 -96 18l18 49c16 -5 35 -11 55 -11c24 0 47 8 47 33s-18 31 -42 31c-6 0 -21 -1 -21 -1l-11 14l9 90c-134 15 -205 104 -205 257c0 160 93 258 245 258z" />
    <glyph glyph-name="cdotaccent" unicode="&#x10b;" horiz-adv-x="466" 
d="M270 503c88 0 177 -24 177 -24l-15 -177l-85 3l1 54c-1 13 -2 26 -4 39c-18 16 -44 26 -65 26c-65 0 -95 -56 -95 -179c0 -109 40 -163 120 -163c69 0 117 32 117 32l35 -58c-51 -45 -117 -71 -181 -71c-163 0 -250 91 -250 260c0 160 93 258 245 258zM273 735
c49 0 79 -30 79 -80c0 -47 -28 -79 -79 -79s-79 32 -79 79s28 80 79 80z" />
    <glyph glyph-name="d" unicode="d" horiz-adv-x="588" 
d="M565 71l-6 -76s-49 5 -184 5l-8 75c-42 -60 -88 -85 -153 -85c-122 0 -190 90 -190 249c0 168 91 264 251 264c24 0 52 -2 81 -5v89c0 20 -10 87 -10 87l-75 17l9 75s75 -10 117 -10l88 2l21 -19s-10 -132 -10 -182v-364c0 -50 9 -116 9 -116zM356 233v162
c-28 9 -51 13 -69 13c-73 0 -104 -46 -104 -156c0 -102 27 -149 85 -149c53 0 83 44 88 130z" />
    <glyph glyph-name="dcaron" unicode="&#x10f;" horiz-adv-x="665" 
d="M557 756h99l-13 -244l-78 5l1 93c-1 19 -9 146 -9 146zM565 71l-6 -76s-49 5 -184 5l-8 75c-42 -60 -88 -85 -153 -85c-122 0 -190 90 -190 249c0 168 91 264 251 264c24 0 52 -2 81 -5v89c0 20 -10 87 -10 87l-75 17l9 75s75 -10 117 -10l88 2l21 -19s-10 -132 -10 -182
v-364c0 -50 9 -116 9 -116zM356 233v162c-28 9 -51 13 -69 13c-73 0 -104 -46 -104 -156c0 -102 27 -149 85 -149c53 0 83 44 88 130z" />
    <glyph glyph-name="dcroat" unicode="&#x111;" horiz-adv-x="588" 
d="M565 71l-6 -76s-49 5 -184 5l-8 75c-42 -60 -88 -85 -153 -85c-122 0 -190 90 -190 249c0 168 91 264 251 264c24 0 52 -2 81 -5v59h-108v64h105c-3 25 -7 53 -7 53l-75 17l9 75s75 -10 117 -10l88 2l21 -19s-5 -63 -8 -118h91v-64h-93v-364c0 -50 9 -116 9 -116z
M356 233v162c-28 9 -51 13 -69 13c-73 0 -104 -46 -104 -156c0 -102 27 -149 85 -149c53 0 83 44 88 130z" />
    <glyph glyph-name="dotlessi" unicode="&#x131;" horiz-adv-x="336" 
d="M319 71l-5 -76s-66 5 -179 5c-47 0 -100 -5 -100 -5l-5 70l66 12s9 66 9 86v162c0 20 -10 87 -10 87l-75 17l9 74s75 -9 117 -9l88 2l21 -19s-10 -132 -10 -182v-102c0 -50 9 -116 9 -116z" />
    <glyph glyph-name="dotlessj" unicode="&#x237;" horiz-adv-x="309" 
d="M14 429l9 74s75 -9 117 -9l88 2l21 -19s-10 -132 -10 -182v-305c0 -40 -168 -225 -168 -225l-47 26s75 190 75 230v304c0 20 -10 87 -10 87z" />
    <glyph glyph-name="e" unicode="e" horiz-adv-x="498" 
d="M266 503c142 0 218 -91 209 -243l-21 -39h-269c7 -103 46 -140 125 -140c73 0 121 33 121 33l35 -58c-52 -47 -118 -71 -196 -71c-153 0 -245 94 -245 257c0 168 97 261 241 261zM255 424c-52 0 -67 -54 -71 -130l133 8s1 6 1 8c0 76 -20 114 -63 114z" />
    <glyph glyph-name="eacute" unicode="&#xe9;" horiz-adv-x="501" 
d="M266 503c142 0 218 -91 209 -243l-21 -39h-269c7 -103 46 -140 125 -140c73 0 121 33 121 33l35 -58c-52 -47 -118 -71 -196 -71c-153 0 -245 94 -245 257c0 168 97 261 241 261zM361 755l47 -76s-122 -56 -140 -65l-67 -49l-47 58zM255 424c-52 0 -67 -54 -71 -130
l133 8s1 6 1 8c0 76 -20 114 -63 114z" />
    <glyph glyph-name="ecaron" unicode="&#x11b;" horiz-adv-x="501" 
d="M266 503c142 0 218 -91 209 -243l-21 -39h-269c7 -103 46 -140 125 -140c73 0 121 33 121 33l35 -58c-52 -47 -118 -71 -196 -71c-153 0 -245 94 -245 257c0 168 97 261 241 261zM115 765l67 -53c10 -5 47 -28 79 -47c32 20 69 42 79 47l67 53l52 -58l-198 -143l-198 143
zM255 424c-52 0 -67 -54 -71 -130l133 8s1 6 1 8c0 76 -20 114 -63 114z" />
    <glyph glyph-name="ecircumflex" unicode="&#xea;" horiz-adv-x="501" 
d="M266 503c142 0 218 -91 209 -243l-21 -39h-269c7 -103 46 -140 125 -140c73 0 121 33 121 33l35 -58c-52 -47 -118 -71 -196 -71c-153 0 -245 94 -245 257c0 168 97 261 241 261zM261 765l198 -143l-47 -58l-67 53c-10 5 -51 26 -84 44l-84 -44l-67 -53l-47 58zM255 424
c-52 0 -67 -54 -71 -130l133 8s1 6 1 8c0 76 -20 114 -63 114z" />
    <glyph glyph-name="ecircumflexacute" unicode="&#x1ebf;" horiz-adv-x="501" 
d="M266 503c142 0 218 -91 209 -243l-21 -39h-269c7 -103 46 -140 125 -140c73 0 121 33 121 33l35 -58c-52 -47 -118 -71 -196 -71c-153 0 -245 94 -245 257c0 168 97 261 241 261zM265 717l151 -141l-49 -39l-63 49l-39 28l-39 -28l-63 -49l-49 39zM255 424
c-52 0 -67 -54 -71 -130l133 8s1 6 1 8c0 76 -20 114 -63 114zM460 797l55 -52s-70 -61 -76 -67l-40 -44l-50 40z" />
    <glyph glyph-name="ecircumflexdotbelow" unicode="&#x1ec7;" horiz-adv-x="501" 
d="M266 503c142 0 218 -91 209 -243l-21 -39h-269c7 -103 46 -140 125 -140c73 0 121 33 121 33l35 -58c-52 -47 -118 -71 -196 -71c-153 0 -245 94 -245 257c0 168 97 261 241 261zM261 765l198 -143l-47 -58l-67 53c-10 5 -51 26 -84 44l-84 -44l-67 -53l-47 58zM273 -65
c48 0 77 -29 77 -78c0 -46 -27 -77 -77 -77s-77 31 -77 77s27 78 77 78zM255 424c-52 0 -67 -54 -71 -130l133 8s1 6 1 8c0 76 -20 114 -63 114z" />
    <glyph glyph-name="ecircumflexgrave" unicode="&#x1ec1;" horiz-adv-x="501" 
d="M266 503c142 0 218 -91 209 -243l-21 -39h-269c7 -103 46 -140 125 -140c73 0 121 33 121 33l35 -58c-52 -47 -118 -71 -196 -71c-153 0 -245 94 -245 257c0 168 97 261 241 261zM263 717l151 -141l-49 -39l-63 49l-39 28l-39 -28l-63 -49l-49 39zM255 424
c-52 0 -67 -54 -71 -130l133 8s1 6 1 8c0 76 -20 114 -63 114zM459 674l-50 -40l-40 44c-6 6 -76 67 -76 67l55 52z" />
    <glyph glyph-name="ecircumflexhookabove" unicode="&#x1ec3;" horiz-adv-x="501" 
d="M266 503c142 0 218 -91 209 -243l-21 -39h-269c7 -103 46 -140 125 -140c73 0 121 33 121 33l35 -58c-52 -47 -118 -71 -196 -71c-153 0 -245 94 -245 257c0 168 97 261 241 261zM263 717l151 -141l-49 -39l-63 49l-39 28l-39 -28l-63 -49l-49 39zM255 424
c-52 0 -67 -54 -71 -130l133 8s1 6 1 8c0 76 -20 114 -63 114zM426 770c39 0 71 -20 71 -57c0 -44 -54 -49 -54 -69c0 -8 5 -18 5 -18c-6 -4 -22 -5 -30 -5c-20 0 -34 11 -34 28v4c0 31 41 33 41 58c0 9 -8 14 -18 14c-15 0 -36 -9 -36 -9l-15 42c18 6 29 12 70 12z" />
    <glyph glyph-name="ecircumflextilde" unicode="&#x1ec5;" horiz-adv-x="501" 
d="M266 503c142 0 218 -91 209 -243l-21 -39h-269c7 -103 46 -140 125 -140c73 0 121 33 121 33l35 -58c-52 -47 -118 -71 -196 -71c-153 0 -245 94 -245 257c0 168 97 261 241 261zM261 665l163 -87l-29 -52l-63 30c-8 3 -45 14 -71 21c-26 -7 -63 -18 -71 -21l-63 -30
l-29 52zM367 771l31 -26s-41 -67 -76 -67c-36 0 -82 25 -119 25c-24 0 -55 -24 -55 -24l-33 27s41 65 77 65s83 -24 119 -24c24 0 56 24 56 24zM255 424c-52 0 -67 -54 -71 -130l133 8s1 6 1 8c0 76 -20 114 -63 114z" />
    <glyph glyph-name="edieresis" unicode="&#xeb;" horiz-adv-x="501" 
d="M266 503c142 0 218 -91 209 -243l-21 -39h-269c7 -103 46 -140 125 -140c73 0 121 33 121 33l35 -58c-52 -47 -118 -71 -196 -71c-153 0 -245 94 -245 257c0 168 97 261 241 261zM143 725c42 0 67 -26 67 -70c0 -41 -23 -69 -67 -69s-68 28 -68 69s24 70 68 70zM380 725
c42 0 67 -26 67 -70c0 -41 -23 -69 -67 -69s-67 28 -67 69s23 70 67 70zM255 424c-52 0 -67 -54 -71 -130l133 8s1 6 1 8c0 76 -20 114 -63 114z" />
    <glyph glyph-name="edotaccent" unicode="&#x117;" horiz-adv-x="501" 
d="M266 503c142 0 218 -91 209 -243l-21 -39h-269c7 -103 46 -140 125 -140c73 0 121 33 121 33l35 -58c-52 -47 -118 -71 -196 -71c-153 0 -245 94 -245 257c0 168 97 261 241 261zM261 735c49 0 79 -30 79 -80c0 -47 -28 -79 -79 -79s-79 32 -79 79s28 80 79 80zM255 424
c-52 0 -67 -54 -71 -130l133 8s1 6 1 8c0 76 -20 114 -63 114z" />
    <glyph glyph-name="edotbelow" unicode="&#x1eb9;" horiz-adv-x="501" 
d="M266 503c142 0 218 -91 209 -243l-21 -39h-269c7 -103 46 -140 125 -140c73 0 121 33 121 33l35 -58c-52 -47 -118 -71 -196 -71c-153 0 -245 94 -245 257c0 168 97 261 241 261zM273 -65c48 0 77 -29 77 -78c0 -46 -27 -77 -77 -77s-77 31 -77 77s27 78 77 78zM255 424
c-52 0 -67 -54 -71 -130l133 8s1 6 1 8c0 76 -20 114 -63 114z" />
    <glyph glyph-name="egrave" unicode="&#xe8;" horiz-adv-x="501" 
d="M266 503c142 0 218 -91 209 -243l-21 -39h-269c7 -103 46 -140 125 -140c73 0 121 33 121 33l35 -58c-52 -47 -118 -71 -196 -71c-153 0 -245 94 -245 257c0 168 97 261 241 261zM368 623l-47 -58l-67 49c-18 9 -140 65 -140 65l47 76zM255 424c-52 0 -67 -54 -71 -130
l133 8s1 6 1 8c0 76 -20 114 -63 114z" />
    <glyph glyph-name="ehookabove" unicode="&#x1ebb;" horiz-adv-x="501" 
d="M266 503c142 0 218 -91 209 -243l-21 -39h-269c7 -103 46 -140 125 -140c73 0 121 33 121 33l35 -58c-52 -47 -118 -71 -196 -71c-153 0 -245 94 -245 257c0 168 97 261 241 261zM251 748c47 0 94 -26 94 -74c0 -52 -65 -58 -65 -82c0 -12 6 -26 6 -26
c-5 -5 -17 -7 -28 -7c-27 0 -45 15 -45 38v4c0 34 49 40 49 68c0 16 -11 23 -25 23c-18 0 -42 -11 -42 -11l-16 49c12 6 37 18 72 18zM255 424c-52 0 -67 -54 -71 -130l133 8s1 6 1 8c0 76 -20 114 -63 114z" />
    <glyph glyph-name="emacron" unicode="&#x113;" horiz-adv-x="501" 
d="M266 503c142 0 218 -91 209 -243l-21 -39h-269c7 -103 46 -140 125 -140c73 0 121 33 121 33l35 -58c-52 -47 -118 -71 -196 -71c-153 0 -245 94 -245 257c0 168 97 261 241 261zM415 596h-315v73h322zM255 424c-52 0 -67 -54 -71 -130l133 8s1 6 1 8
c0 76 -20 114 -63 114z" />
    <glyph glyph-name="eng" unicode="&#x14b;" horiz-adv-x="619" 
d="M212 477l10 -71c40 58 90 97 166 97c105 0 163 -62 163 -178v-335c0 -40 -168 -225 -168 -225l-47 26s75 190 75 230v290c0 52 -22 92 -70 92c-50 0 -99 -48 -99 -138v-72c0 -50 9 -116 9 -116l65 -6l-5 -76s-66 5 -179 5c-47 0 -100 -5 -100 -5l-5 70l66 12s9 66 9 86
v162c0 20 -10 87 -10 87l-75 17l9 74s75 -9 117 -9l48 2z" />
    <glyph glyph-name="eogonek" unicode="&#x119;" horiz-adv-x="501" 
d="M266 503c142 0 218 -91 209 -243l-21 -39h-269c7 -103 46 -140 125 -140c73 0 121 33 121 33l35 -58c-45 -35 -107 -86 -107 -141c0 -26 15 -48 45 -48c10 0 21 2 34 7l18 -48c-18 -9 -54 -23 -95 -23c-64 0 -109 29 -109 89c0 43 26 72 56 95c-13 -1 -26 -2 -38 -2
c-153 0 -245 94 -245 257c0 168 97 261 241 261zM255 424c-52 0 -67 -54 -71 -130l133 8s1 6 1 8c0 76 -20 114 -63 114z" />
    <glyph glyph-name="eth" unicode="&#xf0;" horiz-adv-x="516" 
d="M473 687l-90 -46c89 -99 138 -237 138 -389c0 -162 -91 -267 -253 -267c-160 0 -247 98 -247 258c0 144 87 240 217 240c39 0 69 -13 82 -23l-12 -70c-8 2 -22 6 -40 6c-75 0 -87 -85 -87 -160s12 -159 87 -159s94 95 94 202c0 106 -13 221 -72 314l-104 -53l-32 55
l95 50c-23 25 -52 47 -87 66l25 59c55 -18 104 -46 147 -82l107 56z" />
    <glyph glyph-name="f" unicode="f" horiz-adv-x="361" 
d="M281 770c69 0 147 -14 147 -14l-15 -167l-74 3v45c0 9 -2 29 -4 44c-9 4 -22 8 -37 8c-50 0 -58 -39 -58 -119v-76h111l-9 -75h-102v-226c0 -50 9 -116 9 -116l85 -6l-5 -76s-76 5 -189 5c-47 0 -100 -5 -100 -5l-5 70l56 12s9 66 9 86v256h-57l-3 63c24 8 43 12 60 19
v79c0 110 71 190 181 190z" />
    <glyph glyph-name="g" unicode="g" horiz-adv-x="524" 
d="M505 418h-59c18 -27 26 -53 26 -94c0 -110 -86 -183 -215 -183c-25 0 -48 3 -68 8c-10 -12 -14 -21 -14 -27c0 -22 23 -32 83 -38c137 -15 180 -21 205 -30c34 -13 52 -44 52 -93c0 -110 -118 -196 -268 -196c-146 0 -220 49 -220 143c0 22 38 57 92 88
c-30 21 -43 49 -43 92c0 14 20 40 61 80c-57 30 -91 84 -91 152c0 110 86 183 215 183c41 0 78 -7 109 -21l131 22zM178 -28c-12 -16 -18 -34 -18 -48c0 -51 46 -79 131 -79c63 0 102 24 102 63c0 18 -12 31 -33 34l-130 20c-20 3 -37 6 -52 10zM261 437
c-42 0 -63 -38 -63 -119c0 -75 20 -111 60 -111c42 0 62 38 62 119c0 75 -19 111 -59 111z" />
    <glyph glyph-name="gbreve" unicode="&#x11f;" horiz-adv-x="524" 
d="M505 418h-59c18 -27 26 -53 26 -94c0 -110 -86 -183 -215 -183c-25 0 -48 3 -68 8c-10 -12 -14 -21 -14 -27c0 -22 23 -32 83 -38c137 -15 180 -21 205 -30c34 -13 52 -44 52 -93c0 -110 -118 -196 -268 -196c-146 0 -220 49 -220 143c0 22 38 57 92 88
c-30 21 -43 49 -43 92c0 14 20 40 61 80c-57 30 -91 84 -91 152c0 110 86 183 215 183c41 0 78 -7 109 -21l131 22zM178 -28c-12 -16 -18 -34 -18 -48c0 -51 46 -79 131 -79c63 0 102 24 102 63c0 18 -12 31 -33 34l-130 20c-20 3 -37 6 -52 10zM261 437
c-42 0 -63 -38 -63 -119c0 -75 20 -111 60 -111c42 0 62 38 62 119c0 75 -19 111 -59 111zM350 727h66c0 -100 -61 -155 -154 -155s-154 55 -154 155h66c0 -50 38 -79 88 -79s88 29 88 79z" />
    <glyph glyph-name="gcommaaccent" unicode="&#x123;" horiz-adv-x="524" 
d="M505 418h-59c18 -27 26 -53 26 -94c0 -110 -86 -183 -215 -183c-25 0 -48 3 -68 8c-10 -12 -14 -21 -14 -27c0 -22 23 -32 83 -38c137 -15 180 -21 205 -30c34 -13 52 -44 52 -93c0 -110 -118 -196 -268 -196c-146 0 -220 49 -220 143c0 22 38 57 92 88
c-30 21 -43 49 -43 92c0 14 20 40 61 80c-57 30 -91 84 -91 152c0 110 86 183 215 183c41 0 78 -7 109 -21l131 22zM261 437c-42 0 -63 -38 -63 -119c0 -75 20 -111 60 -111c42 0 62 38 62 119c0 75 -19 111 -59 111zM178 -28c-12 -16 -18 -34 -18 -48c0 -51 46 -79 131 -79
c63 0 102 24 102 63c0 18 -12 31 -33 34l-130 20c-20 3 -37 6 -52 10zM327 626c0 -46 -33 -68 -64 -68c-42 0 -66 28 -66 76c0 57 61 140 61 140l46 -12s-18 -55 -18 -82c12 -4 41 -19 41 -54z" />
    <glyph glyph-name="gdotaccent" unicode="&#x121;" horiz-adv-x="524" 
d="M505 418h-59c18 -27 26 -53 26 -94c0 -110 -86 -183 -215 -183c-25 0 -48 3 -68 8c-10 -12 -14 -21 -14 -27c0 -22 23 -32 83 -38c137 -15 180 -21 205 -30c34 -13 52 -44 52 -93c0 -110 -118 -196 -268 -196c-146 0 -220 49 -220 143c0 22 38 57 92 88
c-30 21 -43 49 -43 92c0 14 20 40 61 80c-57 30 -91 84 -91 152c0 110 86 183 215 183c41 0 78 -7 109 -21l131 22zM178 -28c-12 -16 -18 -34 -18 -48c0 -51 46 -79 131 -79c63 0 102 24 102 63c0 18 -12 31 -33 34l-130 20c-20 3 -37 6 -52 10zM261 437
c-42 0 -63 -38 -63 -119c0 -75 20 -111 60 -111c42 0 62 38 62 119c0 75 -19 111 -59 111zM262 735c49 0 79 -30 79 -80c0 -47 -28 -79 -79 -79s-79 32 -79 79s28 80 79 80z" />
    <glyph glyph-name="germandbls" unicode="&#xdf;" horiz-adv-x="620" 
d="M35 65l56 12c2 16 9 66 9 86v256h-57l-3 63c24 8 43 12 60 19v79c1 138 93 190 232 190c120 0 215 -37 215 -157c0 -141 -141 -168 -141 -238c0 -74 204 -60 204 -224c0 -102 -66 -161 -168 -161c-64 0 -154 23 -154 23l12 165l70 -5v-45c0 -5 6 -38 6 -38
c19 -11 44 -22 65 -22c25 0 46 16 46 44c0 98 -197 76 -197 237c0 135 144 145 144 260c0 55 -47 77 -102 77c-80 0 -92 -53 -92 -140v-353c0 -50 9 -183 9 -193h-78c-72 0 -131 -5 -131 -5z" />
    <glyph glyph-name="h" unicode="h" horiz-adv-x="631" 
d="M12 691l9 75s75 -10 117 -10l88 2l21 -19c-4 -43 -10 -132 -10 -182v-122c34 42 77 68 136 68c116 0 177 -62 177 -178v-132c0 -50 9 -116 9 -116l65 -6l-5 -76s-66 5 -179 5c-47 0 -86 -5 -86 -5l-5 70l56 12c2 36 5 76 5 86v148c0 52 -22 92 -74 92
c-50 0 -99 -48 -99 -138v-72c0 -50 9 -116 9 -116l65 -6l-5 -76s-66 5 -179 5c-47 0 -100 -5 -100 -5l-5 70l66 12c2 11 9 66 9 86v424c0 20 -10 87 -10 87z" />
    <glyph glyph-name="hbar" unicode="&#x127;" horiz-adv-x="631" 
d="M12 691l9 75s75 -10 117 -10l88 2l21 -19c-3 -28 -6 -75 -8 -118h108v-64h-110v-122c34 42 77 68 136 68c116 0 177 -62 177 -178v-132c0 -50 9 -116 9 -116l65 -6l-5 -76s-66 5 -179 5c-47 0 -86 -5 -86 -5l-5 70l56 12c2 36 5 76 5 86v148c0 52 -22 92 -74 92
c-50 0 -99 -48 -99 -138v-72c0 -50 9 -116 9 -116l65 -6l-5 -76s-66 5 -179 5c-47 0 -100 -5 -100 -5l-5 70l66 12c2 11 9 66 9 86v394h-91v64h88c-3 25 -7 53 -7 53z" />
    <glyph glyph-name="i" unicode="i" horiz-adv-x="332" 
d="M316 71l-5 -76s-66 5 -179 5c-47 0 -100 -5 -100 -5l-5 70l66 12s9 66 9 86v162c0 20 -10 87 -10 87l-75 17l9 74s75 -9 117 -9l88 2l21 -19s-10 -132 -10 -182v-102c0 -50 9 -116 9 -116zM169 735c49 0 79 -30 79 -80c0 -47 -28 -79 -79 -79s-79 32 -79 79s28 80 79 80z
" />
    <glyph glyph-name="iacute" unicode="&#xed;" horiz-adv-x="336" 
d="M319 71l-5 -76s-66 5 -179 5c-47 0 -100 -5 -100 -5l-5 70l66 12s9 66 9 86v162c0 20 -10 87 -10 87l-75 17l9 74s75 -9 117 -9l88 2l21 -19s-10 -132 -10 -182v-102c0 -50 9 -116 9 -116zM268 755l47 -76s-122 -56 -140 -65l-67 -49l-47 58z" />
    <glyph glyph-name="icaron" unicode="&#x1d0;" horiz-adv-x="336" 
d="M319 71l-5 -76s-66 5 -179 5c-47 0 -100 -5 -100 -5l-5 70l66 12s9 66 9 86v162c0 20 -10 87 -10 87l-75 17l9 74s75 -9 117 -9l88 2l21 -19s-10 -132 -10 -182v-102c0 -50 9 -116 9 -116zM22 765l67 -53c10 -5 47 -28 79 -47c32 20 69 42 79 47l67 53l52 -58l-198 -143
l-198 143z" />
    <glyph glyph-name="icircumflex" unicode="&#xee;" horiz-adv-x="336" 
d="M329 71l-5 -76s-66 5 -179 5c-47 0 -100 -5 -100 -5l-5 70l66 12s9 66 9 86v162c0 20 -10 87 -10 87l-75 17l9 74s75 -9 117 -9l88 2l21 -19s-10 -132 -10 -182v-102c0 -50 9 -116 9 -116zM168 765l198 -143l-47 -58l-67 53c-10 5 -51 26 -84 44l-84 -44l-67 -53l-47 58z
" />
    <glyph glyph-name="idotbelow" unicode="&#x1ecb;" horiz-adv-x="332" 
d="M316 71l-5 -76s-66 5 -179 5c-47 0 -100 -5 -100 -5l-5 70l66 12s9 66 9 86v162c0 20 -10 87 -10 87l-75 17l9 74s75 -9 117 -9l88 2l21 -19s-10 -132 -10 -182v-102c0 -50 9 -116 9 -116zM169 735c49 0 79 -30 79 -80c0 -47 -28 -79 -79 -79s-79 32 -79 79s28 80 79 80z
M180 -65c48 0 77 -29 77 -78c0 -46 -27 -77 -77 -77s-77 31 -77 77s27 78 77 78z" />
    <glyph glyph-name="igrave" unicode="&#xec;" horiz-adv-x="336" 
d="M319 71l-5 -76s-66 5 -179 5c-47 0 -100 -5 -100 -5l-5 70l66 12s9 66 9 86v162c0 20 -10 87 -10 87l-75 17l9 74s75 -9 117 -9l88 2l21 -19s-10 -132 -10 -182v-102c0 -50 9 -116 9 -116zM275 623l-47 -58l-67 49c-18 9 -140 65 -140 65l47 76z" />
    <glyph glyph-name="ihookabove" unicode="&#x1ec9;" horiz-adv-x="336" 
d="M319 71l-5 -76s-66 5 -179 5c-47 0 -100 -5 -100 -5l-5 70l66 12s9 66 9 86v162c0 20 -10 87 -10 87l-75 17l9 74s75 -9 117 -9l88 2l21 -19s-10 -132 -10 -182v-102c0 -50 9 -116 9 -116zM159 748c47 0 94 -26 94 -74c0 -52 -65 -58 -65 -82c0 -12 6 -26 6 -26
c-5 -5 -17 -7 -28 -7c-27 0 -45 15 -45 38v4c0 34 49 40 49 68c0 16 -11 23 -25 23c-18 0 -42 -11 -42 -11l-16 49c12 6 37 18 72 18z" />
    <glyph glyph-name="ij" unicode="&#x133;" horiz-adv-x="589" 
d="M318 429l9 74s75 -9 117 -9l88 2l21 -19s-10 -132 -10 -182v-305c0 -40 -168 -225 -168 -225l-47 26s85 190 85 230l-5 48c-35 -45 -79 -73 -140 -73c-116 0 -177 62 -177 178v151c0 20 -10 90 -10 90l-55 14l9 74s70 -9 112 -9l73 2l21 -19s-10 -132 -10 -182v-107
c0 -52 22 -92 74 -92c46 0 91 40 98 116v113c0 20 -10 87 -10 87zM153 735c49 0 79 -30 79 -80c0 -47 -28 -79 -79 -79s-79 32 -79 79s28 80 79 80zM464 735c49 0 79 -30 79 -80c0 -47 -28 -79 -79 -79s-79 32 -79 79s28 80 79 80z" />
    <glyph glyph-name="imacron" unicode="&#x12b;" horiz-adv-x="336" 
d="M307 71l-5 -76s-66 5 -179 5c-47 0 -100 -5 -100 -5l-5 70l66 12s9 66 9 86v162c0 20 -10 87 -10 87l-75 17l9 74s75 -9 117 -9l88 2l21 -19s-10 -132 -10 -182v-102c0 -50 9 -116 9 -116zM290 596h-273v73h278z" />
    <glyph glyph-name="iogonek" unicode="&#x12f;" horiz-adv-x="336" 
d="M105 163v162c0 20 -10 87 -10 87l-75 17l9 74s75 -9 117 -9l88 2l21 -19s-10 -132 -10 -182v-102c0 -50 9 -116 9 -116l65 -6l-5 -76s-44 5 -132 5c-46 -8 -70 -50 -70 -85c0 -26 14 -48 42 -48c10 0 20 2 32 7l18 -48c-18 -9 -53 -23 -93 -23c-62 0 -106 29 -106 89
c0 91 100 87 100 271zM168 735c49 0 79 -30 79 -80c0 -47 -28 -79 -79 -79s-79 32 -79 79s28 80 79 80z" />
    <glyph glyph-name="j" unicode="j" horiz-adv-x="308" 
d="M5 429l9 74s75 -9 117 -9l88 2l21 -19s-10 -132 -10 -182v-305c0 -40 -168 -225 -168 -225l-47 26s75 190 75 230v304c0 20 -10 87 -10 87zM151 735c49 0 79 -30 79 -80c0 -47 -28 -79 -79 -79s-79 32 -79 79s28 80 79 80z" />
    <glyph glyph-name="k" unicode="k" horiz-adv-x="611" 
d="M12 691l9 75s75 -10 117 -10l88 2l21 -19c-4 -43 -10 -132 -10 -182v-364c0 -50 9 -116 9 -116l65 -6l-5 -76s-66 5 -179 5c-47 0 -100 -5 -100 -5l-5 70l66 12c2 11 9 66 9 86v424c0 20 -10 87 -10 87zM373 422l-54 6l5 71s89 -5 159 -5c40 0 116 4 116 4l-2 -70l-53 -5
c-31 -18 -69 -40 -82 -57l-67 -86l75 -118c7 -11 48 -52 79 -85l60 -6l-6 -76s-55 5 -113 5h-98l-29 60l-4 8l-22 42l-89 155z" />
    <glyph glyph-name="kcommaaccent" unicode="&#x137;" horiz-adv-x="611" 
d="M12 691l9 75s75 -10 117 -10l88 2l21 -19c-4 -43 -10 -132 -10 -182v-364c0 -50 9 -116 9 -116l65 -6l-5 -76s-66 5 -179 5c-47 0 -100 -5 -100 -5l-5 70l66 12c2 11 9 66 9 86v424c0 20 -10 87 -10 87zM373 422l-54 6l5 71s89 -5 159 -5c40 0 116 4 116 4l-2 -70l-53 -5
c-31 -18 -69 -40 -82 -57l-67 -86l75 -118c7 -11 48 -52 79 -85l60 -6l-6 -76s-55 5 -113 5h-98l-29 60l-4 8l-22 42l-89 155zM285 -126c0 46 33 68 64 68c42 0 66 -28 66 -76c0 -57 -61 -140 -61 -140l-46 12s18 55 18 82c-12 4 -41 19 -41 54z" />
    <glyph glyph-name="kgreenlandic" unicode="&#x138;" horiz-adv-x="575" 
d="M350 422l-54 6l5 71s89 -5 159 -5c40 0 116 4 116 4l-2 -70l-53 -5c-31 -18 -69 -40 -82 -57l-67 -86l75 -118c7 -11 48 -52 79 -85l60 -6l-6 -76s-55 5 -113 5h-98l-29 60l-4 8l-22 42l-89 155zM287 71l-5 -76s-66 5 -179 5c-47 0 -100 -5 -100 -5l-5 70l66 12
s9 66 9 86v162c0 20 -10 87 -10 87l-75 17l9 74s75 -9 117 -9l88 2l21 -19s-10 -132 -10 -182v-102c0 -50 9 -116 9 -116z" />
    <glyph glyph-name="l" unicode="l" horiz-adv-x="329" 
d="M12 691l9 75s75 -10 117 -10l88 2l21 -19c-4 -43 -10 -132 -10 -182v-364c0 -50 9 -116 9 -116l65 -6l-5 -76s-66 5 -179 5c-47 0 -100 -5 -100 -5l-5 70l66 12c2 11 9 66 9 86v424c0 20 -10 87 -10 87z" />
    <glyph glyph-name="lacute" unicode="&#x13a;" horiz-adv-x="329" 
d="M12 691l9 75s75 -10 117 -10l88 2l21 -19c-4 -43 -10 -132 -10 -182v-364c0 -50 9 -116 9 -116l65 -6l-5 -76s-66 5 -179 5c-47 0 -100 -5 -100 -5l-5 70l66 12c2 11 9 66 9 86v424c0 20 -10 87 -10 87zM280 959l36 -84s-143 -40 -162 -46l-74 -38l-37 64z" />
    <glyph glyph-name="lcaron" unicode="&#x13e;" horiz-adv-x="402" 
d="M294 756h99l-13 -244l-78 5l1 93c-1 19 -9 146 -9 146zM12 691l9 75s75 -10 117 -10l88 2l21 -19c-4 -43 -10 -132 -10 -182v-364c0 -50 9 -116 9 -116l65 -6l-5 -76s-66 5 -179 5c-47 0 -100 -5 -100 -5l-5 70l66 12c2 11 9 66 9 86v424c0 20 -10 87 -10 87z" />
    <glyph glyph-name="lcommaaccent" unicode="&#x13c;" horiz-adv-x="329" 
d="M12 691l9 75s75 -10 117 -10l88 2l21 -19c-4 -43 -10 -132 -10 -182v-364c0 -50 9 -116 9 -116l65 -6l-5 -76s-66 5 -179 5c-47 0 -100 -5 -100 -5l-5 70l66 12c2 11 9 66 9 86v424c0 20 -10 87 -10 87zM110 -126c0 46 33 68 64 68c42 0 66 -28 66 -76
c0 -57 -61 -140 -61 -140l-46 12s18 55 18 82c-12 4 -41 19 -41 54z" />
    <glyph glyph-name="ldot" unicode="&#x140;" horiz-adv-x="474" 
d="M12 691l9 75s75 -10 117 -10l88 2l21 -19c-4 -43 -10 -132 -10 -182v-364c0 -50 9 -116 9 -116l65 -6l-5 -76s-66 5 -179 5c-47 0 -100 -5 -100 -5l-5 70l66 12c2 11 9 66 9 86v424c0 20 -10 87 -10 87zM375 384c49 0 79 -32 79 -85c0 -50 -29 -84 -79 -84s-79 34 -79 84
s29 85 79 85z" />
    <glyph glyph-name="lslash" unicode="&#x142;" horiz-adv-x="329" 
d="M12 691l9 75s75 -10 117 -10l88 2l21 -19c-4 -43 -10 -132 -10 -182v-89l70 26l22 -60l-92 -34v-207c0 -50 9 -116 9 -116l65 -6l-5 -76s-66 5 -179 5c-47 0 -100 -5 -100 -5l-5 70l66 12c2 11 9 66 9 86v186l-76 -27l-22 60l98 35v170c0 20 -10 87 -10 87z" />
    <glyph glyph-name="m" unicode="m" horiz-adv-x="917" 
d="M380 503c72 0 121 -31 144 -88c37 53 85 88 153 88c104 0 159 -62 159 -178v-132c0 -50 9 -116 9 -116l65 -6l-5 -76s-66 5 -179 5c-47 0 -86 -5 -86 -5l-5 70l56 12c2 36 5 76 5 86v148c0 52 -19 92 -66 92c-46 0 -91 -48 -91 -138v-72c0 -50 9 -116 9 -116l65 -6
l-5 -76s-66 5 -179 5c-47 0 -86 -5 -86 -5l-5 70l56 12c2 36 5 76 5 86v148c0 52 -19 92 -66 92c-46 0 -91 -48 -91 -138v-72c0 -50 9 -116 9 -116l65 -6l-5 -76s-66 5 -179 5c-47 0 -100 -5 -100 -5l-5 70l66 12s9 66 9 86v162c0 20 -10 87 -10 87l-75 17l9 74
s75 -9 117 -9l48 2l21 -19l10 -70c38 57 86 96 158 96z" />
    <glyph glyph-name="n" unicode="n" horiz-adv-x="636" 
d="M17 429l9 74s75 -9 117 -9l48 2l21 -19l10 -72c40 59 90 98 166 98c109 0 167 -62 167 -178v-132c0 -50 9 -116 9 -116l65 -6l-5 -76s-66 5 -179 5c-47 0 -86 -5 -86 -5l-5 70l56 12c2 36 5 76 5 86v148c0 52 -22 92 -74 92c-50 0 -99 -48 -99 -138v-72
c0 -50 9 -116 9 -116l65 -6l-5 -76s-66 5 -179 5c-47 0 -100 -5 -100 -5l-5 70l66 12s9 66 9 86v162c0 20 -10 87 -10 87z" />
    <glyph glyph-name="nacute" unicode="&#x144;" horiz-adv-x="636" 
d="M17 429l9 74s75 -9 117 -9l48 2l21 -19l10 -72c40 59 90 98 166 98c109 0 167 -62 167 -178v-132c0 -50 9 -116 9 -116l65 -6l-5 -76s-66 5 -179 5c-47 0 -86 -5 -86 -5l-5 70l56 12c2 36 5 76 5 86v148c0 52 -22 92 -74 92c-50 0 -99 -48 -99 -138v-72
c0 -50 9 -116 9 -116l65 -6l-5 -76s-66 5 -179 5c-47 0 -100 -5 -100 -5l-5 70l66 12s9 66 9 86v162c0 20 -10 87 -10 87zM448 755l47 -76s-122 -56 -140 -65l-67 -49l-47 58z" />
    <glyph glyph-name="ncaron" unicode="&#x148;" horiz-adv-x="636" 
d="M17 429l9 74s75 -9 117 -9l48 2l21 -19l10 -72c40 59 90 98 166 98c109 0 167 -62 167 -178v-132c0 -50 9 -116 9 -116l65 -6l-5 -76s-66 5 -179 5c-47 0 -86 -5 -86 -5l-5 70l56 12c2 36 5 76 5 86v148c0 52 -22 92 -74 92c-50 0 -99 -48 -99 -138v-72
c0 -50 9 -116 9 -116l65 -6l-5 -76s-66 5 -179 5c-47 0 -100 -5 -100 -5l-5 70l66 12s9 66 9 86v162c0 20 -10 87 -10 87zM202 765l67 -53c10 -5 47 -28 79 -47c32 20 69 42 79 47l67 53l52 -58l-198 -143l-198 143z" />
    <glyph glyph-name="ncommaaccent" unicode="&#x146;" horiz-adv-x="636" 
d="M17 429l9 74s75 -9 117 -9l48 2l21 -19l10 -72c40 59 90 98 166 98c109 0 167 -62 167 -178v-132c0 -50 9 -116 9 -116l65 -6l-5 -76s-66 5 -179 5c-47 0 -86 -5 -86 -5l-5 70l56 12c2 36 5 76 5 86v148c0 52 -22 92 -74 92c-50 0 -99 -48 -99 -138v-72
c0 -50 9 -116 9 -116l65 -6l-5 -76s-66 5 -179 5c-47 0 -100 -5 -100 -5l-5 70l66 12s9 66 9 86v162c0 20 -10 87 -10 87zM281 -126c0 46 33 68 64 68c42 0 66 -28 66 -76c0 -57 -61 -140 -61 -140l-46 12s18 55 18 82c-12 4 -41 19 -41 54z" />
    <glyph glyph-name="ntilde" unicode="&#xf1;" horiz-adv-x="636" 
d="M17 429l9 74s75 -9 117 -9l48 2l21 -19l10 -72c40 59 90 98 166 98c109 0 167 -62 167 -178v-132c0 -50 9 -116 9 -116l65 -6l-5 -76s-66 5 -179 5c-47 0 -86 -5 -86 -5l-5 70l56 12c2 36 5 76 5 86v148c0 52 -22 92 -74 92c-50 0 -99 -48 -99 -138v-72
c0 -50 9 -116 9 -116l65 -6l-5 -76s-66 5 -179 5c-47 0 -100 -5 -100 -5l-5 70l66 12s9 66 9 86v162c0 20 -10 87 -10 87zM460 723l49 -28s-45 -101 -88 -101s-122 38 -165 38c-24 0 -49 -42 -49 -42l-47 28s46 105 89 105c42 0 123 -38 165 -38c24 0 46 38 46 38z" />
    <glyph glyph-name="o" unicode="o" horiz-adv-x="544" 
d="M519 244c0 -166 -88 -259 -247 -259s-247 93 -247 259c0 167 88 259 247 259s247 -92 247 -259zM360 244c0 123 -26 174 -88 174s-88 -51 -88 -174s26 -174 88 -174s88 51 88 174z" />
    <glyph glyph-name="oacute" unicode="&#xf3;" horiz-adv-x="544" 
d="M519 244c0 -166 -88 -259 -247 -259s-247 93 -247 259c0 167 88 259 247 259s247 -92 247 -259zM360 244c0 123 -26 174 -88 174s-88 -51 -88 -174s26 -174 88 -174s88 51 88 174zM372 755l47 -76s-122 -56 -140 -65l-67 -49l-47 58z" />
    <glyph glyph-name="ocaron" unicode="&#x1d2;" horiz-adv-x="544" 
d="M519 244c0 -166 -88 -259 -247 -259s-247 93 -247 259c0 167 88 259 247 259s247 -92 247 -259zM360 244c0 123 -26 174 -88 174s-88 -51 -88 -174s26 -174 88 -174s88 51 88 174zM126 765l67 -53c10 -5 47 -28 79 -47c32 20 69 42 79 47l67 53l52 -58l-198 -143
l-198 143z" />
    <glyph glyph-name="ocircumflex" unicode="&#xf4;" horiz-adv-x="544" 
d="M519 244c0 -166 -88 -259 -247 -259s-247 93 -247 259c0 167 88 259 247 259s247 -92 247 -259zM360 244c0 123 -26 174 -88 174s-88 -51 -88 -174s26 -174 88 -174s88 51 88 174zM272 765l198 -143l-47 -58l-67 53c-10 5 -51 26 -84 44l-84 -44l-67 -53l-47 58z" />
    <glyph glyph-name="ocircumflexacute" unicode="&#x1ed1;" horiz-adv-x="544" 
d="M519 244c0 -166 -88 -259 -247 -259s-247 93 -247 259c0 167 88 259 247 259s247 -92 247 -259zM360 244c0 123 -26 174 -88 174s-88 -51 -88 -174s26 -174 88 -174s88 51 88 174zM276 717l151 -141l-49 -39l-63 49l-39 28l-39 -28l-63 -49l-49 39zM471 797l55 -52
s-70 -61 -76 -67l-40 -44l-50 40z" />
    <glyph glyph-name="ocircumflexdotbelow" horiz-adv-x="544" 
d="M519 244c0 -166 -88 -259 -247 -259s-247 93 -247 259c0 167 88 259 247 259s247 -92 247 -259zM360 244c0 123 -26 174 -88 174s-88 -51 -88 -174s26 -174 88 -174s88 51 88 174zM272 765l198 -143l-47 -58l-67 53c-10 5 -51 26 -84 44l-84 -44l-67 -53l-47 58zM273 -65
c48 0 77 -29 77 -78c0 -46 -27 -77 -77 -77s-77 31 -77 77s27 78 77 78z" />
    <glyph glyph-name="ocircumflexgrave" unicode="&#x1ed3;" horiz-adv-x="544" 
d="M519 244c0 -166 -88 -259 -247 -259s-247 93 -247 259c0 167 88 259 247 259s247 -92 247 -259zM360 244c0 123 -26 174 -88 174s-88 -51 -88 -174s26 -174 88 -174s88 51 88 174zM274 717l151 -141l-49 -39l-63 49l-39 28l-39 -28l-63 -49l-49 39zM470 674l-50 -40
l-40 44c-6 6 -76 67 -76 67l55 52z" />
    <glyph glyph-name="ocircumflexhookabove" unicode="&#x1ed5;" horiz-adv-x="544" 
d="M519 244c0 -166 -88 -259 -247 -259s-247 93 -247 259c0 167 88 259 247 259s247 -92 247 -259zM360 244c0 123 -26 174 -88 174s-88 -51 -88 -174s26 -174 88 -174s88 51 88 174zM274 717l151 -141l-49 -39l-63 49l-39 28l-39 -28l-63 -49l-49 39zM437 770
c39 0 71 -20 71 -57c0 -44 -54 -49 -54 -69c0 -8 5 -18 5 -18c-6 -4 -22 -5 -30 -5c-20 0 -34 11 -34 28v4c0 31 41 33 41 58c0 9 -8 14 -18 14c-15 0 -36 -9 -36 -9l-15 42c18 6 29 12 70 12z" />
    <glyph glyph-name="ocircumflextilde" unicode="&#x1ed7;" horiz-adv-x="544" 
d="M519 244c0 -166 -88 -259 -247 -259s-247 93 -247 259c0 167 88 259 247 259s247 -92 247 -259zM360 244c0 123 -26 174 -88 174s-88 -51 -88 -174s26 -174 88 -174s88 51 88 174zM272 665l163 -87l-29 -52l-63 30c-8 3 -45 14 -71 21c-26 -7 -63 -18 -71 -21l-63 -30
l-29 52zM378 771l31 -26s-41 -67 -76 -67c-36 0 -82 25 -119 25c-24 0 -55 -24 -55 -24l-33 27s41 65 77 65s83 -24 119 -24c24 0 56 24 56 24z" />
    <glyph glyph-name="odotbelow" unicode="&#x1ecd;" horiz-adv-x="544" 
d="M519 244c0 -166 -88 -259 -247 -259s-247 93 -247 259c0 167 88 259 247 259s247 -92 247 -259zM360 244c0 123 -26 174 -88 174s-88 -51 -88 -174s26 -174 88 -174s88 51 88 174zM273 -65c48 0 77 -29 77 -78c0 -46 -27 -77 -77 -77s-77 31 -77 77s27 78 77 78z" />
    <glyph glyph-name="oe" unicode="&#x153;" horiz-adv-x="774" 
d="M597 503c141 0 218 -90 209 -243l-21 -39h-269c6 -98 43 -140 125 -140c73 0 121 33 121 33l35 -58c-52 -47 -118 -71 -196 -71c-76 0 -129 25 -164 77c-49 -51 -106 -77 -169 -77c-159 0 -247 93 -247 259c0 167 88 259 247 259c65 0 121 -26 169 -78
c36 52 89 78 160 78zM268 418c-62 0 -88 -51 -88 -174s26 -174 88 -174s88 51 88 174s-26 174 -88 174zM586 424c-45 0 -67 -41 -70 -129l132 7s1 6 1 8c0 76 -21 114 -63 114z" />
    <glyph glyph-name="ograve" unicode="&#xf2;" horiz-adv-x="544" 
d="M519 244c0 -166 -88 -259 -247 -259s-247 93 -247 259c0 167 88 259 247 259s247 -92 247 -259zM360 244c0 123 -26 174 -88 174s-88 -51 -88 -174s26 -174 88 -174s88 51 88 174zM379 623l-47 -58l-67 49c-18 9 -140 65 -140 65l47 76z" />
    <glyph glyph-name="ohookabove" unicode="&#x1ecf;" horiz-adv-x="544" 
d="M519 244c0 -166 -88 -259 -247 -259s-247 93 -247 259c0 167 88 259 247 259s247 -92 247 -259zM360 244c0 123 -26 174 -88 174s-88 -51 -88 -174s26 -174 88 -174s88 51 88 174zM281 748c47 0 94 -26 94 -74c0 -52 -65 -58 -65 -82c0 -12 6 -26 6 -26
c-5 -5 -17 -7 -28 -7c-27 0 -45 15 -45 38v4c0 34 49 40 49 68c0 16 -11 23 -25 23c-18 0 -42 -11 -42 -11l-16 49c12 6 37 18 72 18z" />
    <glyph glyph-name="ohorn" unicode="&#x1a1;" horiz-adv-x="544" 
d="M480 569l107 28c12 -27 19 -54 19 -78c0 -66 -21 -112 -120 -126c22 -40 33 -90 33 -149c0 -166 -88 -259 -247 -259s-247 93 -247 259c0 167 88 259 247 259c71 0 128 -19 169 -54c44 4 62 21 62 43c0 30 -23 77 -23 77zM360 244c0 123 -26 174 -88 174
s-88 -51 -88 -174s26 -174 88 -174s88 51 88 174z" />
    <glyph glyph-name="ohornacute" unicode="&#x1edb;" horiz-adv-x="544" 
d="M480 569l107 28c12 -27 19 -54 19 -78c0 -66 -21 -112 -120 -126c22 -40 33 -90 33 -149c0 -166 -88 -259 -247 -259s-247 93 -247 259c0 167 88 259 247 259c71 0 128 -19 169 -54c44 4 62 21 62 43c0 30 -23 77 -23 77zM360 244c0 123 -26 174 -88 174
s-88 -51 -88 -174s26 -174 88 -174s88 51 88 174zM372 755l47 -76s-122 -56 -140 -65l-67 -49l-47 58z" />
    <glyph glyph-name="ohorndotbelow" unicode="&#x1ee3;" horiz-adv-x="544" 
d="M480 569l107 28c12 -27 19 -54 19 -78c0 -66 -21 -112 -120 -126c22 -40 33 -90 33 -149c0 -166 -88 -259 -247 -259s-247 93 -247 259c0 167 88 259 247 259c71 0 128 -19 169 -54c44 4 62 21 62 43c0 30 -23 77 -23 77zM360 244c0 123 -26 174 -88 174
s-88 -51 -88 -174s26 -174 88 -174s88 51 88 174zM273 -65c48 0 77 -29 77 -78c0 -46 -27 -77 -77 -77s-77 31 -77 77s27 78 77 78z" />
    <glyph glyph-name="ohorngrave" unicode="&#x1edd;" horiz-adv-x="544" 
d="M480 569l107 28c12 -27 19 -54 19 -78c0 -66 -21 -112 -120 -126c22 -40 33 -90 33 -149c0 -166 -88 -259 -247 -259s-247 93 -247 259c0 167 88 259 247 259c71 0 128 -19 169 -54c44 4 62 21 62 43c0 30 -23 77 -23 77zM360 244c0 123 -26 174 -88 174
s-88 -51 -88 -174s26 -174 88 -174s88 51 88 174zM379 623l-47 -58l-67 49c-18 9 -140 65 -140 65l47 76z" />
    <glyph glyph-name="ohornhookabove" unicode="&#x1edf;" horiz-adv-x="544" 
d="M480 569l107 28c12 -27 19 -54 19 -78c0 -66 -21 -112 -120 -126c22 -40 33 -90 33 -149c0 -166 -88 -259 -247 -259s-247 93 -247 259c0 167 88 259 247 259c71 0 128 -19 169 -54c44 4 62 21 62 43c0 30 -23 77 -23 77zM360 244c0 123 -26 174 -88 174
s-88 -51 -88 -174s26 -174 88 -174s88 51 88 174zM281 748c47 0 94 -26 94 -74c0 -52 -65 -58 -65 -82c0 -12 6 -26 6 -26c-5 -5 -17 -7 -28 -7c-27 0 -45 15 -45 38v4c0 34 49 40 49 68c0 16 -11 23 -25 23c-18 0 -42 -11 -42 -11l-16 49c12 6 37 18 72 18z" />
    <glyph glyph-name="ohorntilde" unicode="&#x1ee1;" horiz-adv-x="544" 
d="M480 569l107 28c12 -27 19 -54 19 -78c0 -66 -21 -112 -120 -126c22 -40 33 -90 33 -149c0 -166 -88 -259 -247 -259s-247 93 -247 259c0 167 88 259 247 259c71 0 128 -19 169 -54c44 4 62 21 62 43c0 30 -23 77 -23 77zM360 244c0 123 -26 174 -88 174
s-88 -51 -88 -174s26 -174 88 -174s88 51 88 174zM403 723l49 -28s-45 -101 -88 -101s-122 38 -165 38c-24 0 -49 -42 -49 -42l-47 28s46 105 89 105c42 0 123 -38 165 -38c24 0 46 38 46 38z" />
    <glyph glyph-name="ohungarumlaut" unicode="&#x151;" horiz-adv-x="544" 
d="M519 244c0 -166 -88 -259 -247 -259s-247 93 -247 259c0 167 88 259 247 259s247 -92 247 -259zM360 244c0 123 -26 174 -88 174s-88 -51 -88 -174s26 -174 88 -174s88 51 88 174zM491 762l48 -77s-134 -62 -152 -71l-67 -49l-47 58zM305 762l41 -66s-127 -70 -145 -82
l-67 -49l-47 58z" />
    <glyph glyph-name="omacron" unicode="&#x14d;" horiz-adv-x="544" 
d="M519 244c0 -166 -88 -259 -247 -259s-247 93 -247 259c0 167 88 259 247 259s247 -92 247 -259zM360 244c0 123 -26 174 -88 174s-88 -51 -88 -174s26 -174 88 -174s88 51 88 174zM426 596h-315v73h322z" />
    <glyph glyph-name="oslash" unicode="&#xf8;" horiz-adv-x="532" 
d="M513 244c0 -166 -88 -259 -247 -259c-34 0 -65 5 -92 13l-51 -97l-57 29l50 94c-64 42 -97 117 -97 220c0 167 88 259 247 259c35 0 67 -5 96 -14l58 109l59 -29l-58 -109c60 -43 92 -116 92 -216zM178 244c0 -36 2 -66 7 -90l130 247c-13 11 -29 17 -49 17
c-62 0 -88 -51 -88 -174zM354 244c0 31 -2 58 -5 80l-129 -240c12 -10 28 -14 46 -14c62 0 88 51 88 174z" />
    <glyph glyph-name="otilde" unicode="&#xf5;" horiz-adv-x="544" 
d="M519 244c0 -166 -88 -259 -247 -259s-247 93 -247 259c0 167 88 259 247 259s247 -92 247 -259zM360 244c0 123 -26 174 -88 174s-88 -51 -88 -174s26 -174 88 -174s88 51 88 174zM403 723l49 -28s-45 -101 -88 -101s-122 38 -165 38c-24 0 -49 -42 -49 -42l-47 28
s46 105 89 105c42 0 123 -38 165 -38c24 0 46 38 46 38z" />
    <glyph glyph-name="p" unicode="p" horiz-adv-x="589" 
d="M374 503c122 0 190 -90 190 -249c0 -168 -91 -264 -251 -264c-25 0 -53 2 -81 5v-31c0 -50 10 -121 10 -121l79 -6l-5 -71s-66 5 -179 5c-47 0 -100 -5 -100 -5l-5 65l50 12s10 71 10 91v391c0 20 -10 87 -10 87l-75 17l9 74s68 -9 117 -9l48 2l21 -19l10 -73
c42 69 91 99 162 99zM320 390c-53 0 -83 -45 -88 -130v-161c27 -9 50 -14 69 -14c73 0 104 46 104 156c0 102 -27 149 -85 149z" />
    <glyph glyph-name="q" unicode="q" horiz-adv-x="571" 
d="M556 -164l-5 -71s-66 5 -179 5c-47 0 -100 -5 -100 -5l-5 65l80 12s10 71 10 91v126c-39 -50 -83 -70 -142 -70c-122 0 -190 90 -190 249c0 168 91 264 251 264c66 0 154 -13 231 -36c0 0 -10 -117 -10 -137v-366c0 -50 10 -121 10 -121zM269 102c53 0 83 44 88 130v67
c0 31 -2 70 -3 96c-27 8 -49 12 -66 12c-73 0 -104 -46 -104 -156c0 -102 27 -149 85 -149z" />
    <glyph glyph-name="r" unicode="r" horiz-adv-x="458" 
d="M212 477l9 -66c35 55 81 92 141 92c36 0 82 -10 82 -10l-15 -201l-74 3v55c0 8 -6 40 -8 52c-2 1 -4 1 -6 1c-50 0 -99 -48 -99 -138v-72c0 -50 9 -116 9 -116l83 -6l-5 -76s-76 5 -189 5c-47 0 -110 -5 -110 -5l-5 70l68 12s9 66 9 86v162c0 20 -10 87 -10 87l-75 17
l9 75s75 -10 117 -10l48 2z" />
    <glyph glyph-name="racute" unicode="&#x155;" horiz-adv-x="458" 
d="M212 477l9 -66c35 55 81 92 141 92c36 0 82 -10 82 -10l-15 -201l-74 3v55c0 8 -6 40 -8 52c-2 1 -4 1 -6 1c-50 0 -99 -48 -99 -138v-72c0 -50 9 -116 9 -116l83 -6l-5 -76s-76 5 -189 5c-47 0 -110 -5 -110 -5l-5 70l68 12s9 66 9 86v162c0 20 -10 87 -10 87l-75 17
l9 75s75 -10 117 -10l48 2zM339 755l47 -76s-122 -56 -140 -65l-67 -49l-47 58z" />
    <glyph glyph-name="rcaron" unicode="&#x159;" horiz-adv-x="458" 
d="M212 477l9 -66c35 55 81 92 141 92c36 0 82 -10 82 -10l-15 -201l-74 3v55c0 8 -6 40 -8 52c-2 1 -4 1 -6 1c-50 0 -99 -48 -99 -138v-72c0 -50 9 -116 9 -116l83 -6l-5 -76s-76 5 -189 5c-47 0 -110 -5 -110 -5l-5 70l68 12s9 66 9 86v162c0 20 -10 87 -10 87l-75 17
l9 75s75 -10 117 -10l48 2zM93 765l67 -53c10 -5 47 -28 79 -47c32 20 69 42 79 47l67 53l52 -58l-198 -143l-198 143z" />
    <glyph glyph-name="rcommaaccent" unicode="&#x157;" horiz-adv-x="458" 
d="M212 477l9 -66c35 55 81 92 141 92c36 0 82 -10 82 -10l-15 -201l-74 3v55c0 8 -6 40 -8 52c-2 1 -4 1 -6 1c-50 0 -99 -48 -99 -138v-72c0 -50 9 -116 9 -116l83 -6l-5 -76s-76 5 -189 5c-47 0 -110 -5 -110 -5l-5 70l68 12s9 66 9 86v162c0 20 -10 87 -10 87l-75 17
l9 75s75 -10 117 -10l48 2zM113 -126c0 46 33 68 64 68c42 0 66 -28 66 -76c0 -57 -61 -140 -61 -140l-46 12s18 55 18 82c-12 4 -41 19 -41 54z" />
    <glyph glyph-name="s" unicode="s" horiz-adv-x="429" 
d="M220 503c71 0 119 -11 160 -24l-12 -158l-67 5v43c0 5 -9 28 -14 38c-18 8 -39 16 -70 16c-47 0 -65 -18 -65 -38c0 -74 250 -50 250 -239c0 -102 -78 -156 -195 -156c-73 0 -177 23 -177 23l12 165l71 -5v-45c0 -5 9 -38 9 -37c27 -11 60 -22 88 -22c35 0 64 15 64 43
c0 79 -241 51 -241 242c0 102 75 149 187 149z" />
    <glyph glyph-name="sacute" unicode="&#x15b;" horiz-adv-x="421" 
d="M220 503c71 0 119 -11 160 -24l-12 -158l-67 5v43c0 5 -9 28 -14 38c-18 8 -39 16 -70 16c-47 0 -65 -18 -65 -38c0 -74 250 -50 250 -239c0 -102 -78 -156 -195 -156c-73 0 -177 23 -177 23l12 165l71 -5v-45c0 -5 9 -38 9 -37c27 -11 60 -22 88 -22c35 0 64 15 64 43
c0 79 -241 51 -241 242c0 102 75 149 187 149zM311 755l47 -76s-122 -56 -140 -65l-67 -49l-47 58z" />
    <glyph glyph-name="scaron" unicode="&#x161;" horiz-adv-x="421" 
d="M220 503c71 0 119 -11 160 -24l-12 -158l-67 5v43c0 5 -9 28 -14 38c-18 8 -39 16 -70 16c-47 0 -65 -18 -65 -38c0 -74 250 -50 250 -239c0 -102 -78 -156 -195 -156c-73 0 -177 23 -177 23l12 165l71 -5v-45c0 -5 9 -38 9 -37c27 -11 60 -22 88 -22c35 0 64 15 64 43
c0 79 -241 51 -241 242c0 102 75 149 187 149zM65 765l67 -53c10 -5 47 -28 79 -47c32 20 69 42 79 47l67 53l52 -58l-198 -143l-198 143z" />
    <glyph glyph-name="scedilla" unicode="&#x15f;" horiz-adv-x="421" 
d="M220 503c71 0 119 -11 160 -24l-12 -158l-67 5v43c0 5 -9 28 -14 38c-18 8 -39 16 -70 16c-47 0 -65 -18 -65 -38c0 -74 250 -50 250 -239c0 -92 -64 -145 -162 -154l-10 -51c59 -1 101 -33 101 -87c0 -63 -51 -89 -114 -89c-37 0 -79 10 -96 18l18 49
c16 -5 35 -11 55 -11c24 0 47 8 47 33s-18 31 -42 31c-6 0 -21 -1 -21 -1l-11 14l9 93c-68 5 -146 22 -146 22l12 165l71 -5v-45c0 -5 9 -38 9 -37c27 -11 60 -22 88 -22c35 0 64 15 64 43c0 79 -241 51 -241 242c0 102 75 149 187 149z" />
    <glyph glyph-name="scommaaccent" unicode="&#x219;" horiz-adv-x="421" 
d="M220 503c71 0 119 -11 160 -24l-12 -158l-67 5v43c0 5 -9 28 -14 38c-18 8 -39 16 -70 16c-47 0 -65 -18 -65 -38c0 -74 250 -50 250 -239c0 -102 -78 -156 -195 -156c-73 0 -177 23 -177 23l12 165l71 -5v-45c0 -5 9 -38 9 -37c27 -11 60 -22 88 -22c35 0 64 15 64 43
c0 79 -241 51 -241 242c0 102 75 149 187 149zM150 -126c0 46 33 68 64 68c42 0 66 -28 66 -76c0 -57 -61 -140 -61 -140l-46 12s18 55 18 82c-12 4 -41 19 -41 54z" />
    <glyph glyph-name="t" unicode="t" horiz-adv-x="358" 
d="M327 100l37 -57c-33 -26 -73 -53 -133 -53c-109 0 -150 56 -150 166v263h-64l-3 63c28 11 92 35 97 42c13 17 55 87 55 87l55 -4v-113h119l-9 -75h-110v-276c0 -33 19 -63 52 -63c26 0 54 20 54 20z" />
    <glyph glyph-name="tbar" unicode="&#x167;" horiz-adv-x="358" 
d="M327 100l37 -57c-33 -26 -73 -53 -133 -53c-109 0 -150 56 -150 166v111h-65v64h65v88h-64l-3 63c28 11 92 35 97 42c13 17 55 87 55 87l55 -4v-113h119l-9 -75h-110v-88h116v-64h-116v-124c0 -33 19 -63 52 -63c26 0 54 20 54 20z" />
    <glyph glyph-name="tcaron" unicode="&#x165;" horiz-adv-x="358" 
d="M266 756h99l-13 -194l-78 4l1 74c-1 15 -9 116 -9 116zM327 100l37 -57c-33 -26 -73 -53 -133 -53c-109 0 -150 56 -150 166v263h-64l-3 63c28 11 92 35 97 42c13 17 55 87 55 87l55 -4v-113h119l-9 -75h-110v-276c0 -33 19 -63 52 -63c26 0 54 20 54 20z" />
    <glyph glyph-name="tcedilla" unicode="&#x163;" horiz-adv-x="358" 
d="M327 100l37 -57c-27 -22 -60 -44 -104 -51l-10 -51c59 -1 101 -33 101 -87c0 -63 -51 -89 -114 -89c-37 0 -79 10 -96 18l18 49c16 -5 35 -11 55 -11c24 0 47 8 47 33s-18 31 -42 31c-6 0 -21 -1 -21 -1l-11 14l9 94c-83 11 -115 67 -115 164v263h-64l-3 63
c28 11 92 35 97 42c13 17 55 87 55 87l55 -4v-113h119l-9 -75h-110v-276c0 -33 19 -63 52 -63c26 0 54 20 54 20z" />
    <glyph glyph-name="uni021B" unicode="&#x21b;" horiz-adv-x="358" 
d="M327 100l37 -57c-33 -26 -73 -53 -133 -53c-109 0 -150 56 -150 166v263h-64l-3 63c28 11 92 35 97 42c13 17 55 87 55 87l55 -4v-113h119l-9 -75h-110v-276c0 -33 19 -63 52 -63c26 0 54 20 54 20zM145 -126c0 46 33 68 64 68c42 0 66 -28 66 -76
c0 -57 -61 -140 -61 -140l-46 12s18 55 18 82c-12 4 -41 19 -41 54z" />
    <glyph glyph-name="thorn" unicode="&#xfe;" horiz-adv-x="553" 
d="M0 691l9 74s68 -9 117 -9l88 2l21 -19l-10 -135v-171c35 42 79 70 142 70c122 0 190 -90 190 -249c0 -168 -91 -264 -251 -264c-25 0 -53 2 -81 5v-31c0 -50 10 -121 10 -121l79 -6l-5 -71s-66 5 -179 5c-47 0 -100 -5 -100 -5l-5 65l50 12s10 71 10 91v653
c0 20 -10 87 -10 87zM313 390c-53 0 -83 -45 -88 -130v-161c27 -9 50 -14 69 -14c73 0 104 46 104 156c0 102 -27 149 -85 149z" />
    <glyph glyph-name="u" unicode="u" horiz-adv-x="622" 
d="M308 429l9 74s75 -9 117 -9l88 2l21 -19s-10 -132 -10 -182v-102c0 -50 9 -116 9 -116l60 -6l-6 -76s-49 5 -184 5l-9 78c-36 -50 -80 -82 -145 -82c-116 0 -176 62 -176 178v151c0 20 -10 90 -10 90l-55 14l9 74s70 -9 112 -9l73 2l21 -19s-10 -132 -10 -182v-107
c0 -52 21 -92 73 -92c50 0 98 48 98 138v91c0 20 -10 87 -10 87z" />
    <glyph glyph-name="uacute" unicode="&#xfa;" horiz-adv-x="622" 
d="M308 429l9 74s75 -9 117 -9l88 2l21 -19s-10 -132 -10 -182v-102c0 -50 9 -116 9 -116l60 -6l-6 -76s-49 5 -184 5l-9 78c-36 -50 -80 -82 -145 -82c-116 0 -176 62 -176 178v151c0 20 -10 90 -10 90l-55 14l9 74s70 -9 112 -9l73 2l21 -19s-10 -132 -10 -182v-107
c0 -52 21 -92 73 -92c50 0 98 48 98 138v91c0 20 -10 87 -10 87zM401 755l47 -76s-122 -56 -140 -65l-67 -49l-47 58z" />
    <glyph glyph-name="ucaron" unicode="&#x1d4;" horiz-adv-x="622" 
d="M308 429l9 74s75 -9 117 -9l88 2l21 -19s-10 -132 -10 -182v-102c0 -50 9 -116 9 -116l60 -6l-6 -76s-49 5 -184 5l-9 78c-36 -50 -80 -82 -145 -82c-116 0 -176 62 -176 178v151c0 20 -10 90 -10 90l-55 14l9 74s70 -9 112 -9l73 2l21 -19s-10 -132 -10 -182v-107
c0 -52 21 -92 73 -92c50 0 98 48 98 138v91c0 20 -10 87 -10 87zM165 765l67 -53c10 -5 47 -28 79 -47c32 20 69 42 79 47l67 53l52 -58l-198 -143l-198 143z" />
    <glyph glyph-name="ucircumflex" unicode="&#xfb;" horiz-adv-x="622" 
d="M308 429l9 74s75 -9 117 -9l88 2l21 -19s-10 -132 -10 -182v-102c0 -50 9 -116 9 -116l60 -6l-6 -76s-49 5 -184 5l-9 78c-36 -50 -80 -82 -145 -82c-116 0 -176 62 -176 178v151c0 20 -10 90 -10 90l-55 14l9 74s70 -9 112 -9l73 2l21 -19s-10 -132 -10 -182v-107
c0 -52 21 -92 73 -92c50 0 98 48 98 138v91c0 20 -10 87 -10 87zM301 765l198 -143l-47 -58l-67 53c-10 5 -51 26 -84 44l-84 -44l-67 -53l-47 58z" />
    <glyph glyph-name="udieresis" unicode="&#xfc;" horiz-adv-x="622" 
d="M308 429l9 74s75 -9 117 -9l88 2l21 -19s-10 -132 -10 -182v-102c0 -50 9 -116 9 -116l60 -6l-6 -76s-49 5 -184 5l-9 78c-36 -50 -80 -82 -145 -82c-116 0 -176 62 -176 178v151c0 20 -10 90 -10 90l-55 14l9 74s70 -9 112 -9l73 2l21 -19s-10 -132 -10 -182v-107
c0 -52 21 -92 73 -92c50 0 98 48 98 138v91c0 20 -10 87 -10 87zM183 725c42 0 67 -26 67 -70c0 -41 -23 -69 -67 -69s-68 28 -68 69s24 70 68 70zM420 725c42 0 67 -26 67 -70c0 -41 -23 -69 -67 -69s-67 28 -67 69s23 70 67 70z" />
    <glyph glyph-name="udieresisacute" unicode="&#x1d8;" horiz-adv-x="622" 
d="M308 429l9 74s75 -9 117 -9l88 2l21 -19s-10 -132 -10 -182v-102c0 -50 9 -116 9 -116l60 -6l-6 -76s-49 5 -184 5l-9 78c-36 -50 -80 -82 -145 -82c-116 0 -176 62 -176 178v151c0 20 -10 90 -10 90l-55 14l9 74s70 -9 112 -9l73 2l21 -19s-10 -132 -10 -182v-107
c0 -52 21 -92 73 -92c50 0 98 48 98 138v91c0 20 -10 87 -10 87zM373 801l28 -71s-95 -21 -108 -27l-64 -28l-28 56zM207 661c39 0 63 -24 63 -64c0 -38 -23 -63 -63 -63c-41 0 -64 25 -64 63s23 64 64 64zM396 661c39 0 63 -24 63 -64c0 -38 -22 -63 -63 -63s-63 25 -63 63
s22 64 63 64z" />
    <glyph glyph-name="udieresiscaron" unicode="&#x1da;" horiz-adv-x="622" 
d="M308 429l9 74s75 -9 117 -9l88 2l21 -19s-10 -132 -10 -182v-102c0 -50 9 -116 9 -116l60 -6l-6 -76s-49 5 -184 5l-9 78c-36 -50 -80 -82 -145 -82c-116 0 -176 62 -176 178v151c0 20 -10 90 -10 90l-55 14l9 74s70 -9 112 -9l73 2l21 -19s-10 -132 -10 -182v-107
c0 -52 21 -92 73 -92c50 0 98 48 98 138v91c0 20 -10 87 -10 87zM301 663l-163 87l29 52l63 -30c8 -3 45 -14 71 -21c26 7 62 17 71 21l63 30l29 -52zM395 661c41 0 64 -26 64 -64s-23 -63 -64 -63c-40 0 -63 25 -63 63c0 40 24 64 63 64zM206 661c41 0 63 -26 63 -64
s-22 -63 -63 -63s-63 25 -63 63c0 40 24 64 63 64z" />
    <glyph glyph-name="udieresisgrave" unicode="&#x1dc;" horiz-adv-x="622" 
d="M308 429l9 74s75 -9 117 -9l88 2l21 -19s-10 -132 -10 -182v-102c0 -50 9 -116 9 -116l60 -6l-6 -76s-49 5 -184 5l-9 78c-36 -50 -80 -82 -145 -82c-116 0 -176 62 -176 178v151c0 20 -10 90 -10 90l-55 14l9 74s70 -9 112 -9l73 2l21 -19s-10 -132 -10 -182v-107
c0 -52 21 -92 73 -92c50 0 98 48 98 138v91c0 20 -10 87 -10 87zM229 801l172 -70l-28 -56l-64 28c-13 6 -108 27 -108 27zM206 661c41 0 63 -26 63 -64s-22 -63 -63 -63s-63 25 -63 63c0 40 24 64 63 64zM395 661c41 0 64 -26 64 -64s-23 -63 -64 -63c-40 0 -63 25 -63 63
c0 40 24 64 63 64z" />
    <glyph glyph-name="udieresismacron" unicode="&#x1d6;" horiz-adv-x="622" 
d="M308 429l9 74s75 -9 117 -9l88 2l21 -19s-10 -132 -10 -182v-102c0 -50 9 -116 9 -116l60 -6l-6 -76s-49 5 -184 5l-9 78c-36 -50 -80 -82 -145 -82c-116 0 -176 62 -176 178v151c0 20 -10 90 -10 90l-55 14l9 74s70 -9 112 -9l73 2l21 -19s-10 -132 -10 -182v-107
c0 -52 21 -92 73 -92c50 0 98 48 98 138v91c0 20 -10 87 -10 87zM395 661c41 0 64 -26 64 -64s-23 -63 -64 -63c-40 0 -63 25 -63 63c0 40 24 64 63 64zM206 661c41 0 63 -26 63 -64s-22 -63 -63 -63s-63 25 -63 63c0 40 24 64 63 64zM435 701h-275v73h282z" />
    <glyph glyph-name="udotbelow" unicode="&#x1ee5;" horiz-adv-x="622" 
d="M308 429l9 74s75 -9 117 -9l88 2l21 -19s-10 -132 -10 -182v-102c0 -50 9 -116 9 -116l60 -6l-6 -76s-49 5 -184 5l-9 78c-36 -50 -80 -82 -145 -82c-116 0 -176 62 -176 178v151c0 20 -10 90 -10 90l-55 14l9 74s70 -9 112 -9l73 2l21 -19s-10 -132 -10 -182v-107
c0 -52 21 -92 73 -92c50 0 98 48 98 138v91c0 20 -10 87 -10 87zM300 -65c48 0 77 -29 77 -78c0 -46 -27 -77 -77 -77s-77 31 -77 77s27 78 77 78z" />
    <glyph glyph-name="ugrave" unicode="&#xf9;" horiz-adv-x="622" 
d="M308 429l9 74s75 -9 117 -9l88 2l21 -19s-10 -132 -10 -182v-102c0 -50 9 -116 9 -116l60 -6l-6 -76s-49 5 -184 5l-9 78c-36 -50 -80 -82 -145 -82c-116 0 -176 62 -176 178v151c0 20 -10 90 -10 90l-55 14l9 74s70 -9 112 -9l73 2l21 -19s-10 -132 -10 -182v-107
c0 -52 21 -92 73 -92c50 0 98 48 98 138v91c0 20 -10 87 -10 87zM408 623l-47 -58l-67 49c-18 9 -140 65 -140 65l47 76z" />
    <glyph glyph-name="uhookabove" unicode="&#x1ee7;" horiz-adv-x="622" 
d="M308 429l9 74s75 -9 117 -9l88 2l21 -19s-10 -132 -10 -182v-102c0 -50 9 -116 9 -116l60 -6l-6 -76s-49 5 -184 5l-9 78c-36 -50 -80 -82 -145 -82c-116 0 -176 62 -176 178v151c0 20 -10 90 -10 90l-55 14l9 74s70 -9 112 -9l73 2l21 -19s-10 -132 -10 -182v-107
c0 -52 21 -92 73 -92c50 0 98 48 98 138v91c0 20 -10 87 -10 87zM281 748c47 0 94 -26 94 -74c0 -52 -65 -58 -65 -82c0 -12 6 -26 6 -26c-5 -5 -17 -7 -28 -7c-27 0 -45 15 -45 38v4c0 34 49 40 49 68c0 16 -11 23 -25 23c-18 0 -42 -11 -42 -11l-16 49c12 6 37 18 72 18z
" />
    <glyph glyph-name="uhorn" unicode="&#x1b0;" horiz-adv-x="622" 
d="M533 615l107 28c12 -27 19 -54 19 -78c0 -66 -21 -112 -119 -126c-3 -42 -7 -110 -7 -144v-102c0 -50 9 -116 9 -116l60 -6l-6 -76s-49 5 -184 5l-9 78c-36 -50 -80 -82 -145 -82c-116 0 -176 62 -176 178v151c0 20 -10 90 -10 90l-55 14l9 74s70 -9 112 -9l73 2l21 -19
s-10 -132 -10 -182v-107c0 -52 21 -92 73 -92c50 0 98 48 98 138v91c0 20 -10 87 -10 87l-75 17l9 74s75 -9 117 -9l64 1c41 5 58 21 58 43c0 30 -23 77 -23 77z" />
    <glyph glyph-name="uhornacute" unicode="&#x1ee9;" horiz-adv-x="622" 
d="M533 615l107 28c12 -27 19 -54 19 -78c0 -66 -21 -112 -119 -126c-3 -42 -7 -110 -7 -144v-102c0 -50 9 -116 9 -116l60 -6l-6 -76s-49 5 -184 5l-9 78c-36 -50 -80 -82 -145 -82c-116 0 -176 62 -176 178v151c0 20 -10 90 -10 90l-55 14l9 74s70 -9 112 -9l73 2l21 -19
s-10 -132 -10 -182v-107c0 -52 21 -92 73 -92c50 0 98 48 98 138v91c0 20 -10 87 -10 87l-75 17l9 74s75 -9 117 -9l64 1c41 5 58 21 58 43c0 30 -23 77 -23 77zM401 755l47 -76s-122 -56 -140 -65l-67 -49l-47 58z" />
    <glyph glyph-name="uhorndotbelow" unicode="&#x1ef1;" horiz-adv-x="622" 
d="M533 615l107 28c12 -27 19 -54 19 -78c0 -66 -21 -112 -119 -126c-3 -42 -7 -110 -7 -144v-102c0 -50 9 -116 9 -116l60 -6l-6 -76s-49 5 -184 5l-9 78c-36 -50 -80 -82 -145 -82c-116 0 -176 62 -176 178v151c0 20 -10 90 -10 90l-55 14l9 74s70 -9 112 -9l73 2l21 -19
s-10 -132 -10 -182v-107c0 -52 21 -92 73 -92c50 0 98 48 98 138v91c0 20 -10 87 -10 87l-75 17l9 74s75 -9 117 -9l64 1c41 5 58 21 58 43c0 30 -23 77 -23 77zM300 -65c48 0 77 -29 77 -78c0 -46 -27 -77 -77 -77s-77 31 -77 77s27 78 77 78z" />
    <glyph glyph-name="uhorngrave" unicode="&#x1eeb;" horiz-adv-x="622" 
d="M533 615l107 28c12 -27 19 -54 19 -78c0 -66 -21 -112 -119 -126c-3 -42 -7 -110 -7 -144v-102c0 -50 9 -116 9 -116l60 -6l-6 -76s-49 5 -184 5l-9 78c-36 -50 -80 -82 -145 -82c-116 0 -176 62 -176 178v151c0 20 -10 90 -10 90l-55 14l9 74s70 -9 112 -9l73 2l21 -19
s-10 -132 -10 -182v-107c0 -52 21 -92 73 -92c50 0 98 48 98 138v91c0 20 -10 87 -10 87l-75 17l9 74s75 -9 117 -9l64 1c41 5 58 21 58 43c0 30 -23 77 -23 77zM408 623l-47 -58l-67 49c-18 9 -140 65 -140 65l47 76z" />
    <glyph glyph-name="uhornhookabove" unicode="&#x1eed;" horiz-adv-x="622" 
d="M533 615l107 28c12 -27 19 -54 19 -78c0 -66 -21 -112 -119 -126c-3 -42 -7 -110 -7 -144v-102c0 -50 9 -116 9 -116l60 -6l-6 -76s-49 5 -184 5l-9 78c-36 -50 -80 -82 -145 -82c-116 0 -176 62 -176 178v151c0 20 -10 90 -10 90l-55 14l9 74s70 -9 112 -9l73 2l21 -19
s-10 -132 -10 -182v-107c0 -52 21 -92 73 -92c50 0 98 48 98 138v91c0 20 -10 87 -10 87l-75 17l9 74s75 -9 117 -9l64 1c41 5 58 21 58 43c0 30 -23 77 -23 77zM281 748c47 0 94 -26 94 -74c0 -52 -65 -58 -65 -82c0 -12 6 -26 6 -26c-5 -5 -17 -7 -28 -7
c-27 0 -45 15 -45 38v4c0 34 49 40 49 68c0 16 -11 23 -25 23c-18 0 -42 -11 -42 -11l-16 49c12 6 37 18 72 18z" />
    <glyph glyph-name="uhorntilde" unicode="&#x1eef;" horiz-adv-x="622" 
d="M533 615l107 28c12 -27 19 -54 19 -78c0 -66 -21 -112 -119 -126c-3 -42 -7 -110 -7 -144v-102c0 -50 9 -116 9 -116l60 -6l-6 -76s-49 5 -184 5l-9 78c-36 -50 -80 -82 -145 -82c-116 0 -176 62 -176 178v151c0 20 -10 90 -10 90l-55 14l9 74s70 -9 112 -9l73 2l21 -19
s-10 -132 -10 -182v-107c0 -52 21 -92 73 -92c50 0 98 48 98 138v91c0 20 -10 87 -10 87l-75 17l9 74s75 -9 117 -9l64 1c41 5 58 21 58 43c0 30 -23 77 -23 77zM399 723l49 -28s-45 -101 -88 -101s-122 38 -165 38c-24 0 -49 -42 -49 -42l-47 28s46 105 89 105
c42 0 123 -38 165 -38c24 0 46 38 46 38z" />
    <glyph glyph-name="uhungarumlaut" unicode="&#x171;" horiz-adv-x="622" 
d="M308 429l9 74s75 -9 117 -9l88 2l21 -19s-10 -132 -10 -182v-102c0 -50 9 -116 9 -116l60 -6l-6 -76s-49 5 -184 5l-9 78c-36 -50 -80 -82 -145 -82c-116 0 -176 62 -176 178v151c0 20 -10 90 -10 90l-55 14l9 74s70 -9 112 -9l73 2l21 -19s-10 -132 -10 -182v-107
c0 -52 21 -92 73 -92c50 0 98 48 98 138v91c0 20 -10 87 -10 87zM530 762l48 -77s-134 -62 -152 -71l-67 -49l-47 58zM344 762l41 -66s-127 -70 -145 -82l-67 -49l-47 58z" />
    <glyph glyph-name="umacron" unicode="&#x16b;" horiz-adv-x="622" 
d="M308 429l9 74s75 -9 117 -9l88 2l21 -19s-10 -132 -10 -182v-102c0 -50 9 -116 9 -116l60 -6l-6 -76s-49 5 -184 5l-9 78c-36 -50 -80 -82 -145 -82c-116 0 -176 62 -176 178v151c0 20 -10 90 -10 90l-55 14l9 74s70 -9 112 -9l73 2l21 -19s-10 -132 -10 -182v-107
c0 -52 21 -92 73 -92c50 0 98 48 98 138v91c0 20 -10 87 -10 87zM465 596h-315v73h322z" />
    <glyph glyph-name="uogonek" unicode="&#x173;" horiz-adv-x="622" 
d="M308 429l9 74s75 -9 117 -9l88 2l21 -19s-10 -132 -10 -182v-102c0 -50 9 -116 9 -116l60 -6l-6 -76s-30 3 -99 5c-37 -26 -55 -53 -55 -85c0 -26 15 -48 45 -48c10 0 21 2 34 7l18 -48c-18 -9 -54 -23 -95 -23c-64 0 -109 29 -109 89c0 53 40 84 77 109l-9 77
c-36 -50 -80 -82 -145 -82c-116 0 -176 62 -176 178v151c0 20 -10 90 -10 90l-55 14l9 74s70 -9 112 -9l73 2l21 -19s-10 -132 -10 -182v-107c0 -52 21 -92 73 -92c50 0 98 48 98 138v91c0 20 -10 87 -10 87z" />
    <glyph glyph-name="v" unicode="v" horiz-adv-x="559" 
d="M551 428l-45 -6c-19 -40 -42 -89 -47 -103l-120 -319h-127s-112 322 -120 344c-4 13 -16 48 -30 79l-65 11l5 69s79 -9 149 -9c40 0 104 5 104 5l5 -71l-45 -4c4 -31 9 -58 12 -70l56 -206l68 206c4 12 12 44 18 70l-45 4l5 71s59 -5 129 -5c40 0 88 5 88 5z" />
    <glyph glyph-name="w" unicode="w" horiz-adv-x="833" 
d="M828 428l-43 -6c-19 -40 -42 -89 -47 -103l-117 -319h-130l-74 241l-81 -241h-129s-112 322 -120 344c-4 13 -16 48 -30 79l-55 11l5 69s69 -9 139 -9c40 0 123 5 123 5l5 -71l-66 -4c6 -31 11 -59 14 -71l56 -205l106 346h88l93 -346l65 207c4 12 12 43 18 69l-58 4
l5 71s72 -5 142 -5c40 0 86 5 86 5z" />
    <glyph glyph-name="wacute" unicode="&#x1e83;" horiz-adv-x="833" 
d="M828 428l-43 -6c-19 -40 -42 -89 -47 -103l-117 -319h-130l-74 241l-81 -241h-129s-112 322 -120 344c-4 13 -16 48 -30 79l-55 11l5 69s69 -9 139 -9c40 0 123 5 123 5l5 -71l-66 -4c6 -31 11 -59 14 -71l56 -205l106 346h88l93 -346l65 207c4 12 12 43 18 69l-58 4
l5 71s72 -5 142 -5c40 0 86 5 86 5zM517 755l47 -76s-122 -56 -140 -65l-67 -49l-47 58z" />
    <glyph glyph-name="wcircumflex" unicode="&#x175;" horiz-adv-x="833" 
d="M828 428l-43 -6c-19 -40 -42 -89 -47 -103l-117 -319h-130l-74 241l-81 -241h-129s-112 322 -120 344c-4 13 -16 48 -30 79l-55 11l5 69s69 -9 139 -9c40 0 123 5 123 5l5 -71l-66 -4c6 -31 11 -59 14 -71l56 -205l106 346h88l93 -346l65 207c4 12 12 43 18 69l-58 4
l5 71s72 -5 142 -5c40 0 86 5 86 5zM417 765l198 -143l-47 -58l-67 53c-10 5 -51 26 -84 44l-84 -44l-67 -53l-47 58z" />
    <glyph glyph-name="wdieresis" unicode="&#x1e85;" horiz-adv-x="833" 
d="M828 428l-43 -6c-19 -40 -42 -89 -47 -103l-117 -319h-130l-74 241l-81 -241h-129s-112 322 -120 344c-4 13 -16 48 -30 79l-55 11l5 69s69 -9 139 -9c40 0 123 5 123 5l5 -71l-66 -4c6 -31 11 -59 14 -71l56 -205l106 346h88l93 -346l65 207c4 12 12 43 18 69l-58 4
l5 71s72 -5 142 -5c40 0 86 5 86 5zM299 725c42 0 67 -26 67 -70c0 -41 -23 -69 -67 -69s-68 28 -68 69s24 70 68 70zM536 725c42 0 67 -26 67 -70c0 -41 -23 -69 -67 -69s-67 28 -67 69s23 70 67 70z" />
    <glyph glyph-name="wgrave" unicode="&#x1e81;" horiz-adv-x="833" 
d="M828 428l-43 -6c-19 -40 -42 -89 -47 -103l-117 -319h-130l-74 241l-81 -241h-129s-112 322 -120 344c-4 13 -16 48 -30 79l-55 11l5 69s69 -9 139 -9c40 0 123 5 123 5l5 -71l-66 -4c6 -31 11 -59 14 -71l56 -205l106 346h88l93 -346l65 207c4 12 12 43 18 69l-58 4
l5 71s72 -5 142 -5c40 0 86 5 86 5zM524 623l-47 -58l-67 49c-18 9 -140 65 -140 65l47 76z" />
    <glyph glyph-name="x" unicode="x" horiz-adv-x="575" 
d="M236 425l24 -41l38 -62l36 59l28 44l-34 4l5 70s58 -5 126 -5c39 0 87 5 87 5l5 -70l-36 -6l-96 -112l-42 -57l61 -83l88 -96l41 -11l-3 -73s-88 9 -156 9c-39 0 -101 -5 -101 -5l-5 74l40 4l-13 22l-57 86l-59 -91l-8 -17l32 -3l-5 -75s-57 5 -126 5
c-39 0 -87 -5 -87 -5l-5 74l38 7l92 108l50 68l-50 71l-94 104l-33 8l5 68s87 -9 155 -9c39 0 101 5 101 5l5 -70z" />
    <glyph glyph-name="y" unicode="y" horiz-adv-x="571" 
d="M301 158l61 200c4 12 11 46 12 65l-44 5l6 71s54 -5 119 -5c44 0 109 5 109 5l4 -71l-49 -5c-11 -19 -35 -75 -42 -95l-218 -563l-198 13l11 79l55 -2c14 0 31 2 44 6c13 15 24 36 31 56l31 83l-124 325c-9 23 -30 76 -42 98l-63 11l6 69s74 -9 139 -9c44 0 113 5 113 5
l4 -71l-42 -5c2 -21 9 -53 14 -67z" />
    <glyph glyph-name="ycircumflex" unicode="&#x177;" horiz-adv-x="571" 
d="M301 158l61 200c4 12 11 46 12 65l-44 5l6 71s54 -5 119 -5c44 0 109 5 109 5l4 -71l-49 -5c-11 -19 -35 -75 -42 -95l-218 -563l-198 13l11 79l55 -2c14 0 31 2 44 6c13 15 24 36 31 56l31 83l-124 325c-9 23 -30 76 -42 98l-63 11l6 69s74 -9 139 -9c44 0 113 5 113 5
l4 -71l-42 -5c2 -21 9 -53 14 -67zM286 765l198 -143l-47 -58l-67 53c-10 5 -51 26 -84 44l-84 -44l-67 -53l-47 58z" />
    <glyph glyph-name="ydieresis" unicode="&#xff;" horiz-adv-x="571" 
d="M301 158l61 200c4 12 11 46 12 65l-44 5l6 71s54 -5 119 -5c44 0 109 5 109 5l4 -71l-49 -5c-11 -19 -35 -75 -42 -95l-218 -563l-198 13l11 79l55 -2c14 0 31 2 44 6c13 15 24 36 31 56l31 83l-124 325c-9 23 -30 76 -42 98l-63 11l6 69s74 -9 139 -9c44 0 113 5 113 5
l4 -71l-42 -5c2 -21 9 -53 14 -67zM168 725c42 0 67 -26 67 -70c0 -41 -23 -69 -67 -69s-68 28 -68 69s24 70 68 70zM405 725c42 0 67 -26 67 -70c0 -41 -23 -69 -67 -69s-67 28 -67 69s23 70 67 70z" />
    <glyph glyph-name="ydotbelow" unicode="&#x1ef5;" horiz-adv-x="571" 
d="M301 158l61 200c4 12 11 46 12 65l-44 5l6 71s54 -5 119 -5c44 0 109 5 109 5l4 -71l-49 -5c-11 -19 -35 -75 -42 -95l-218 -563l-198 13l11 79l55 -2c14 0 31 2 44 6c13 15 24 36 31 56l31 83l-124 325c-9 23 -30 76 -42 98l-63 11l6 69s74 -9 139 -9c44 0 113 5 113 5
l4 -71l-42 -5c2 -21 9 -53 14 -67zM446 -65c48 0 77 -29 77 -78c0 -46 -27 -77 -77 -77s-77 31 -77 77s27 78 77 78z" />
    <glyph glyph-name="ygrave" unicode="&#x1ef3;" horiz-adv-x="571" 
d="M301 158l61 200c4 12 11 46 12 65l-44 5l6 71s54 -5 119 -5c44 0 109 5 109 5l4 -71l-49 -5c-11 -19 -35 -75 -42 -95l-218 -563l-198 13l11 79l55 -2c14 0 31 2 44 6c13 15 24 36 31 56l31 83l-124 325c-9 23 -30 76 -42 98l-63 11l6 69s74 -9 139 -9c44 0 113 5 113 5
l4 -71l-42 -5c2 -21 9 -53 14 -67zM393 623l-47 -58l-67 49c-18 9 -140 65 -140 65l47 76z" />
    <glyph glyph-name="yhookabove" unicode="&#x1ef7;" horiz-adv-x="571" 
d="M301 158l61 200c4 12 11 46 12 65l-44 5l6 71s54 -5 119 -5c44 0 109 5 109 5l4 -71l-49 -5c-11 -19 -35 -75 -42 -95l-218 -563l-198 13l11 79l55 -2c14 0 31 2 44 6c13 15 24 36 31 56l31 83l-124 325c-9 23 -30 76 -42 98l-63 11l6 69s74 -9 139 -9c44 0 113 5 113 5
l4 -71l-42 -5c2 -21 9 -53 14 -67zM289 748c47 0 94 -26 94 -74c0 -52 -65 -58 -65 -82c0 -12 6 -26 6 -26c-5 -5 -17 -7 -28 -7c-27 0 -45 15 -45 38v4c0 34 49 40 49 68c0 16 -11 23 -25 23c-18 0 -42 -11 -42 -11l-16 49c12 6 37 18 72 18z" />
    <glyph glyph-name="z" unicode="z" horiz-adv-x="460" 
d="M28 477l21 20s72 -3 92 -3h287l7 -69l-77 -98l-120 -185c-7 -10 -20 -36 -32 -62h81c6 0 49 8 72 11c3 7 16 36 16 42c1 4 7 43 7 44l69 -6l-11 -154l-20 -20s-74 3 -94 3h-291l-14 70s70 76 84 98l122 184c7 10 21 36 33 62h-79c-6 0 -43 -8 -65 -11
c-4 -9 -13 -35 -13 -42l-4 -57l-76 3z" />
    <glyph glyph-name="zacute" unicode="&#x17a;" horiz-adv-x="460" 
d="M28 477l21 20s72 -3 92 -3h287l7 -69l-77 -98l-120 -185c-7 -10 -20 -36 -32 -62h81c6 0 49 8 72 11c3 7 16 36 16 42c1 4 7 43 7 44l69 -6l-11 -154l-20 -20s-74 3 -94 3h-291l-14 70s70 76 84 98l122 184c7 10 21 36 33 62h-79c-6 0 -43 -8 -65 -11
c-4 -9 -13 -35 -13 -42l-4 -57l-76 3zM320 755l47 -76s-122 -56 -140 -65l-67 -49l-47 58z" />
    <glyph glyph-name="zcaron" unicode="&#x17e;" horiz-adv-x="460" 
d="M28 477l21 20s72 -3 92 -3h287l7 -69l-77 -98l-120 -185c-7 -10 -20 -36 -32 -62h81c6 0 49 8 72 11c3 7 16 36 16 42c1 4 7 43 7 44l69 -6l-11 -154l-20 -20s-74 3 -94 3h-291l-14 70s70 76 84 98l122 184c7 10 21 36 33 62h-79c-6 0 -43 -8 -65 -11
c-4 -9 -13 -35 -13 -42l-4 -57l-76 3zM74 765l67 -53c10 -5 47 -28 79 -47c32 20 69 42 79 47l67 53l52 -58l-198 -143l-198 143z" />
    <glyph glyph-name="zdotaccent" unicode="&#x17c;" horiz-adv-x="460" 
d="M28 477l21 20s72 -3 92 -3h287l7 -69l-77 -98l-120 -185c-7 -10 -20 -36 -32 -62h81c6 0 49 8 72 11c3 7 16 36 16 42c1 4 7 43 7 44l69 -6l-11 -154l-20 -20s-74 3 -94 3h-291l-14 70s70 76 84 98l122 184c7 10 21 36 33 62h-79c-6 0 -43 -8 -65 -11
c-4 -9 -13 -35 -13 -42l-4 -57l-76 3zM220 735c49 0 79 -30 79 -80c0 -47 -28 -79 -79 -79s-79 32 -79 79s28 80 79 80z" />
    <glyph glyph-name="A.sc" 
d="M522 54l-4 -60s-30 6 -58 6c-127 0 -182 -4 -182 -4l-4 66l40 2l5 16l-8 34h-133l-7 -32l-3 -18l40 -10l-4 -60s-47 6 -90 6c-85 0 -109 -4 -109 -4l-4 66l28 1l32 60l149 413l108 9l152 -457l11 -28zM251 354l-49 -164h86z" />
    <glyph glyph-name="B.sc" horiz-adv-x="509" 
d="M283 543c99 0 187 -47 187 -130c0 -67 -44 -115 -107 -131v-5c75 -11 131 -52 131 -131c0 -108 -92 -150 -198 -150c-52 0 -145 4 -182 4c-43 0 -66 -4 -66 -4l-4 62l41 7c3 11 7 53 7 70v231c0 40 -1 77 -7 99l-40 9l4 66s23 -5 67 -4c26 -1 140 7 167 7zM238 467
c0 -4 -1 -49 -1 -53v-256c0 -34 1 -77 2 -88c11 -2 20 -1 29 -1c52 0 88 35 88 90c0 63 -43 77 -90 77h-8l6 79h4c38 0 70 28 70 89c0 33 -31 65 -76 65c-8 0 -15 -1 -24 -2z" />
    <glyph glyph-name="C.sc" horiz-adv-x="509" 
d="M471 154l7 -140c-50 -12 -109 -25 -176 -25c-188 0 -283 113 -283 279c0 165 95 279 283 279c67 0 119 -13 169 -26l-10 -149l-66 3l-4 53c0 3 -5 20 -9 27c-32 5 -50 7 -80 7c-87 0 -114 -86 -114 -194s26 -194 113 -194c34 0 55 2 90 8c0 -1 14 29 14 35c0 8 2 35 2 35
z" />
    <glyph glyph-name="D.sc" horiz-adv-x="584" 
d="M292 543c182 0 273 -115 273 -275s-88 -273 -273 -273c-58 0 -132 5 -179 5c-46 0 -69 -4 -69 -4l-4 62l45 7c1 3 7 54 7 70v231c0 52 -7 104 -7 99l-45 9l4 66s36 -5 78 -4c30 -1 139 7 170 7zM275 471c-5 0 -19 -4 -36 -8c0 -12 -2 -47 -2 -49v-256c0 -32 2 -75 2 -88
c3 0 20 -1 33 -1c109 0 138 87 138 201c0 109 -30 201 -135 201z" />
    <glyph glyph-name="E.sc" horiz-adv-x="494" 
d="M40 474l4 66s37 -4 71 -4h224c15 0 87 7 87 7l15 -13l5 -127l-61 -4c-1 12 -3 36 -6 47c0 2 -2 10 -3 14c-15 2 -37 3 -60 3h-77c0 -13 -2 -47 -2 -49v-110h50c15 0 27 7 27 7l7 48l54 -4v-63c0 -38 2 -104 2 -104l-56 -4l-7 42s-27 5 -42 5h-35v-73c0 -28 1 -64 1 -79
h89c21 0 40 2 55 5c8 16 11 28 14 36c3 11 6 26 8 39l60 -4l-12 -144l-14 -14s-73 3 -88 3h-235c-49 -1 -71 -4 -71 -4l-4 62l45 7c3 7 7 53 7 70v231c0 52 -1 79 -7 99z" />
    <glyph glyph-name="Eth.sc" horiz-adv-x="574" 
d="M30 474l4 66s36 -5 77 -4c31 -1 139 7 170 7c182 0 274 -115 274 -275s-89 -273 -274 -273c-58 0 -132 5 -178 5c-47 0 -70 -4 -70 -4l-4 62l46 7c-1 -5 7 53 7 70v103h-46v68h46v60c0 52 -8 104 -7 99zM227 238v-80c0 -32 1 -75 2 -88c2 0 19 -1 33 -1
c109 0 137 87 137 201c0 109 -30 201 -135 201c-5 0 -18 -4 -35 -8c-1 -12 -2 -47 -2 -49v-108h57l-4 -68h-53z" />
    <glyph glyph-name="F.sc" horiz-adv-x="452" 
d="M426 543l15 -13l5 -127l-61 -4c-1 12 -3 36 -6 47c0 2 -2 6 -2 13c-15 1 -38 4 -61 4h-77c0 -13 -2 -47 -2 -49v-119c6 -1 7 0 11 0h39c15 0 27 6 27 6l7 48l54 -4v-62c0 -38 2 -104 2 -104l-56 -5l-7 43s-27 4 -42 4h-23c-3 0 -9 1 -12 0v-67c0 -41 4 -75 8 -89l71 -4
l-3 -65s-99 4 -200 4c-47 0 -69 -4 -69 -4l-4 62l45 7c3 7 7 53 7 70v231c0 52 -3 88 -7 99l-45 9l4 66s24 -4 71 -4h224c15 0 87 7 87 7z" />
    <glyph glyph-name="G.sc" horiz-adv-x="560" 
d="M315 547c71 0 126 -13 180 -26l-11 -132l-70 2l-3 37c0 3 -6 20 -9 27c-34 6 -54 7 -86 7c-95 0 -127 -86 -127 -194s31 -194 126 -194c23 0 38 0 58 1c3 10 4 17 4 22v52c0 15 -8 42 -8 42l-82 6l4 91h86c30 0 106 3 106 3l25 -23s-7 -68 -7 -106v-148
c-53 -12 -115 -25 -186 -25c-196 0 -296 113 -296 279c0 165 100 279 296 279z" />
    <glyph glyph-name="H.sc" horiz-adv-x="667" 
d="M624 540l4 -71l-46 -4c-3 -12 -8 -45 -8 -51v-256c0 -42 6 -82 8 -93l40 -4l-3 -65s-69 4 -169 4c-47 0 -70 -4 -70 -4l-3 62l45 7c0 7 7 53 7 70v84h-192v-61c0 -42 7 -82 8 -93l40 -4l-3 -65s-68 4 -169 4c-47 0 -69 -4 -69 -4l-4 62l45 7c1 7 7 53 7 70v231
c0 52 -5 85 -7 99l-45 9l4 66s24 -4 71 -4c100 0 172 4 172 4l4 -71l-46 -4c-3 -12 -8 -45 -8 -51v-114l192 3v63c0 52 -5 85 -7 99l-45 9l4 66s23 -4 70 -4c101 0 173 4 173 4z" />
    <glyph glyph-name="I.sc" horiz-adv-x="337" 
d="M290 540l5 -71l-46 -4c-3 -12 -8 -45 -8 -51v-256c0 -42 6 -82 8 -93l40 -4l-3 -65s-69 4 -169 4c-47 0 -70 -4 -70 -4l-4 62l46 7c0 7 7 53 7 70v231c0 52 -6 85 -7 99l-45 9l4 66s23 -4 70 -4c100 0 172 4 172 4z" />
    <glyph glyph-name="IJ.sc" horiz-adv-x="612" 
d="M577 540l4 -71l-46 -4c-2 -5 -8 -45 -8 -51v-410c0 -27 -59 -75 -152 -156l-50 27s57 118 57 133v358c0 52 -4 86 -7 99l-62 5l-64 -5c-4 -11 -8 -45 -8 -51v-256c0 -42 7 -88 8 -93l40 -4l-3 -65s-69 4 -169 4c-47 0 -70 -4 -70 -4l-4 62l46 7c0 9 7 53 7 70v231
c0 52 -3 82 -7 99l-45 9l4 66s23 -4 70 -4h286c101 0 173 4 173 4z" />
    <glyph glyph-name="J.sc" horiz-adv-x="310" 
d="M279 469l-46 -4c-2 -5 -8 -45 -8 -51v-398c0 -28 -59 -87 -152 -168l-50 27s57 118 57 133v358c0 52 -4 86 -7 99l-45 9l4 66s23 -4 70 -4c100 0 172 4 172 4z" />
    <glyph glyph-name="K.sc" horiz-adv-x="608" 
d="M613 61l-3 -65s-81 4 -180 4c-48 0 -60 -4 -60 -4l-3 62l22 3l-41 64c-17 18 -110 143 -110 143l117 171l17 32l-15 3l4 66s23 -4 71 -4c98 0 144 4 144 4l4 -71l-37 -4c-19 -19 -36 -35 -49 -50l-98 -134c52 -61 105 -122 156 -183c5 -7 20 -20 33 -33zM283 540l5 -71
l-43 -4c-3 -12 -8 -45 -8 -51v-256c0 -42 7 -82 8 -93l35 -4l-3 -65s-66 4 -165 4c-48 0 -65 -4 -65 -4l-4 62l42 7c1 7 7 53 7 70v231c0 52 -5 85 -7 99l-41 9l4 66s17 -4 65 -4c100 0 170 4 170 4z" />
    <glyph glyph-name="L.sc" horiz-adv-x="456" 
d="M287 540l4 -71l-46 -4c-3 -12 -8 -45 -8 -51v-256c0 -33 4 -61 7 -79h63c21 0 42 2 55 5c7 17 13 31 14 36c3 11 6 26 8 39l60 -4l-12 -144l-14 -14s-73 3 -88 3h-217c-47 0 -69 -4 -69 -4l-4 62l45 7c1 7 7 53 7 70v231c0 52 -5 85 -7 99l-45 9l4 66s24 -4 71 -4
c100 0 172 4 172 4z" />
    <glyph glyph-name="M.sc" horiz-adv-x="784" 
d="M512 536h104c28 0 92 4 92 4l3 -61l-43 -10c-1 -16 -2 -28 -2 -37l24 -332c1 -8 5 -23 9 -38l46 -4l-4 -62s-58 4 -152 4c-42 0 -73 -4 -73 -4l-4 58l47 8c2 21 3 47 3 61l-8 243l-128 -366h-93l-122 366l-12 -243c0 -14 0 -41 2 -61l48 -4l-5 -62s-33 4 -128 4
c-42 0 -76 -4 -76 -4l-3 58l48 8c5 15 7 30 9 38l23 332c0 7 -3 21 -6 36l-45 9l4 63s26 -4 68 -5h143l16 -14s19 -80 29 -113l68 -221l76 235c6 18 27 99 27 99z" />
    <glyph glyph-name="N.sc" horiz-adv-x="642" 
d="M617 540l4 -74h-46c-1 -6 -5 -41 -5 -48v-315c0 -42 1 -100 1 -100h-134l-223 295v-140c0 -42 8 -87 8 -93l44 -4l-3 -65s-45 4 -146 4c-47 0 -73 -4 -73 -4l-4 62l45 7c2 8 7 53 7 70v231c0 52 -5 92 -7 99l-44 9l4 66s24 -4 71 -4l102 -1l14 -14s53 -93 64 -110
l153 -208v167c0 37 -6 85 -7 96l-45 12l4 63l84 -5c63 0 132 4 132 4z" />
    <glyph glyph-name="O.sc" horiz-adv-x="611" 
d="M592 268c0 -175 -120 -284 -287 -284s-286 109 -286 284s119 284 286 284s287 -109 287 -284zM187 268c0 -147 38 -192 118 -192c81 0 119 45 119 192s-38 192 -119 192c-80 0 -118 -45 -118 -192z" />
    <glyph glyph-name="OE.sc" horiz-adv-x="791" 
d="M800 155l-11 -144l-15 -14s-72 3 -88 3h-235c-25 -1 -37 -2 -48 -2c-30 -10 -63 -14 -98 -14c-167 0 -286 109 -286 284s119 284 286 284c35 0 68 -4 97 -14c14 -1 30 -2 49 -2h224c16 0 88 7 88 7l15 -13l5 -127l-61 -4c-2 12 -3 36 -6 47c-1 2 -2 10 -4 14
c-14 2 -36 3 -60 3h-76c0 -6 -2 -46 -2 -49v-109h50c15 0 27 7 27 7l7 48l54 -4s-1 -46 -1 -61c0 -38 3 -104 3 -104l-56 -5l-7 43s-27 5 -43 5h-34v-76c0 -28 0 -64 1 -79h88c22 0 41 2 56 5c7 16 11 28 13 36c4 11 7 26 8 39zM441 186v197c-37 48 -45 77 -136 77
c-80 0 -118 -45 -118 -192s38 -192 118 -192c90 0 111 43 136 110z" />
    <glyph glyph-name="Oslash.sc" horiz-adv-x="603" 
d="M594 268c0 -175 -119 -284 -286 -284c-39 0 -76 6 -109 17l-57 -106l-50 25l56 105c-79 47 -127 131 -127 243c0 175 120 284 287 284c39 0 76 -6 110 -18l55 103l52 -25l-55 -103c76 -47 124 -131 124 -241zM189 268c0 -59 6 -101 18 -131l164 308c-17 10 -38 15 -63 15
c-81 0 -119 -45 -119 -192zM426 268c0 56 -6 97 -17 127l-163 -306c17 -10 37 -13 62 -13c80 0 118 45 118 192z" />
    <glyph glyph-name="P.sc" horiz-adv-x="500" 
d="M298 543c109 0 187 -63 187 -169c0 -110 -106 -176 -219 -176h-29v-40c0 -42 7 -82 8 -93l50 -4l-3 -65s-78 4 -179 4c-47 0 -69 -4 -69 -4l-4 62l45 7c1 7 7 53 7 70v231c0 52 -5 85 -7 99l-45 9l4 66s24 -4 71 -4h27c44 1 116 7 156 7zM237 414v-141c60 2 97 41 97 103
c0 65 -20 92 -87 92h-8c-1 -19 -2 -50 -2 -54z" />
    <glyph glyph-name="Q.sc" horiz-adv-x="614" 
d="M536 -170l-221 153c-3 0 -7 1 -10 1c-167 0 -286 109 -286 284s119 284 286 284s287 -109 287 -284c0 -118 -57 -206 -142 -252l46 -29c12 -7 121 -50 121 -50zM187 268c0 -147 38 -192 118 -192c81 0 119 45 119 192s-38 192 -119 192c-80 0 -118 -45 -118 -192z" />
    <glyph glyph-name="R.sc" horiz-adv-x="524" 
d="M292 543c108 0 186 -64 186 -162c0 -60 -35 -110 -85 -142c35 -70 80 -134 83 -139l22 -37l27 -2l-3 -65s-60 4 -160 4c0 0 -26 70 -36 88l-58 112h-14c-4 0 -10 1 -17 2v-44c0 -42 7 -82 8 -93l40 -4l-3 -65s-68 4 -169 4c-47 0 -69 -4 -69 -4l-4 62l45 7c1 7 7 53 7 70
v231c0 50 -5 83 -7 99l-45 9l4 66s35 -5 81 -4c45 -1 123 7 167 7zM327 379c0 60 -22 89 -86 89c-2 -24 -4 -54 -4 -54v-135h1c70 0 89 36 89 100z" />
    <glyph glyph-name="S.sc" horiz-adv-x="455" 
d="M47 186l71 -3s1 -55 1 -63c0 -2 6 -10 12 -21c10 -7 34 -21 74 -21c35 0 69 13 69 46c0 105 -236 76 -236 266c0 95 79 157 189 157c56 0 120 -11 176 -29l-11 -164l-73 3v69c0 1 -3 6 -9 17c-9 6 -23 18 -47 18c-45 0 -71 -20 -71 -49c0 -93 233 -72 233 -248
c0 -106 -89 -175 -205 -175c-104 0 -185 34 -185 34z" />
    <glyph glyph-name="T.sc" horiz-adv-x="503" 
d="M492 394l-61 -3c0 11 -3 44 -6 55c-1 2 -2 6 -3 13c-12 1 -32 4 -56 4h-34c-3 -11 -8 -42 -8 -49v-256c0 -42 7 -82 8 -93l40 -4l-3 -65s-68 4 -169 4c-47 0 -69 -4 -69 -4l-4 62l45 7c1 7 7 53 7 70v231c0 51 -5 85 -7 97h-29c-24 0 -47 -3 -62 -4c0 -7 -1 -11 -2 -13
c-3 -11 -6 -44 -6 -55l-61 3l5 136l15 13s72 -7 88 -7h263c15 0 88 7 88 7l14 -13z" />
    <glyph glyph-name="Thorn.sc" horiz-adv-x="476" 
d="M285 469l-46 -4l-7 -35c25 1 46 2 60 2c109 0 187 -62 187 -161c0 -104 -88 -161 -194 -161c-15 0 -33 -1 -51 -1c2 -22 5 -37 5 -44l40 -4l-3 -65s-68 4 -168 4c-47 0 -70 -4 -70 -4l-4 62l46 7c0 7 7 53 7 70v231c0 52 -6 85 -7 99l-46 9l4 66s24 -4 71 -4
c100 0 172 4 172 4zM232 358v-173c60 2 97 33 97 87c0 58 -20 84 -88 84c-1 0 -3 1 -9 2z" />
    <glyph glyph-name="U.sc" horiz-adv-x="629" 
d="M599 540l4 -71l-46 -4c-2 -11 -7 -44 -7 -49v-211c0 -130 -82 -216 -236 -216c-155 0 -235 86 -235 216v163c0 52 -4 86 -7 97l-44 9l3 66s24 -4 71 -4c100 0 175 4 175 4l5 -71l-46 -4c-3 -7 -8 -44 -8 -49v-221c0 -53 37 -99 102 -99c75 0 94 34 94 99v173
c0 52 -5 85 -7 97l-44 9l3 66s28 -4 75 -4c100 0 148 4 148 4z" />
    <glyph glyph-name="X.sc" horiz-adv-x="536" 
d="M189 256l-118 168l-37 53l-29 5l4 59s39 -5 74 -5c119 0 154 4 154 4l1 -68l-17 3c8 -18 23 -41 31 -53l29 -46l40 63c7 9 15 23 21 38l-17 5l5 59s41 -5 85 -5c76 0 103 4 103 4l3 -68l-49 -3c-15 -14 -30 -28 -37 -37l-95 -141l136 -191c8 -8 19 -23 33 -37l28 -2
l-4 -66s-70 5 -197 5c-30 0 -29 -4 -29 -4l-2 63l16 1c-9 18 -19 38 -27 48l-46 64l-50 -72c-7 -8 -15 -23 -23 -38l26 -1l-5 -66s-51 5 -140 5c-48 0 -51 -4 -51 -4l-2 63l36 4c22 22 48 48 58 62z" />
    <glyph glyph-name="Y.sc" horiz-adv-x="576" 
d="M577 474l-43 -1s-38 -44 -48 -60l-123 -234v-21c0 -42 7 -82 8 -93l40 -4l-3 -65s-68 4 -169 4c-47 0 -69 -4 -69 -4l-4 62l45 7c1 7 7 53 7 70v50l-146 262c-8 11 -34 28 -34 28l-43 7l3 60s35 -6 64 -6c123 0 185 4 185 4l4 -66l-30 -2s4 -19 3 -16l82 -165l83 162
l-7 19l-21 10l4 60s50 -6 93 -6c83 0 115 4 115 4z" />
    <glyph glyph-name="Z.sc" horiz-adv-x="500" 
d="M275 456h-106c-25 0 -48 -3 -63 -4l-8 -19l-13 -54l-61 3l6 148l15 13s74 -7 89 -7h311l9 -71l-82 -125l-106 -170l-45 -90h102c22 0 47 3 63 6c8 19 15 36 16 41c3 11 7 25 9 37l57 -4l-11 -149l-16 -14s-74 3 -89 3h-312l-9 70s69 89 85 118l128 202z" />
    <glyph glyph-name="n.sups" unicode="&#x207f;" horiz-adv-x="431" 
d="M13 727l6 51s50 -7 81 -7l33 2l14 -13l7 -48c27 40 61 65 111 65c69 0 110 -37 110 -109v-89c0 -33 7 -77 7 -77l41 -4l-3 -51s-46 3 -125 3c-34 0 -54 -3 -54 -3l-4 48l36 7c1 25 2 53 2 57v98c0 29 -14 50 -45 50c-29 0 -61 -28 -61 -86l-1 2l1 -8v-36
c0 -33 6 -77 6 -77l41 -4l-3 -51s-46 3 -124 3c-35 0 -65 -3 -65 -3l-3 48l42 7s6 45 6 58v98c0 13 -7 58 -7 58z" />
    <glyph glyph-name="a.sups" horiz-adv-x="354" 
d="M210 450l-4 46c-21 -37 -47 -53 -88 -53c-61 0 -98 36 -98 95c0 51 29 81 87 90l92 14v19c0 41 -15 56 -47 56c-15 0 -37 -5 -52 -12l-5 -25l1 -33l-52 -2l-10 114c38 10 92 18 121 18c89 0 144 -44 144 -113v-85c0 -33 5 -77 5 -77l39 -4l-4 -51s-32 3 -129 3zM199 598
l-40 -5c-24 -5 -33 -16 -33 -40c0 -26 10 -37 33 -37c19 0 33 12 40 35v47z" />
    <glyph glyph-name="b.sups" horiz-adv-x="390" 
d="M-3 897l6 52s50 -8 81 -8l62 2l14 -13s-7 -89 -7 -122v-76c23 29 51 45 94 45c92 0 124 -72 124 -162c0 -110 -57 -172 -168 -172c-40 0 -88 4 -157 24c0 0 7 79 7 92v269c0 13 -7 58 -7 58zM206 697c-38 0 -50 -35 -53 -80v-38c0 -18 1 -41 1 -60c14 -5 28 -9 40 -9
c56 0 64 41 64 95c0 45 -6 92 -52 92z" />
    <glyph glyph-name="c.sups" horiz-adv-x="315" 
d="M182 777c56 0 115 -15 120 -15l-11 -121l-60 2l1 37l-2 26c-10 10 -28 17 -41 17c-38 0 -57 -31 -57 -114c0 -72 27 -102 77 -102c44 0 74 20 74 20l24 -39c-40 -35 -84 -48 -121 -48c-109 0 -167 57 -167 169c0 105 63 168 163 168zM302 763v-1v1z" />
    <glyph glyph-name="d.sups" horiz-adv-x="400" 
d="M381 498l-4 -51s-33 3 -129 3l-4 48c-31 -41 -58 -55 -102 -55c-80 0 -124 58 -124 161c0 111 61 173 171 173c13 0 31 -1 47 -1v52c0 13 -6 58 -6 58l-48 11l6 52s49 -8 79 -8l62 2l14 -13s-7 -89 -7 -122v-229c0 -33 6 -77 6 -77zM236 605v100c-17 4 -30 6 -39 6
c-47 0 -66 -27 -66 -96c0 -64 16 -92 52 -92c32 0 49 27 53 82z" />
    <glyph glyph-name="e.sups" horiz-adv-x="343" 
d="M181 777c94 0 147 -59 140 -159l-15 -26h-174c5 -68 31 -86 82 -86c46 0 76 20 76 20l24 -39c-41 -37 -85 -47 -132 -47c-101 0 -163 59 -163 167c0 111 67 170 162 170zM172 722c-30 0 -38 -32 -40 -80l76 4s1 3 1 4c0 50 -12 72 -37 72z" />
    <glyph glyph-name="f.sups" horiz-adv-x="248" 
d="M187 951c49 0 103 -10 103 -10l-10 -113l-52 2v30c0 6 -1 19 -2 28c-6 3 -14 6 -25 6c-28 0 -34 -22 -34 -73v-50h70l-7 -51h-63v-141c0 -33 6 -77 6 -77l55 -4l-3 -51s-51 3 -130 3c-35 0 -65 -3 -65 -3l-3 48l34 7s6 44 6 57v161h-35l-2 43c15 5 27 8 37 11v51
c0 72 48 126 120 126z" />
    <glyph glyph-name="g.sups" horiz-adv-x="356" 
d="M341 719l-36 -1c10 -17 15 -32 15 -57c0 -72 -58 -119 -145 -119c-17 0 -32 2 -45 5c-5 -7 -8 -12 -8 -16c0 -14 16 -21 54 -25c99 -10 122 -14 137 -19c23 -9 35 -30 35 -62c0 -72 -79 -128 -179 -128c-98 0 -148 32 -148 93c0 15 25 37 61 55c-19 15 -27 34 -27 63
c0 9 12 26 39 52c-38 19 -61 54 -61 98c0 71 58 119 145 119c27 0 52 -4 73 -13l87 14zM178 732c-24 0 -36 -24 -36 -76c0 -47 11 -69 34 -69c24 0 35 24 35 75c0 48 -11 70 -33 70zM124 428c-5 -7 -9 -19 -9 -27c0 -31 31 -49 85 -49c39 0 63 14 63 36c0 10 -9 19 -21 21
l-86 13z" />
    <glyph glyph-name="h.sups" horiz-adv-x="429" 
d="M11 897l6 52s50 -8 81 -8l62 2l14 -13c-3 -29 -7 -89 -7 -122v-74c23 27 51 43 89 43c73 0 118 -37 118 -109v-89c0 -33 6 -77 6 -77l41 -4l-3 -51s-46 3 -125 3c-34 0 -54 -3 -54 -3l-4 48l36 7c1 25 3 53 3 57v98c0 29 -15 50 -46 50c-29 0 -61 -28 -61 -86v-42
c0 -33 6 -78 6 -77l41 -4l-3 -51s-45 3 -124 3c-35 0 -65 -3 -65 -3l-3 48l42 7c1 8 6 44 6 57v269c0 13 -7 58 -7 58z" />
    <glyph glyph-name="i.sups" horiz-adv-x="231" 
d="M216 498l-3 -51s-46 3 -124 3c-35 0 -65 -3 -65 -3l-3 48l42 7s6 44 6 57v99c0 13 -7 58 -7 58l-49 11l6 51s50 -7 81 -7l62 2l14 -13s-7 -89 -7 -122v-59c0 -33 6 -77 6 -77zM116 930c34 0 55 -21 55 -54c0 -32 -19 -54 -55 -54c-35 0 -54 22 -54 54c0 31 19 54 54 54z
" />
    <glyph glyph-name="j.sups" horiz-adv-x="215" 
d="M5 727l6 51s50 -7 81 -7l62 2l14 -13s-7 -89 -7 -122v-195c0 -26 -117 -146 -117 -146l-33 18s50 123 50 149v194c0 13 -7 58 -7 58zM105 930c34 0 55 -21 55 -54c0 -32 -20 -54 -55 -54s-55 22 -55 54c0 31 20 54 55 54z" />
    <glyph glyph-name="k.sups" horiz-adv-x="416" 
d="M11 897l6 52s50 -8 81 -8l62 2l14 -13c-3 -29 -7 -89 -7 -122v-229c0 -33 6 -78 6 -77l41 -4l-3 -51s-45 3 -124 3c-35 0 -65 -3 -65 -3l-3 48l42 7c1 8 6 44 6 57v269c0 13 -7 58 -7 58zM251 722l-37 4l4 49s61 -4 114 -4c21 0 75 3 75 3l-2 -48l-32 -2
c-20 -12 -44 -25 -52 -36l-42 -56l41 -72c4 -7 31 -35 51 -58l39 -4l-4 -51s-37 3 -72 3h-64l-23 41l-10 4l-11 26l-52 101z" />
    <glyph glyph-name="l.sups" horiz-adv-x="229" 
d="M11 897l6 52s50 -8 81 -8l62 2l14 -13c-3 -29 -7 -89 -7 -122v-229c0 -33 6 -78 6 -77l41 -4l-3 -51s-45 3 -124 3c-35 0 -65 -3 -65 -3l-3 48l42 7c1 8 6 44 6 57v269c0 13 -7 58 -7 58z" />
    <glyph glyph-name="m.sups" horiz-adv-x="616" 
d="M259 777c47 0 81 -19 96 -57c25 35 56 57 101 57c65 0 105 -37 105 -109v-89c0 -33 6 -77 6 -77l41 -4l-3 -51s-45 3 -124 3c-35 0 -55 -3 -55 -3l-3 48l35 7c1 25 3 53 3 57v98c0 29 -13 50 -40 50c-26 0 -54 -26 -56 -78v-50c0 -33 6 -77 6 -77l41 -4l-3 -51
s-45 3 -124 3c-35 0 -55 -3 -55 -3l-3 48l35 7c1 25 3 53 3 57v98c0 29 -13 50 -40 50s-56 -28 -56 -86l-1 2l1 -8v-36c0 -33 6 -77 6 -77l41 -4l-3 -51s-46 3 -124 3c-35 0 -65 -3 -65 -3l-3 48l42 7s6 45 6 58v98c0 13 -7 58 -7 58l-49 11l6 51s50 -7 81 -7l33 2l14 -13
l7 -47c26 39 58 64 105 64z" />
    <glyph glyph-name="o.sups" horiz-adv-x="368" 
d="M349 608c0 -109 -59 -168 -165 -168s-165 59 -165 168c0 111 59 169 165 169c105 0 165 -59 165 -169zM236 608c0 83 -17 110 -52 110c-36 0 -52 -27 -52 -110c0 -82 16 -109 52 -109c35 0 52 27 52 109z" />
    <glyph glyph-name="p.sups" horiz-adv-x="401" 
d="M259 777c79 0 123 -59 123 -162c0 -111 -59 -172 -168 -172c-16 0 -33 1 -50 1v-14c0 -33 7 -81 7 -81l49 -4l-3 -47s-43 3 -122 3c-33 0 -66 -3 -66 -3l-3 44l31 7s7 49 7 62v247c0 13 -7 58 -7 58l-49 11l6 51s44 -7 80 -7l34 2l14 -13l7 -48c30 47 61 65 110 65z
M217 697c-32 0 -50 -27 -53 -81v-100c16 -4 30 -6 41 -6c45 0 63 26 63 95c0 63 -16 92 -51 92z" />
    <glyph glyph-name="q.sups" horiz-adv-x="388" 
d="M374 345l-3 -48s-43 3 -122 3c-33 0 -66 -3 -66 -3l-3 44l51 7s6 49 6 62v77c-26 -33 -54 -44 -94 -44c-81 0 -124 57 -124 161c0 111 61 172 171 172c43 0 107 -9 154 -23c0 0 -7 -79 -7 -88v-236c0 -32 7 -81 7 -81zM184 523c32 0 49 27 53 81v33c0 22 -1 47 -2 65
c-16 5 -28 8 -37 8c-48 0 -66 -26 -66 -96c0 -64 16 -91 52 -91z" />
    <glyph glyph-name="r.sups" horiz-adv-x="315" 
d="M147 760l6 -43c23 35 53 60 91 60c23 0 56 -7 56 -7l-11 -135l-51 2v36c0 5 -4 27 -4 34c-2 1 -3 1 -4 1c-28 0 -62 -30 -61 -88v-41c0 -33 6 -77 6 -77l53 -4l-3 -51s-51 3 -130 3c-35 0 -73 -3 -73 -3l-3 48l44 7s6 44 6 57v99c0 13 -7 58 -7 58l-49 11l6 51
s50 -7 81 -7l33 2z" />
    <glyph glyph-name="s.sups" horiz-adv-x="285" 
d="M147 777c48 0 78 -8 104 -17l-8 -104l-44 3v29c0 3 -7 18 -10 22c-10 5 -25 11 -45 11c-30 0 -40 -11 -40 -21c0 -44 161 -27 161 -154c0 -66 -51 -103 -128 -103c-44 0 -116 13 -116 13l9 111l47 -3v-30c0 -3 6 -25 5 -21c18 -7 39 -14 57 -14c20 0 38 8 38 23
c0 48 -155 28 -155 156c0 69 50 99 125 99z" />
    <glyph glyph-name="t.sups" horiz-adv-x="246" 
d="M221 517l26 -39c-22 -17 -49 -35 -90 -35c-73 0 -102 37 -102 108v169h-41l-2 43c18 7 66 26 67 29c9 12 37 56 37 56l39 -2v-75h76l-7 -51h-69v-176c0 -19 13 -39 34 -39c16 0 32 12 32 12z" />
    <glyph glyph-name="u.sups" horiz-adv-x="422" 
d="M205 727l7 51s50 -7 81 -7l62 2l14 -13s-7 -89 -7 -122v-59c0 -33 6 -77 6 -77l38 -4l-4 -51s-32 3 -128 3l-6 51c-26 -35 -55 -53 -94 -53c-74 0 -118 37 -118 109v101c0 13 -7 60 -7 60l-35 9l7 51s47 -7 78 -7l50 2l14 -13s-7 -89 -7 -122v-65c0 -31 13 -55 45 -55
c29 0 61 27 61 87v53c0 13 -7 58 -7 58z" />
    <glyph glyph-name="v.sups" horiz-adv-x="381" 
d="M372 726l-29 -3l-31 -66l-79 -207h-92s-72 209 -78 224c-2 8 -9 30 -18 50l-43 7l3 47s53 -7 106 -7c21 0 65 3 65 3l4 -48l-28 -2c2 -19 5 -36 6 -43l33 -129l43 128c3 8 8 28 12 44l-26 2l3 49s39 -4 91 -4c22 0 54 3 54 3z" />
    <glyph glyph-name="w.sups" horiz-adv-x="562" 
d="M555 726l-29 -3c-12 -26 -27 -57 -30 -66l-78 -207h-93l-44 144l-49 -144h-93s-72 209 -78 224c-2 8 -9 30 -18 50l-38 7l3 47s48 -7 101 -7c21 0 78 3 78 3l3 -48l-42 -2c4 -19 7 -36 8 -44l33 -128l68 219h64l56 -219l41 129c2 8 8 27 11 43l-34 2l3 49s47 -4 100 -4
c21 0 53 3 53 3z" />
    <glyph glyph-name="x.sups" horiz-adv-x="392" 
d="M166 725l15 -26l23 -37l21 35l19 28l-19 2l4 48s38 -4 89 -4c21 0 52 3 52 3l4 -47l-21 -3l-67 -77l-25 -32l38 -51l58 -63l25 -8l-2 -49s-62 6 -106 6c-28 0 -66 -3 -66 -3l-4 51l24 1l-6 10l-37 56l-39 -60l-2 -6l17 -1l-3 -51s-41 3 -85 3c-28 0 -56 -3 -56 -3l-4 51
l22 3l63 73l30 41l-29 41l-65 70l-20 5l3 47s61 -7 112 -7c20 0 63 3 63 3l4 -47z" />
    <glyph glyph-name="y.sups" horiz-adv-x="389" 
d="M205 560l37 126c3 6 7 27 6 38l-25 2l4 49s34 -4 83 -4c25 0 71 3 71 3l3 -48l-32 -2c-6 -10 -22 -47 -26 -60l-146 -367l-135 9l7 54l39 -1c9 0 18 0 26 3c8 9 14 21 19 35l20 53l-79 210c-6 15 -19 51 -26 64l-44 7l4 47s51 -7 99 -7c25 0 72 3 72 3l3 -48l-24 -2
c0 -13 5 -33 8 -42z" />
    <glyph glyph-name="z.sups" horiz-adv-x="312" 
d="M19 760l14 13s48 -2 61 -2h195l5 -46l-50 -62l-79 -121c-4 -6 -12 -20 -19 -36h48c4 0 34 6 49 7c2 4 11 25 10 27c1 2 5 30 5 29l47 -4l-8 -104l-13 -13s-47 2 -60 2h-199l-10 47s45 48 54 62l81 120c4 6 12 20 19 36h-46c-4 0 -30 -5 -45 -7c-2 -6 -7 -21 -7 -25
l-3 -39l-52 1z" />
    <glyph glyph-name="zero" unicode="0" horiz-adv-x="572" 
d="M26 326c0 180 73 336 260 336s260 -156 260 -336s-73 -336 -260 -336s-260 156 -260 336zM382 326c0 116 -16 251 -96 251s-96 -135 -96 -251s16 -251 96 -251s96 135 96 251z" />
    <glyph glyph-name="one" unicode="1" horiz-adv-x="426" 
d="M409 71l-6 -76s-77 5 -191 5c-46 0 -129 -5 -129 -5l-5 70l89 12s9 66 9 86v321l-103 -39l-37 62s121 92 141 108c11 9 49 57 49 57l103 -12s-8 -184 -8 -234v-233c0 -50 9 -116 10 -116z" />
    <glyph glyph-name="two" unicode="2" horiz-adv-x="547" 
d="M244 662c148 0 230 -63 230 -172c0 -102 -56 -186 -276 -372h120c30 0 83 9 87 10l16 51l7 37l78 -6l-8 -193l-30 -20s-90 3 -109 3h-326l-14 99c232 210 294 288 294 378c0 57 -36 87 -90 87c-29 0 -58 -8 -87 -24c-6 -19 -8 -31 -8 -38v-43l-79 -5l-7 173
c67 24 132 35 202 35z" />
    <glyph glyph-name="three" unicode="3" horiz-adv-x="491" 
d="M199 662c147 0 225 -60 225 -175c0 -63 -40 -119 -111 -155c79 -17 139 -85 139 -158c0 -142 -175 -261 -411 -279l-22 76c162 18 269 94 269 192c0 71 -34 107 -102 107c-26 0 -62 -4 -62 -4l-14 73c106 18 162 72 162 154c0 53 -28 81 -79 81c-25 0 -52 -5 -73 -12
c0 0 -8 -35 -8 -39v-53l-79 -5l-14 168c57 19 119 29 180 29z" />
    <glyph glyph-name="four" unicode="4" horiz-adv-x="563" 
d="M364 739l100 -84s-104 -102 -119 -125l-190 -257h139v97l140 48v-136l94 5v-105h-94v-22c0 -42 9 -82 9 -83l87 -6l-5 -76s-104 5 -214 5c-45 0 -127 -5 -127 -5l-5 70l106 12c0 1 9 65 9 84v21h-210l-74 92z" />
    <glyph glyph-name="five" unicode="5" horiz-adv-x="486" 
d="M174 652l243 10l6 -127s-128 -14 -158 -14h-94l-9 -142c20 3 45 4 62 4c147 0 226 -75 226 -196c0 -156 -132 -253 -385 -292l-22 74c177 40 251 96 251 195c0 73 -35 116 -116 116c-22 0 -51 -3 -89 -14l-47 54l25 314l19 18h88z" />
    <glyph glyph-name="six" unicode="6" horiz-adv-x="552" 
d="M323 413c125 0 199 -80 199 -205c0 -132 -108 -219 -240 -219c-155 0 -252 102 -252 257c0 211 148 448 450 501l16 -66c-227 -74 -307 -270 -307 -435c0 -73 19 -165 92 -165c62 0 81 65 81 127c0 60 -18 126 -78 126c-14 0 -34 -3 -34 -3l-6 72c15 5 48 10 79 10z" />
    <glyph glyph-name="seven" unicode="7" horiz-adv-x="511" 
d="M46 641l18 20s97 -9 120 -9h318l16 -69l-316 -688l-125 43l225 441c7 14 31 93 44 141h-153c-10 0 -34 -2 -56 -4c-4 -14 -10 -28 -15 -42l-8 -46l-79 3z" />
    <glyph glyph-name="eight" unicode="8" horiz-adv-x="543" 
d="M52 522c0 106 112 160 219 160s218 -56 218 -163c0 -74 -57 -133 -106 -170c68 -41 128 -94 128 -193c0 -114 -126 -166 -241 -166c-121 0 -240 53 -240 174c0 82 68 141 127 178c-58 39 -105 91 -105 180zM177 165c0 -57 36 -93 94 -93c57 0 92 32 92 90
c0 60 -52 93 -113 126c-38 -29 -73 -71 -73 -123zM345 518c0 47 -26 82 -74 82c-45 0 -75 -35 -75 -79c0 -56 42 -90 96 -121c28 31 53 71 53 118z" />
    <glyph glyph-name="nine" unicode="9" horiz-adv-x="552" 
d="M239 238c-130 0 -209 75 -209 205c0 122 107 219 240 219c163 0 252 -107 252 -257c0 -211 -142 -457 -444 -510l-22 74c249 66 307 271 307 436c0 85 -27 165 -92 165c-62 0 -81 -65 -81 -127c0 -70 30 -126 78 -126c14 0 34 3 34 3l6 -72c-15 -5 -38 -10 -69 -10z" />
    <glyph glyph-name="zero.sinf" unicode="&#x2080;" horiz-adv-x="414" 
d="M25 118c0 121 51 226 182 226s182 -105 182 -226c0 -120 -51 -225 -182 -225s-182 105 -182 225zM268 118c0 77 -10 165 -61 165s-61 -88 -61 -165c0 -76 10 -165 61 -165s61 89 61 165z" />
    <glyph glyph-name="one.sinf" unicode="&#x2081;" horiz-adv-x="319" 
d="M301 -50l-4 -53s-56 3 -139 3c-35 0 -89 -3 -89 -3l-4 49l62 8c-1 -2 6 45 6 58v207l-70 -23l-27 44s84 61 98 72c8 6 34 38 34 38l78 -8s-6 -123 -6 -157v-152c0 -35 7 -81 7 -79z" />
    <glyph glyph-name="two.sinf" unicode="&#x2082;" horiz-adv-x="401" 
d="M178 344c105 0 163 -43 163 -117c0 -66 -44 -126 -189 -244h76c18 0 62 7 62 7s8 27 10 34l6 27l57 -4l-6 -136l-22 -13s-61 2 -73 2h-231l-10 70c155 131 201 188 201 248c0 37 -24 55 -59 55c-19 0 -39 -6 -59 -16c-4 -13 -5 -19 -5 -24v-28l-58 -4l-4 119
c46 16 93 24 141 24z" />
    <glyph glyph-name="three.sinf" unicode="&#x2083;" horiz-adv-x="361" 
d="M149 344c103 0 158 -41 158 -119c0 -41 -27 -78 -76 -103c53 -10 95 -57 95 -105c0 -96 -123 -176 -287 -187l-15 54c109 10 181 60 181 125c0 47 -21 70 -66 70c-17 0 -42 -3 -42 -3l-10 52c70 12 108 49 108 103c0 33 -18 49 -51 49c-16 0 -36 -3 -50 -6
c-4 -19 -3 -17 -3 -19v-43l-59 -3l-10 115c39 13 83 20 127 20z" />
    <glyph glyph-name="four.sinf" unicode="&#x2084;" horiz-adv-x="412" 
d="M261 395l73 -60s-70 -65 -80 -80l-131 -170h88v59l104 35v-88l65 4v-75h-65v-14c0 -28 7 -54 7 -53l44 -4l-3 -52s-62 3 -142 3c-34 0 -78 -3 -78 -3l-3 48l65 8c0 -1 6 45 6 58v9h-139l-55 66z" />
    <glyph glyph-name="five.sinf" unicode="&#x2085;" horiz-adv-x="358" 
d="M132 337l168 7l4 -93s-82 -8 -103 -8h-69s-1 -33 -5 -86c13 1 29 2 40 2c103 0 156 -52 156 -132c0 -104 -88 -169 -268 -197l-15 53c132 30 168 65 168 127c0 47 -22 75 -76 75c-15 0 -35 -2 -61 -9l-33 40c6 101 18 209 18 209l13 12h63z" />
    <glyph glyph-name="six.sinf" unicode="&#x2086;" horiz-adv-x="404" 
d="M229 178c90 0 144 -49 144 -137c0 -82 -75 -148 -168 -148c-114 0 -176 71 -176 172c0 141 103 300 313 335l12 -46c-153 -49 -208 -180 -208 -289c0 -56 17 -106 58 -106s51 42 51 82c0 46 -19 82 -48 82c-7 0 -20 -2 -20 -2l-4 51c9 3 25 6 46 6z" />
    <glyph glyph-name="seven.sinf" unicode="&#x2087;" horiz-adv-x="373" 
d="M39 329l12 14s67 -6 83 -6h225l11 -50l-221 -457l-96 32l156 287c5 8 30 62 35 92h-104c-6 0 -20 -1 -35 -2c-3 -10 -7 -19 -11 -30l-5 -30l-58 2z" />
    <glyph glyph-name="eight.sinf" unicode="&#x2088;" horiz-adv-x="397" 
d="M45 249c0 68 73 108 153 108c78 0 153 -39 153 -109c0 -50 -40 -87 -78 -112c49 -27 93 -65 93 -127c0 -82 -81 -116 -168 -116c-85 0 -168 35 -168 117c0 54 48 92 92 118c-41 26 -77 62 -77 121zM136 10c0 -37 22 -59 62 -59s61 19 61 56c0 42 -34 64 -75 86
c-25 -19 -48 -47 -48 -83zM247 248c0 33 -21 51 -49 51c-25 0 -49 -18 -49 -49c0 -41 28 -62 64 -82c18 21 34 48 34 80z" />
    <glyph glyph-name="nine.sinf" unicode="&#x2089;" horiz-adv-x="404" 
d="M175 58c-91 0 -144 50 -144 138c0 82 75 148 168 148c114 0 176 -72 176 -172c0 -141 -100 -308 -309 -342l-17 53c170 42 209 179 209 289c0 55 -17 106 -58 106c-40 0 -51 -43 -51 -82c0 -46 18 -82 48 -82c7 0 18 1 20 2l4 -52c-9 -3 -24 -6 -46 -6z" />
    <glyph glyph-name="zero.sups" unicode="&#x2070;" horiz-adv-x="384" 
d="M18 662c0 117 49 218 174 218s174 -101 174 -218s-49 -219 -174 -219s-174 102 -174 219zM250 662c0 74 -10 160 -58 160s-57 -86 -57 -160s9 -160 57 -160s58 86 58 160z" />
    <glyph glyph-name="one.sups" unicode="&#xb9;" horiz-adv-x="294" 
d="M283 498l-4 -51s-54 3 -133 3c-34 0 -86 -3 -86 -3l-3 48l59 7c-1 -2 6 44 6 57v200l-67 -22l-26 43s81 59 94 70c7 6 32 37 32 37l76 -8s-6 -120 -6 -152v-148c0 -34 7 -79 7 -77z" />
    <glyph glyph-name="two.sups" unicode="&#xb2;" horiz-adv-x="373" 
d="M166 880c102 0 155 -43 155 -117c0 -66 -39 -112 -176 -230h76c18 0 52 7 52 7s8 27 10 34l6 27l57 -4l-6 -136l-22 -13s-61 2 -73 2h-221l-10 70c147 131 193 177 193 237c0 32 -24 54 -56 54c-17 0 -36 -6 -54 -16c-4 -13 -5 -21 -5 -26v-28l-58 -4l-4 119
c44 16 90 24 136 24z" />
    <glyph glyph-name="three.sups" unicode="&#xb3;" horiz-adv-x="335" 
d="M137 880c99 0 152 -39 152 -115c0 -40 -26 -76 -73 -100c51 -9 91 -55 91 -101c0 -93 -118 -171 -275 -182l-15 53c104 10 173 57 173 121c0 45 -20 67 -63 67c-15 0 -40 -3 -40 -3l-9 51c67 12 103 48 103 101c0 31 -17 47 -49 47c-15 0 -34 -3 -47 -7
c-4 -18 -3 -15 -3 -18l-1 -41l-57 -4l-9 112c37 13 80 19 122 19z" />
    <glyph glyph-name="four.sups" unicode="&#x2074;" horiz-adv-x="384" 
d="M244 930l70 -59s-66 -62 -76 -77l-126 -164h84v57l101 34v-85l62 3v-73h-62v-13c0 -27 6 -53 6 -52l42 -3l-3 -51s-60 3 -136 3c-33 0 -75 -3 -75 -3l-3 47l62 7c0 -1 6 44 6 57v8h-132l-53 65z" />
    <glyph glyph-name="five.sups" unicode="&#x2075;" horiz-adv-x="332" 
d="M121 874l160 6l4 -90s-78 -8 -97 -8h-66s-2 -31 -6 -82c12 1 28 1 38 1c99 0 150 -50 150 -128c0 -100 -84 -164 -256 -191l-16 52c127 29 161 62 161 122c0 46 -21 74 -73 74c-14 0 -33 -2 -57 -9l-33 39c7 99 18 202 18 202l12 12h61z" />
    <glyph glyph-name="six.sups" unicode="&#x2076;" horiz-adv-x="376" 
d="M218 723c85 0 136 -44 136 -132c0 -82 -73 -148 -163 -148c-111 0 -171 71 -171 172c0 135 101 287 302 321l11 -47c-142 -46 -196 -171 -196 -274c0 -56 15 -106 53 -106c37 0 46 42 46 82c0 46 -16 77 -41 77c-6 0 -17 -2 -17 -2l-4 51c9 3 24 6 44 6z" />
    <glyph glyph-name="seven.sups" unicode="&#x2077;" horiz-adv-x="346" 
d="M31 867l12 13s64 -6 79 -6h217l10 -49l-212 -443l-93 32l150 277c4 8 28 60 33 89h-99c-6 0 -19 -1 -33 -2c-2 -9 -6 -18 -10 -28l-6 -30l-55 2z" />
    <glyph glyph-name="eight.sups" unicode="&#x2078;" horiz-adv-x="369" 
d="M37 789c0 66 70 104 147 104c75 0 147 -37 147 -106c0 -48 -38 -84 -74 -108c46 -27 88 -63 88 -124c0 -79 -78 -112 -161 -112c-82 0 -161 34 -161 114c0 51 47 89 89 114c-40 26 -75 61 -75 118zM125 557c0 -36 21 -57 59 -57s58 18 58 54c0 41 -32 62 -71 83
c-24 -19 -46 -46 -46 -80zM230 787c0 32 -20 50 -46 50c-24 0 -46 -18 -46 -47c0 -40 26 -60 60 -80c17 20 32 47 32 77z" />
    <glyph glyph-name="nine.sups" unicode="&#x2079;" horiz-adv-x="376" 
d="M162 603c-87 0 -138 49 -138 134c0 79 72 143 161 143c109 0 169 -69 169 -166c0 -137 -96 -299 -296 -332l-16 52c162 40 199 174 199 280c0 53 -16 102 -55 102c-38 0 -48 -41 -48 -79c0 -45 17 -80 45 -80c7 0 17 1 19 2l4 -50c-9 -2 -24 -6 -44 -6z" />
    <glyph glyph-name="fraction" unicode="&#x2044;" horiz-adv-x="100" 
d="M208 720l70 -45l-424 -724l-71 45z" />
    <glyph glyph-name="zero.tf" horiz-adv-x="510" 
d="M12 321c0 182 70 341 249 341c174 0 242 -153 242 -331c0 -182 -70 -341 -248 -341c-175 0 -243 153 -243 331zM340 336c0 113 -14 241 -80 241c-71 0 -84 -143 -84 -261c0 -113 14 -241 80 -241c71 0 84 143 84 261z" />
    <glyph glyph-name="one.tf" horiz-adv-x="510" 
d="M457 71l-6 -76s-87 5 -201 5c-46 0 -139 -5 -139 -5l-5 70l99 12s9 66 9 86v321l-123 -49l-37 62s141 102 161 118c11 9 49 57 49 57l103 -12s-8 -184 -8 -234v-233c0 -50 9 -116 10 -116z" />
    <glyph glyph-name="two.tf" horiz-adv-x="510" 
d="M228 662c144 0 223 -63 223 -172c0 -102 -53 -186 -263 -372h109c28 0 79 9 83 10l15 51l7 37l78 -6l-8 -193l-29 -20s-88 3 -107 3h-313l-14 99c222 210 281 288 281 378c0 57 -33 87 -83 87c-27 0 -54 -8 -81 -24c-6 -19 -8 -31 -8 -38v-43l-79 -5l-7 173
c65 24 128 35 196 35z" />
    <glyph glyph-name="three.tf" horiz-adv-x="510" 
d="M123 562c0 0 -8 -35 -8 -39v-53l-79 -5l-14 168c58 19 121 29 183 29c150 0 230 -60 230 -175c0 -63 -41 -119 -114 -155c82 -17 144 -85 144 -158c0 -142 -178 -261 -420 -279l-22 76c167 18 278 94 278 192c0 71 -37 107 -108 107c-27 0 -64 -4 -64 -4l-14 73
c110 18 168 72 168 154c0 53 -30 81 -84 81c-26 0 -54 -5 -76 -12z" />
    <glyph glyph-name="four.tf" horiz-adv-x="510" 
d="M335 739l98 -84s-95 -102 -109 -125l-180 -257h120l1 97l141 48l-1 -136l88 5l-1 -105h-88v-22c-1 -42 8 -82 8 -83l85 -6l-5 -76s-109 5 -217 5c-46 0 -126 -5 -126 -5l-4 70l109 12c0 1 9 65 9 84v21h-188l-73 92z" />
    <glyph glyph-name="five.tf" horiz-adv-x="510" 
d="M181 652l252 10l6 -127s-137 -14 -167 -14h-94l-9 -142c21 3 47 4 64 4c152 0 234 -75 234 -196c0 -156 -135 -253 -395 -292l-22 74c184 40 261 96 261 195c0 73 -37 116 -122 116c-23 0 -53 -3 -93 -14l-47 54l25 314l19 18h88z" />
    <glyph glyph-name="six.tf" horiz-adv-x="510" 
d="M297 413c125 0 194 -78 194 -203c0 -123 -109 -221 -232 -221c-152 0 -239 103 -239 255c0 211 143 450 432 503l16 -66c-213 -75 -289 -272 -289 -437c0 -84 23 -163 80 -163c60 0 72 68 72 128c0 52 -16 125 -68 125c-14 0 -28 -3 -28 -3l-5 72c13 5 38 10 67 10z" />
    <glyph glyph-name="seven.tf" horiz-adv-x="510" 
d="M46 641l18 20s97 -9 120 -9h318l16 -69l-316 -688l-125 43l225 441c7 14 31 93 44 141h-153c-10 0 -34 -2 -56 -4c-4 -14 -10 -28 -15 -42l-8 -46l-79 3z" />
    <glyph glyph-name="eight.tf" horiz-adv-x="510" 
d="M41 522c0 106 109 160 214 160s213 -56 213 -163c0 -74 -55 -133 -103 -169c66 -41 125 -95 125 -194c0 -114 -123 -166 -236 -166c-118 0 -235 53 -235 174c0 81 66 140 124 178c-56 39 -102 91 -102 180zM166 165c0 -57 34 -93 89 -93c54 0 87 32 87 90
c0 59 -49 92 -107 125c-36 -29 -69 -70 -69 -122zM324 518c0 47 -24 82 -69 82c-42 0 -70 -35 -70 -79c0 -55 39 -88 90 -119c26 30 49 70 49 116z" />
    <glyph glyph-name="nine.tf" horiz-adv-x="510" 
d="M220 238c-124 0 -196 74 -196 203c0 123 103 221 231 221c155 0 239 -106 239 -255c0 -211 -138 -459 -427 -512l-22 74c237 67 291 274 291 438c0 84 -23 163 -80 163c-58 0 -73 -66 -73 -128c0 -70 26 -125 67 -125c11 0 28 2 29 3l5 -72c-13 -5 -35 -10 -64 -10z" />
    <glyph glyph-name="zero.dnom" horiz-adv-x="414" 
d="M25 218c0 121 51 226 182 226s182 -105 182 -226c0 -120 -51 -225 -182 -225s-182 105 -182 225zM268 218c0 77 -10 165 -61 165s-61 -88 -61 -165c0 -76 10 -165 61 -165s61 89 61 165z" />
    <glyph glyph-name="one.dnom" horiz-adv-x="319" 
d="M301 50l-4 -53s-56 3 -139 3c-35 0 -89 -3 -89 -3l-4 49l62 8c-1 -2 6 45 6 58v207l-70 -23l-27 44s84 61 98 72c8 6 34 38 34 38l78 -8s-6 -123 -6 -157v-152c0 -35 7 -81 7 -79z" />
    <glyph glyph-name="two.dnom" horiz-adv-x="401" 
d="M178 444c105 0 163 -43 163 -117c0 -66 -44 -126 -189 -244h76c18 0 62 7 62 7s8 27 10 34l6 27l57 -4l-6 -136l-22 -13s-61 2 -73 2h-231l-10 70c155 131 201 188 201 248c0 37 -24 55 -59 55c-19 0 -39 -6 -59 -16c-4 -13 -5 -19 -5 -24v-28l-58 -4l-4 119
c46 16 93 24 141 24z" />
    <glyph glyph-name="three.dnom" horiz-adv-x="361" 
d="M149 444c103 0 158 -41 158 -119c0 -41 -27 -78 -76 -103c53 -10 95 -57 95 -105c0 -96 -123 -176 -287 -187l-15 54c109 10 181 60 181 125c0 47 -21 70 -66 70c-17 0 -42 -3 -42 -3l-10 52c70 12 108 49 108 103c0 33 -18 49 -51 49c-16 0 -36 -3 -50 -6
c-4 -19 -3 -17 -3 -19v-43l-59 -3l-10 115c39 13 83 20 127 20z" />
    <glyph glyph-name="four.dnom" horiz-adv-x="412" 
d="M261 495l73 -60s-70 -65 -80 -80l-131 -170h88v59l104 35v-88l65 4v-75h-65v-14c0 -28 7 -54 7 -53l44 -4l-3 -52s-62 3 -142 3c-34 0 -78 -3 -78 -3l-3 48l65 8c0 -1 6 45 6 58v9h-139l-55 66z" />
    <glyph glyph-name="five.dnom" horiz-adv-x="358" 
d="M132 437l168 7l4 -93s-82 -8 -103 -8h-69s-1 -33 -5 -86c13 1 29 2 40 2c103 0 156 -52 156 -132c0 -104 -88 -169 -268 -197l-15 53c132 30 168 65 168 127c0 47 -22 75 -76 75c-15 0 -35 -2 -61 -9l-33 40c6 101 18 209 18 209l13 12h63z" />
    <glyph glyph-name="six.dnom" horiz-adv-x="404" 
d="M229 278c90 0 144 -49 144 -137c0 -82 -75 -148 -168 -148c-114 0 -176 71 -176 172c0 141 103 300 313 335l12 -46c-153 -49 -208 -180 -208 -289c0 -56 17 -106 58 -106s51 42 51 82c0 46 -19 82 -48 82c-7 0 -20 -2 -20 -2l-4 51c9 3 25 6 46 6z" />
    <glyph glyph-name="seven.dnom" horiz-adv-x="373" 
d="M39 429l12 14s67 -6 83 -6h225l11 -50l-221 -457l-96 32l156 287c5 8 30 62 35 92h-104c-6 0 -20 -1 -35 -2c-3 -10 -7 -19 -11 -30l-5 -30l-58 2z" />
    <glyph glyph-name="eight.dnom" horiz-adv-x="397" 
d="M45 349c0 68 73 108 153 108c78 0 153 -39 153 -109c0 -50 -40 -87 -78 -112c49 -27 93 -65 93 -127c0 -82 -81 -116 -168 -116c-85 0 -168 35 -168 117c0 54 48 92 92 118c-41 26 -77 62 -77 121zM136 110c0 -37 22 -59 62 -59s61 19 61 56c0 42 -34 64 -75 86
c-25 -19 -48 -47 -48 -83zM247 348c0 33 -21 51 -49 51c-25 0 -49 -18 -49 -49c0 -41 28 -62 64 -82c18 21 34 48 34 80z" />
    <glyph glyph-name="nine.dnom" horiz-adv-x="404" 
d="M175 158c-91 0 -144 50 -144 138c0 82 75 148 168 148c114 0 176 -72 176 -172c0 -141 -100 -308 -309 -342l-17 53c170 42 209 179 209 289c0 55 -17 106 -58 106c-40 0 -51 -43 -51 -82c0 -46 18 -82 48 -82c7 0 18 1 20 2l4 -52c-9 -3 -24 -6 -46 -6z" />
    <glyph glyph-name="zero.numr" horiz-adv-x="384" 
d="M18 512c0 117 49 218 174 218s174 -101 174 -218s-49 -219 -174 -219s-174 102 -174 219zM250 512c0 74 -10 160 -58 160s-57 -86 -57 -160s9 -160 57 -160s58 86 58 160z" />
    <glyph glyph-name="one.numr" horiz-adv-x="294" 
d="M283 348l-4 -51s-54 3 -133 3c-34 0 -86 -3 -86 -3l-3 48l59 7c-1 -2 6 44 6 57v200l-67 -22l-26 43s81 59 94 70c7 6 32 37 32 37l76 -8s-6 -120 -6 -152v-148c0 -34 7 -79 7 -77z" />
    <glyph glyph-name="two.numr" horiz-adv-x="373" 
d="M166 730c102 0 155 -43 155 -117c0 -66 -39 -112 -176 -230h76c18 0 52 7 52 7s8 27 10 34l6 27l57 -4l-6 -136l-22 -13s-61 2 -73 2h-221l-10 70c147 131 193 177 193 237c0 32 -24 54 -56 54c-17 0 -36 -6 -54 -16c-4 -13 -5 -21 -5 -26v-28l-58 -4l-4 119
c44 16 90 24 136 24z" />
    <glyph glyph-name="three.numr" horiz-adv-x="335" 
d="M137 730c99 0 152 -39 152 -115c0 -40 -26 -76 -73 -100c51 -9 91 -55 91 -101c0 -93 -118 -171 -275 -182l-15 53c104 10 173 57 173 121c0 45 -20 67 -63 67c-15 0 -40 -3 -40 -3l-9 51c67 12 103 48 103 101c0 31 -17 47 -49 47c-15 0 -34 -3 -47 -7
c-4 -18 -3 -15 -3 -18l-1 -41l-57 -4l-9 112c37 13 80 19 122 19z" />
    <glyph glyph-name="four.numr" horiz-adv-x="384" 
d="M244 780l70 -59s-66 -62 -76 -77l-126 -164h84v57l101 34v-85l62 3v-73h-62v-13c0 -27 6 -53 6 -52l42 -3l-3 -51s-60 3 -136 3c-33 0 -75 -3 -75 -3l-3 47l62 7c0 -1 6 44 6 57v8h-132l-53 65z" />
    <glyph glyph-name="five.numr" horiz-adv-x="332" 
d="M121 724l160 6l4 -90s-78 -8 -97 -8h-66s-2 -31 -6 -82c12 1 28 1 38 1c99 0 150 -50 150 -128c0 -100 -84 -164 -256 -191l-16 52c127 29 161 62 161 122c0 46 -21 74 -73 74c-14 0 -33 -2 -57 -9l-33 39c7 99 18 202 18 202l12 12h61z" />
    <glyph glyph-name="six.numr" horiz-adv-x="376" 
d="M218 573c85 0 136 -44 136 -132c0 -82 -73 -148 -163 -148c-111 0 -171 71 -171 172c0 135 101 287 302 321l11 -47c-142 -46 -196 -171 -196 -274c0 -56 15 -106 53 -106c37 0 46 42 46 82c0 46 -16 77 -41 77c-6 0 -17 -2 -17 -2l-4 51c9 3 24 6 44 6z" />
    <glyph glyph-name="seven.numr" horiz-adv-x="346" 
d="M31 717l12 13s64 -6 79 -6h217l10 -49l-212 -443l-93 32l150 277c4 8 28 60 33 89h-99c-6 0 -19 -1 -33 -2c-2 -9 -6 -18 -10 -28l-6 -30l-55 2z" />
    <glyph glyph-name="eight.numr" horiz-adv-x="369" 
d="M37 639c0 66 70 104 147 104c75 0 147 -37 147 -106c0 -48 -38 -84 -74 -108c46 -27 88 -63 88 -124c0 -79 -78 -112 -161 -112c-82 0 -161 34 -161 114c0 51 47 89 89 114c-40 26 -75 61 -75 118zM125 407c0 -36 21 -57 59 -57s58 18 58 54c0 41 -32 62 -71 83
c-24 -19 -46 -46 -46 -80zM230 637c0 32 -20 50 -46 50c-24 0 -46 -18 -46 -47c0 -40 26 -60 60 -80c17 20 32 47 32 77z" />
    <glyph glyph-name="nine.numr" horiz-adv-x="376" 
d="M162 453c-87 0 -138 49 -138 134c0 79 72 143 161 143c109 0 169 -69 169 -166c0 -137 -96 -299 -296 -332l-16 52c162 40 199 174 199 280c0 53 -16 102 -55 102c-38 0 -48 -41 -48 -79c0 -45 17 -80 45 -80c7 0 17 1 19 2l4 -50c-9 -2 -24 -6 -44 -6z" />
    <glyph glyph-name="space" unicode=" " horiz-adv-x="179" 
 />
    <glyph glyph-name="commaaccentcomb" horiz-adv-x="215" 
d="M45 -126c0 46 33 68 64 68c42 0 66 -28 66 -76c0 -57 -61 -140 -61 -140l-46 12s18 55 18 82c-12 4 -41 19 -41 54z" />
    <glyph glyph-name="dotbelowcomb" unicode="&#x323;" horiz-adv-x="360" 
d="M180 -65c48 0 77 -29 77 -78c0 -46 -27 -77 -77 -77s-77 31 -77 77s27 78 77 78z" />
    <glyph glyph-name="hookabovecomb" unicode="&#x309;" horiz-adv-x="360" 
d="M169 748c47 0 94 -26 94 -74c0 -52 -65 -58 -65 -82c0 -12 6 -26 6 -26c-5 -5 -17 -7 -28 -7c-27 0 -45 15 -45 38v4c0 34 49 40 49 68c0 16 -11 23 -25 23c-18 0 -42 -11 -42 -11l-16 49c12 6 37 18 72 18z" />
    <glyph glyph-name="horncomb" horiz-adv-x="360" 
d="M153 642l107 28c12 -27 19 -54 19 -78c0 -76 -28 -126 -173 -130l-17 59c62 0 87 18 87 44c0 30 -23 77 -23 77z" />
    <glyph glyph-name="acute" unicode="&#xb4;" horiz-adv-x="360" 
d="M260 755l47 -76s-122 -56 -140 -65l-67 -49l-47 58z" />
    <glyph glyph-name="breve" unicode="&#x2d8;" horiz-adv-x="360" 
d="M268 727h66c0 -100 -61 -155 -154 -155s-154 55 -154 155h66c0 -50 38 -79 88 -79s88 29 88 79z" />
    <glyph glyph-name="caron" unicode="&#x2c7;" horiz-adv-x="360" 
d="M34 765l67 -53c10 -5 47 -28 79 -47c32 20 69 42 79 47l67 53l52 -58l-198 -143l-198 143z" />
    <glyph glyph-name="cedilla" unicode="&#xb8;" horiz-adv-x="360" 
d="M215 10l-14 -69c59 -1 101 -33 101 -87c0 -63 -51 -89 -114 -89c-37 0 -79 10 -96 18l18 49c16 -5 35 -11 55 -11c24 0 47 8 47 33s-18 31 -42 31c-6 0 -21 -1 -21 -1l-11 14l11 112h66z" />
    <glyph glyph-name="circumflex" unicode="&#x2c6;" horiz-adv-x="360" 
d="M180 765l198 -143l-47 -58l-67 53c-10 5 -51 26 -84 44l-84 -44l-67 -53l-47 58z" />
    <glyph glyph-name="dieresis" unicode="&#xa8;" horiz-adv-x="360" 
d="M62 725c42 0 67 -26 67 -70c0 -41 -23 -69 -67 -69s-68 28 -68 69s24 70 68 70zM299 725c42 0 67 -26 67 -70c0 -41 -23 -69 -67 -69s-67 28 -67 69s23 70 67 70z" />
    <glyph glyph-name="dotaccent" unicode="&#x2d9;" horiz-adv-x="360" 
d="M180 735c49 0 79 -30 79 -80c0 -47 -28 -79 -79 -79s-79 32 -79 79s28 80 79 80z" />
    <glyph glyph-name="grave" unicode="`" horiz-adv-x="360" 
d="M307 623l-47 -58l-67 49c-18 9 -140 65 -140 65l47 76z" />
    <glyph glyph-name="hungarumlaut" unicode="&#x2dd;" horiz-adv-x="360" 
d="M379 762l48 -77s-134 -62 -152 -71l-67 -49l-47 58zM193 762l41 -66s-127 -70 -145 -82l-67 -49l-47 58z" />
    <glyph glyph-name="macron" unicode="&#xaf;" horiz-adv-x="360" 
d="M334 596h-315v73h322z" />
    <glyph glyph-name="ogonek" unicode="&#x2db;" horiz-adv-x="360" 
d="M219 6h88c-44 -28 -65 -56 -65 -91c0 -26 15 -48 45 -48c10 0 21 2 34 7l18 -48c-18 -9 -54 -23 -95 -23c-64 0 -109 29 -109 89c0 56 45 88 84 114z" />
    <glyph glyph-name="ring" unicode="&#x2da;" horiz-adv-x="360" 
d="M180 761c66 0 99 -38 99 -96c0 -57 -33 -95 -99 -95s-100 38 -100 95c0 58 34 96 100 96zM180 703c-22 0 -31 -18 -31 -38c0 -19 9 -37 31 -37c23 0 32 18 32 37c0 20 -9 38 -32 38z" />
    <glyph glyph-name="tilde" unicode="&#x2dc;" horiz-adv-x="360" 
d="M305 723l49 -28s-45 -101 -88 -101s-122 38 -165 38c-24 0 -49 -42 -49 -42l-47 28s46 105 89 105c42 0 123 -38 165 -38c24 0 46 38 46 38z" />
    <glyph glyph-name="acute.cap" horiz-adv-x="360" 
d="M280 687l36 -84s-143 -40 -162 -46l-74 -38l-37 64z" />
    <glyph glyph-name="caron.cap" horiz-adv-x="360" 
d="M331 688l47 -58l-198 -133l-198 133l47 58l67 -49l84 -41l84 41z" />
    <glyph glyph-name="circumflex.cap" horiz-adv-x="360" 
d="M180 697l198 -133l-47 -58l-67 49l-84 41l-84 -41l-67 -49l-47 58z" />
    <glyph glyph-name="dieresis.i" horiz-adv-x="360" 
d="M92 725c41 0 65 -26 65 -70c0 -41 -22 -69 -65 -69c-42 0 -65 28 -65 69s23 70 65 70zM266 725c41 0 65 -26 65 -70c0 -41 -22 -69 -65 -69c-42 0 -64 28 -64 69s22 70 64 70z" />
    <glyph glyph-name="grave.cap" horiz-adv-x="360" 
d="M316 593l-37 -64l-74 38c-19 6 -162 46 -162 46l36 84z" />
    <glyph glyph-name="hungarumlaut.cap" horiz-adv-x="360" 
d="M191 707l36 -79s-139 -59 -158 -65l-74 -40l-39 63zM416 702l36 -84s-143 -51 -162 -57l-74 -38l-36 62z" />
    <glyph glyph-name="hungarumlaut.i" horiz-adv-x="360" 
d="M173 769l50 -70s-128 -73 -146 -82l-63 -53l-52 55zM350 761l48 -77s-134 -62 -152 -71l-67 -49l-47 58z" />
    <glyph glyph-name="macron.i" horiz-adv-x="360" 
d="M324 596h-273v73h278z" />
    <glyph glyph-name="tilde.cap" horiz-adv-x="360" 
d="M325 672l49 -28s-45 -101 -88 -101s-142 38 -185 38c-24 0 -49 -42 -49 -42l-47 28s46 105 89 105c42 0 143 -38 185 -38c24 0 46 38 46 38z" />
    <glyph glyph-name="tilde.i" horiz-adv-x="360" 
d="M285 723l49 -28s-39 -101 -76 -101s-106 38 -143 38c-18 0 -43 -42 -43 -42l-47 28s40 105 77 105c36 0 107 -38 143 -38c18 0 40 38 40 38z" />
    <glyph glyph-name="A" unicode="A" horiz-adv-x="667" 
d="M668 65l-5 -70s-49 5 -84 5c-119 0 -204 -5 -204 -5l-5 73l59 9l-5 52l-14 50h-189l-17 -64l-6 -38l58 -12l-5 -70s-59 5 -106 5c-85 0 -139 -5 -139 -5l-5 73l45 7l42 86l189 544l112 11l200 -588l23 -54zM320 498l-72 -237l136 2z" />
    <glyph glyph-name="breveacute" horiz-adv-x="360" 
d="M266 660h68c-5 -79 -71 -128 -154 -128s-149 49 -154 128h68c5 -40 41 -59 86 -59s81 19 86 59zM280 770l40 -65s-90 -37 -102 -45l-58 -39l-37 51z" />
    <glyph glyph-name="brevegrave" horiz-adv-x="360" 
d="M266 660h68c-5 -79 -71 -128 -154 -128s-149 49 -154 128h68c5 -40 41 -59 86 -59s81 19 86 59zM241 672l-37 -51l-58 39c-12 8 -102 45 -102 45l40 65z" />
    </font>
</defs>
</svg>
